<svg xmlns="http://www.w3.org/2000/svg" viewBox="0 0 960 720" role="img" aria-labelledby="title desc"><title id="title">Chess Studio file graph</title><desc id="desc">Source-backed visualization generated from the chess-studio code graph and the Django benchmark data.</desc><rect width="960" height="720" fill="#f8fafc"/><style>text{font-family:-apple-system,BlinkMacSystemFont,"Segoe UI",sans-serif} .path{font-family:ui-monospace,SFMono-Regular,Menlo,monospace}</style><text x="40.0" y="42.0" font-size="24" fill="#0f172a" text-anchor="start" font-weight="700">Chess Studio · bounded file-level graph</text><text x="40.0" y="70.0" font-size="14" fill="#475569" text-anchor="start">Query: PGN import worker · 3 lexical anchors · 12 ranked files shown</text><text x="40.0" y="98.0" font-size="13" fill="#475569" text-anchor="start">The database contains 532 files; this view shows the query-relevant PageRank neighborhood.</text><line x1="480.0" y1="100.0" x2="185.6" y2="377.5" stroke="#b45309" stroke-width="2"/><line x1="480.0" y1="100.0" x2="480.0" y2="470.0" stroke="#b45309" stroke-width="2"/><line x1="480.0" y1="100.0" x2="820.0" y2="285.0" stroke="#b45309" stroke-width="2"/><line x1="480.0" y1="100.0" x2="310.0" y2="124.8" stroke="#b45309" stroke-width="2"/><line x1="480.0" y1="100.0" x2="774.4" y2="377.5" stroke="#b45309" stroke-width="2"/><line x1="480.0" y1="100.0" x2="650.0" y2="445.2" stroke="#b45309" stroke-width="2"/><line x1="480.0" y1="100.0" x2="185.6" y2="192.5" stroke="#2563eb" stroke-width="2"/><line x1="480.0" y1="100.0" x2="650.0" y2="124.8" stroke="#2563eb" stroke-width="2"/><line x1="480.0" y1="100.0" x2="140.0" y2="285.0" stroke="#b45309" stroke-width="2"/><line x1="480.0" y1="100.0" x2="310.0" y2="445.2" stroke="#b45309" stroke-width="2"/><line x1="650.0" y1="124.8" x2="774.4" y2="377.5" stroke="#2563eb" stroke-width="2"/><line x1="650.0" y1="124.8" x2="650.0" y2="445.2" stroke="#2563eb" stroke-width="2"/><line x1="650.0" y1="124.8" x2="185.6" y2="192.5" stroke="#b45309" stroke-width="2"/><line x1="650.0" y1="124.8" x2="140.0" y2="285.0" stroke="#2563eb" stroke-width="2"/><line x1="650.0" y1="124.8" x2="310.0" y2="445.2" stroke="#b45309" stroke-width="2"/><line x1="820.0" y1="285.0" x2="185.6" y2="377.5" stroke="#b45309" stroke-width="2"/><line x1="820.0" y1="285.0" x2="480.0" y2="470.0" stroke="#b45309" stroke-width="2"/><line x1="820.0" y1="285.0" x2="310.0" y2="124.8" stroke="#b45309" stroke-width="2"/><line x1="820.0" y1="285.0" x2="774.4" y2="377.5" stroke="#2563eb" stroke-width="2"/><line x1="820.0" y1="285.0" x2="650.0" y2="445.2" stroke="#2563eb" stroke-width="2"/><line x1="820.0" y1="285.0" x2="140.0" y2="285.0" stroke="#b45309" stroke-width="2"/><line x1="820.0" y1="285.0" x2="310.0" y2="445.2" stroke="#b45309" stroke-width="2"/><line x1="774.4" y1="377.5" x2="185.6" y2="377.5" stroke="#b45309" stroke-width="2"/><line x1="774.4" y1="377.5" x2="480.0" y2="470.0" stroke="#b45309" stroke-width="2"/><line x1="774.4" y1="377.5" x2="310.0" y2="124.8" stroke="#2563eb" stroke-width="2"/><line x1="774.4" y1="377.5" x2="650.0" y2="445.2" stroke="#2563eb" stroke-width="2"/><line x1="774.4" y1="377.5" x2="185.6" y2="192.5" stroke="#b45309" stroke-width="2"/><line x1="774.4" y1="377.5" x2="140.0" y2="285.0" stroke="#2563eb" stroke-width="2"/><line x1="774.4" y1="377.5" x2="310.0" y2="445.2" stroke="#b45309" stroke-width="2"/><line x1="650.0" y1="445.2" x2="185.6" y2="377.5" stroke="#b45309" stroke-width="2"/><line x1="650.0" y1="445.2" x2="480.0" y2="470.0" stroke="#b45309" stroke-width="2"/><line x1="650.0" y1="445.2" x2="310.0" y2="124.8" stroke="#2563eb" stroke-width="2"/><line x1="650.0" y1="445.2" x2="185.6" y2="192.5" stroke="#b45309" stroke-width="2"/><line x1="650.0" y1="445.2" x2="140.0" y2="285.0" stroke="#b45309" stroke-width="2"/><line x1="650.0" y1="445.2" x2="310.0" y2="445.2" stroke="#b45309" stroke-width="2"/><line x1="480.0" y1="470.0" x2="185.6" y2="377.5" stroke="#b45309" stroke-width="2"/><line x1="480.0" y1="470.0" x2="310.0" y2="124.8" stroke="#b45309" stroke-width="2"/><line x1="480.0" y1="470.0" x2="140.0" y2="285.0" stroke="#b45309" stroke-width="2"/><line x1="480.0" y1="470.0" x2="310.0" y2="445.2" stroke="#b45309" stroke-width="2"/><line x1="310.0" y1="445.2" x2="185.6" y2="377.5" stroke="#b45309" stroke-width="2"/><line x1="310.0" y1="445.2" x2="310.0" y2="124.8" stroke="#b45309" stroke-width="2"/><line x1="310.0" y1="445.2" x2="185.6" y2="192.5" stroke="#b45309" stroke-width="2"/><line x1="310.0" y1="445.2" x2="140.0" y2="285.0" stroke="#b45309" stroke-width="2"/><line x1="185.6" y1="377.5" x2="140.0" y2="285.0" stroke="#b45309" stroke-width="2"/><line x1="140.0" y1="285.0" x2="185.6" y2="192.5" stroke="#b45309" stroke-width="2"/><line x1="185.6" y1="192.5" x2="310.0" y2="124.8" stroke="#2563eb" stroke-width="2"/><circle cx="480.0" cy="100.0" r="30" fill="#2563eb" stroke="white" stroke-width="3"/><text x="480.0" y="105.0" font-size="15" fill="white" text-anchor="middle" font-weight="700">1</text><text x="480.0" y="148.0" font-size="12" fill="#475569" text-anchor="middle">pkg/ui/src/</text><text x="480.0" y="163.0" font-size="13" fill="#0f172a" text-anchor="middle" font-weight="700">pgn-import-worker.ts</text><circle cx="650.0" cy="124.8" r="30" fill="#2563eb" stroke="white" stroke-width="3"/><text x="650.0" y="129.8" font-size="15" fill="white" text-anchor="middle" font-weight="700">2</text><text x="650.0" y="172.8" font-size="12" fill="#475569" text-anchor="middle">pkg/ui/src/</text><text x="650.0" y="187.8" font-size="13" fill="#0f172a" text-anchor="middle" font-weight="700">pgn-import-worker-api.ts</text><circle cx="774.4" cy="192.5" r="30" fill="#2563eb" stroke="white" stroke-width="3"/><text x="774.4" y="197.5" font-size="15" fill="white" text-anchor="middle" font-weight="700">3</text><text x="774.4" y="240.5" font-size="12" fill="#475569" text-anchor="middle">docs/superpowers/plans/</text><text x="774.4" y="255.5" font-size="13" fill="#0f172a" text-anchor="middle" font-weight="700">2026-07-25-fast-pgn-import-deferred-indexing.md</text><circle cx="820.0" cy="285.0" r="25" fill="#7c3aed" stroke="white" stroke-width="3"/><text x="820.0" y="290.0" font-size="15" fill="white" text-anchor="middle" font-weight="700">4</text><text x="820.0" y="333.0" font-size="12" fill="#475569" text-anchor="middle">pkg/ui/src/</text><text x="820.0" y="348.0" font-size="13" fill="#0f172a" text-anchor="middle" font-weight="700">StudyWorkspace.tsx</text><circle cx="774.4" cy="377.5" r="25" fill="#7c3aed" stroke="white" stroke-width="3"/><text x="774.4" y="382.5" font-size="15" fill="white" text-anchor="middle" font-weight="700">5</text><text x="774.4" y="425.5" font-size="12" fill="#475569" text-anchor="middle">pkg/ui/src/</text><text x="774.4" y="440.5" font-size="13" fill="#0f172a" text-anchor="middle" font-weight="700">index.ts</text><circle cx="650.0" cy="445.2" r="25" fill="#7c3aed" stroke="white" stroke-width="3"/><text x="650.0" y="450.2" font-size="15" fill="white" text-anchor="middle" font-weight="700">6</text><text x="650.0" y="493.2" font-size="12" fill="#475569" text-anchor="middle">pkg/ui/src/</text><text x="650.0" y="508.2" font-size="13" fill="#0f172a" text-anchor="middle" font-weight="700">pgn-import-client.ts</text><circle cx="480.0" cy="470.0" r="25" fill="#7c3aed" stroke="white" stroke-width="3"/><text x="480.0" y="475.0" font-size="15" fill="white" text-anchor="middle" font-weight="700">7</text><text x="480.0" y="518.0" font-size="12" fill="#475569" text-anchor="middle">docs/superpowers/plans/</text><text x="480.0" y="533.0" font-size="13" fill="#0f172a" text-anchor="middle" font-weight="700">2026-07-20-scid-feature-parity.md</text><circle cx="310.0" cy="445.2" r="25" fill="#7c3aed" stroke="white" stroke-width="3"/><text x="310.0" y="450.2" font-size="15" fill="white" text-anchor="middle" font-weight="700">8</text><text x="310.0" y="493.2" font-size="12" fill="#475569" text-anchor="middle">pkg/ui/test/</text><text x="310.0" y="508.2" font-size="13" fill="#0f172a" text-anchor="middle" font-weight="700">pgn-import-client.test.ts</text><circle cx="185.6" cy="377.5" r="25" fill="#7c3aed" stroke="white" stroke-width="3"/><text x="185.6" y="382.5" font-size="15" fill="white" text-anchor="middle" font-weight="700">9</text><text x="185.6" y="425.5" font-size="12" fill="#475569" text-anchor="middle">apps/desktop/src/</text><text x="185.6" y="440.5" font-size="13" fill="#0f172a" text-anchor="middle" font-weight="700">styles.css</text><circle cx="140.0" cy="285.0" r="25" fill="#7c3aed" stroke="white" stroke-width="3"/><text x="140.0" y="290.0" font-size="15" fill="white" text-anchor="middle" font-weight="700">10</text><text x="140.0" y="333.0" font-size="12" fill="#475569" text-anchor="middle">pkg/ui/src/</text><text x="140.0" y="348.0" font-size="13" fill="#0f172a" text-anchor="middle" font-weight="700">study-model.ts</text><circle cx="185.6" cy="192.5" r="25" fill="#7c3aed" stroke="white" stroke-width="3"/><text x="185.6" y="197.5" font-size="15" fill="white" text-anchor="middle" font-weight="700">11</text><text x="185.6" y="240.5" font-size="12" fill="#475569" text-anchor="middle">pkg/ui/src/</text><text x="185.6" y="255.5" font-size="13" fill="#0f172a" text-anchor="middle" font-weight="700">pgn-import-protocol.ts</text><circle cx="310.0" cy="124.8" r="25" fill="#7c3aed" stroke="white" stroke-width="3"/><text x="310.0" y="129.8" font-size="15" fill="white" text-anchor="middle" font-weight="700">12</text><text x="310.0" y="172.8" font-size="12" fill="#475569" text-anchor="middle">pkg/ui/src/</text><text x="310.0" y="187.8" font-size="13" fill="#0f172a" text-anchor="middle" font-weight="700">compressed-pgn-input.ts</text><text x="40.0" y="650.0" font-size="13" fill="#475569" text-anchor="start">Blue = lexical anchor   Purple = graph-ranked file   Teal = additional anchor</text><rect x="40" y="671" width="12" height="12" fill="#2563eb"/><text x="58.0" y="682.0" font-size="12" fill="#475569" text-anchor="start">imports / calls</text><rect x="185" y="671" width="12" height="12" fill="#b45309"/><text x="203.0" y="682.0" font-size="12" fill="#475569" text-anchor="start">co-edit history</text><rect x="330" y="671" width="12" height="12" fill="#7c3aed"/><text x="348.0" y="682.0" font-size="12" fill="#475569" text-anchor="start">ranked file</text></svg>
