<svg version="1.1" xmlns="http://www.w3.org/2000/svg" viewBox="0 0 845.0678609771749 387.633743380311" width="1690.1357219543497" height="775.267486760622">
  <!-- svg-source:excalidraw -->
  
  <defs>
    <style class="style-fonts">
      @font-face {
        font-family: "Virgil";
        src: url("https://excalidraw.com/Virgil.woff2");
      }
      @font-face {
        font-family: "Cascadia";
        src: url("https://excalidraw.com/Cascadia.woff2");
      }
    </style>
    
  </defs>
  <rect x="0" y="0" width="845.0678609771749" height="387.633743380311" fill="#ffffff"></rect><g stroke-linecap="round"><g transform="translate(14.479437556117773 11.305088941677013) rotate(0 50.95738665410511 27.303612150440244)" fill-rule="evenodd"><path d="M0 0 C0 0, 0 0, 0 0 M0 0 C0 0, 0 0, 0 0 M2.1 3.68 C3.03 2.59, 3.68 1.44, 5.25 0.24 M2.35 3.31 C3.44 2.16, 4.44 1.19, 5.13 0.46 M4.99 6.7 C6.17 4.54, 8.24 2.73, 9.79 0.53 M4.96 6.94 C6.47 4.17, 8.05 2.39, 11.03 0.35 M6.87 10.92 C9.89 6.86, 12.65 3.56, 16.36 0.18 M6.7 10.42 C10.45 6.95, 13.61 2.24, 15.28 -0.25 M10.32 14 C13.82 10.25, 15.14 6.03, 20.94 -0.31 M10.23 12.44 C14.38 8.23, 18.25 3.57, 20.56 -0.82 M12.72 14.87 C19.09 9.83, 21.87 2.95, 24.25 -1.29 M12.57 16.32 C15.76 10.96, 20.2 6.8, 25.93 0.13 M15.55 19.28 C19.39 13.89, 26.09 7.91, 33.19 0.28 M14.51 18.87 C18.56 13.24, 23.63 9.52, 30.95 -0.1 M16.48 21.33 C23.24 17.09, 27.52 10.94, 37.51 0.01 M16.83 23.09 C21.34 17.26, 27.76 11.69, 37.83 1.17 M19.26 24.53 C26.41 18.22, 35.35 8.2, 41.26 -1.32 M19.84 26.59 C26.05 18.64, 31.83 11.89, 42.31 -0.95 M23.93 27.79 C31.78 20.03, 37.77 9.21, 47 -1.28 M23.33 29.53 C31.6 18.99, 40.95 7.69, 47.6 -0.31 M3.33 56.57 C23.78 35.72, 39.1 16.63, 54.48 0.69 M2.88 58.06 C13.01 45.74, 24.48 33.1, 52.86 -0.95 M9.11 58.47 C22.83 40.46, 39.52 24.76, 56.96 -0.21 M7.58 58.1 C22.43 42.04, 35.5 26.27, 57.17 -0.34 M14.2 58.77 C24.25 43.71, 36.48 34.08, 63.94 -1.62 M14.26 57.18 C29.61 40.33, 45.88 22.17, 64.07 -0.66 M20.72 57.16 C34.94 37.93, 53.18 14.3, 69.38 -1.56 M19.16 57.42 C34.05 40.18, 49.6 22.67, 69.55 -0.04 M23.27 57.02 C37.32 42.17, 50.34 24.87, 74.49 -1.91 M22.95 57.01 C36.16 43.14, 49.62 28.97, 74.55 0.21 M27.69 57.84 C41.52 42.39, 55.85 26.84, 79.97 0.11 M29.26 56.95 C44.55 40.28, 57.89 24.2, 78.94 0.33 M35.3 59.78 C43 47.76, 53.15 33.61, 83.44 1.91 M34.64 57.79 C52.22 36.36, 71.73 15.54, 84.72 0.36 M41.64 56.11 C50.19 46.39, 62.94 35.46, 86.3 5.05 M41.1 58.37 C54.65 39.14, 69.73 21.43, 86.67 3.91 M44.75 57.76 C54.24 47.72, 63.66 34.38, 87.85 8.45 M46.09 58.63 C60.74 39.56, 75.09 23.36, 88.15 7.61 M51.91 57.8 C58.85 46.16, 67.19 35.81, 89.54 12.94 M51.03 58.25 C58.88 47.43, 67.74 37.24, 91.13 11.92 M55.86 55.92 C65.45 46.46, 73.4 36.98, 95.08 12.74 M55.25 57.52 C67.74 45.36, 77.69 32.67, 94.06 14.84 M61.61 58.98 C72.19 45.39, 84.39 34.09, 97.32 16.98 M60.53 58 C69.89 48.34, 78.24 38.18, 96.49 17.71 M66.61 57.47 C74.35 47.52, 85.21 37.77, 99.68 19.64 M67.13 57.33 C73.7 48.34, 81.43 39.51, 98.26 21.38 M71.59 58 C78.31 48.41, 86.99 41.59, 99.04 25.13 M72.22 57.93 C82.83 46.34, 93.65 33, 100.1 24.03 M76.73 55.85 C83.67 47.83, 92.54 41.23, 103.9 25.97 M77.92 57.8 C85.57 48.67, 93.09 38.77, 103.61 27.14" stroke="#4285f4" stroke-width="0.5" fill="none"></path><path d="M-1.33 1.34 C9.3 12.32, 17.91 22.7, 19.5 29.36 M-0.08 0.59 C4.92 5.43, 8.56 11.93, 20.37 26.51 M21.09 25.96 C15.6 32.62, 13.58 39.65, -0.93 55.37 M19.73 27.79 C14.35 35.72, 6.1 45.9, 0.6 54.15 M-1.12 54.97 C23.12 54.34, 46.79 54.35, 81.32 55.85 M-0.08 54.09 C33.23 56.07, 66.47 54.78, 81.46 55.07 M81.69 53.69 C91.06 46.03, 99.6 33.32, 103.91 28.4 M82.69 54.43 C89.27 46.27, 94.44 37.83, 103.25 27.69 M103.76 29.11 C95.38 18.31, 91.6 12.85, 80.95 -1.24 M103.01 27.58 C95.32 18.25, 89.7 9.37, 82.75 -0.97 M83.85 0.33 C52.47 1, 21.96 -0.42, -1.99 -0.21 M82.34 0.86 C50.29 1.16, 19.74 1.24, -0.16 -0.11 M0 0 C0 0, 0 0, 0 0 M0 0 C0 0, 0 0, 0 0" stroke="#1e1e1e" stroke-width="1" fill="none"></path></g></g><mask></mask><g transform="translate(43.96000099182129 26.63374338031099) rotate(0 27.03999900817871 12.5)"><text x="27.03999900817871" y="0" font-family="Virgil, Segoe UI Emoji" font-size="20px" fill="#1e1e1e" text-anchor="middle" style="white-space: pre;" direction="ltr" dominant-baseline="text-before-edge">Scope</text></g><g stroke-linecap="round" transform="translate(10 95.63374338031099) rotate(0 53.5 141)"><path d="M0 0 C0 0, 0 0, 0 0 M0 0 C0 0, 0 0, 0 0 M0.27 7.46 C-0.36 5.55, 1.8 3.37, 6.03 -0.33 M-0.12 6.52 C1.19 4.85, 2.09 2.25, 5.62 -0.23 M2.19 11.7 C2.1 6.01, 4.61 0.79, 10.98 -0.06 M-1.45 11.62 C1.8 9.31, 5.67 4.75, 10.85 1.24 M-1.4 19.59 C6.36 14, 12.72 7.29, 14.63 3.24 M-1.78 16.7 C3.88 14.75, 7.73 7.59, 15.03 1.74 M2.02 25.07 C8.26 15.97, 18.01 5.15, 19.5 0.19 M-1.49 24.21 C6.71 18.52, 12.87 13.72, 22.44 -1.65 M-3.19 33.44 C6.77 23.07, 14.52 9.09, 24.5 0.7 M1.27 28.61 C7.99 20.33, 13.62 12.35, 27.13 0.44 M1.03 39.1 C6.41 24.82, 20.33 8.8, 34.29 -0.05 M-0.16 37.29 C6.94 26.98, 13.2 19.5, 33.37 -1.35 M3.92 40.75 C4.6 37.2, 18.74 26.05, 33.14 -2.58 M-0.8 42.28 C12.61 27.62, 22.47 14.27, 36.95 0.74 M-1 48.61 C10.47 41.54, 14.62 27.6, 41.15 -4.13 M0.52 47.97 C11.77 33.89, 20.46 22.27, 40.9 -0.94 M-0.37 52.19 C18.16 38.77, 33.54 12.83, 48.02 -3.67 M0.22 55.33 C12.13 42.17, 23.92 26.56, 48.81 2.1 M-3.26 63.27 C9.41 42.33, 27.54 26.18, 53.3 -2.89 M-0.76 61.47 C17.57 40.88, 36.94 19.66, 52.5 -2.06 M-1.51 67.68 C19.16 40.23, 42.79 15.67, 56.11 -3.17 M-1.88 67.86 C24.4 42.71, 47.82 15.74, 57.31 1.77 M-0.78 72.5 C22.53 48.87, 40.83 28.82, 63.43 1.35 M1.57 72.05 C18.86 51.82, 38.12 29.82, 61.86 -0.62 M-3.47 81.37 C10.17 58.69, 26.71 47.17, 71.85 2.84 M-1.06 79.47 C23.82 53.96, 47.98 24.47, 67.27 -1.29 M-1.12 86.2 C20.36 68.51, 35.28 45.66, 75.77 2.74 M-0.65 83.67 C19 57.13, 43.32 32.23, 72.94 1.26 M-0.69 94.19 C25.9 59.04, 53.2 30.23, 81.21 -1.23 M0.96 89.78 C25.71 58.63, 53.03 25.7, 77.78 1.66 M-0.96 95.56 C23.18 64.68, 48.32 40.59, 82.02 -0.06 M-1.99 98.82 C25.62 65.09, 56.55 32.35, 83.96 -0.84 M0.53 102.8 C29.39 70.49, 66.06 29.58, 89.65 -2.45 M1.4 103.38 C18.61 82.8, 38.37 63.46, 90.17 1.1 M0.47 109.96 C25.2 85.24, 45.64 57.26, 93.4 -3.86 M-0.82 111.47 C32.57 73.02, 65.7 36.58, 95.36 -1.55 M-2.59 116.35 C34.12 79.59, 69.33 36.43, 98.14 0.57 M-0.3 114.64 C34.13 74.06, 69.74 35.08, 100.01 1.27 M-2.52 121.59 C27.15 93.71, 51.24 60.61, 108.61 -1.03 M0.8 123.6 C31.89 84.33, 58.98 50.3, 105.86 -1.77 M-2 125.28 C32.94 94.77, 64.16 55.03, 109.16 0.03 M0.94 128.4 C36.75 81.95, 75.22 38.76, 111.18 2.4 M-3.49 134.35 C37.46 93.03, 70.98 44.71, 106.65 4.92 M-0.3 134.2 C34.26 96.69, 67.17 60.09, 109.19 7.66 M-0.18 138.23 C33.31 99.15, 69.8 59.15, 108.12 13.87 M-1.64 141.03 C25.08 113.23, 48.29 84.8, 109.2 15.77 M-0.45 148.66 C39.33 94.31, 83.76 47.04, 112.51 18.88 M-1.05 144 C30.9 104.44, 65.54 66.44, 107.84 21.57 M1.93 154.63 C28.84 115.95, 65.44 84.76, 107 23.22 M1.53 152.87 C28.87 117.89, 58.17 83.98, 108.92 25.05 M3.39 162.18 C39.14 113.53, 73.18 70.34, 108 32.71 M-0.76 160.24 C25.38 133.78, 49.4 107.84, 107.87 31.04 M-0.46 161.63 C30.26 124.24, 62.58 87.85, 112.77 39.46 M-1.11 165.29 C35.86 122.01, 72.63 83.55, 110.93 37.47 M2.3 174.83 C34.55 126.62, 72.13 89.82, 113.17 40.85 M1.46 169.62 C36.76 124.44, 76.84 81.36, 108.32 42.92 M-0.63 174.91 C28.04 146.69, 52.79 120.39, 111.24 47.29 M1.17 177.39 C31.47 144.33, 58.56 112.57, 109.4 50.78 M0.08 185.27 C37.99 139.68, 71.66 104.74, 112.23 57.46 M-1.22 182.9 C36.44 136.65, 73 93.43, 111.15 57.07 M2.96 191.37 C25.03 157.05, 50.89 129.36, 109.66 65.6 M0.65 190.78 C30.2 155.51, 56.08 123.06, 110.73 62.18 M-3.29 195.92 C37.09 155.39, 68.23 122.24, 108.89 69.2 M-0.71 195.79 C37.08 156.1, 73.5 114.75, 108.57 67.09 M1.33 202.18 C23.03 177.76, 46.24 147.71, 108.86 72.06 M1.86 202.55 C43.56 151.55, 85.01 99.64, 109.6 76.92 M3.64 205.68 C28.8 173.27, 55.71 140.34, 109.71 83.99 M1.32 205.78 C34.24 166, 68.34 127.91, 110.37 81.1 M3.05 213.25 C37.04 167.83, 76.21 128.89, 105.79 88.08 M1.6 213.82 C25.09 186.32, 51.7 156.68, 111.58 89.22 M3.18 218.74 C38.85 177.01, 77.8 126.25, 110.7 95.98 M0.79 220.86 C18.75 193.23, 43.28 168.45, 110.58 94.69 M-3.17 226.26 C38.41 181.95, 73 143.62, 108.9 99.58 M-0.42 226.69 C43.34 179.92, 84.49 129.9, 108.51 99.06 M-0.91 233.48 C22.79 200.34, 53.58 167.87, 109.43 106.1 M1.85 232.49 C42.08 185.15, 84.9 136.34, 107.5 107.47 M-1.13 239.35 C39.72 192.12, 73.94 147.63, 105.52 113.73 M1.74 237.02 C24.43 209.86, 49.38 186, 109.82 112.94 M-3.31 247.09 C30.27 203.09, 66.97 164.57, 107.61 119 M0.92 244.17 C35.96 201.59, 72.86 162.11, 110.34 116.05 M-3.77 247.95 C24.82 225.54, 43.13 196.18, 112.4 123.93 M-0.35 251.17 C32.81 212.48, 64.28 171.59, 109.14 124.81 M-2.57 252.47 C24.36 225.97, 55.82 199.46, 110.44 127.85 M1.34 256.36 C42.22 206.65, 82.01 160.89, 110.55 130.78 M-2.56 265.72 C31.42 226.08, 67.22 189.08, 107.86 138.36 M1.08 262.97 C24.73 233.7, 44.2 208.07, 108.41 136.67 M-1.73 271.04 C27.49 242.13, 49.34 215.69, 109.98 139.08 M0.69 267.31 C22.02 237.82, 48.26 211.22, 109.18 144.53 M-3.46 273.08 C43.18 231.15, 80.43 181.18, 106.35 144.91 M-1.94 274.31 C26.52 242.59, 56.02 207.46, 108.45 147.5 M-0.97 281.47 C40.74 235.82, 78.37 193.84, 111.76 153.32 M-1.85 281.75 C40.01 233.04, 76.85 191.54, 107.5 153.63 M1.72 283.91 C35.22 243.59, 67.85 203.62, 109.84 160.02 M3.54 285.75 C26.18 257.94, 45.67 233.94, 108.35 162.03 M4.84 287.61 C37.78 249.98, 65.79 214.29, 106.82 170.02 M8.98 282.83 C26.8 258.26, 50.46 231.57, 111.06 166.45 M13.25 287.35 C44.19 250.81, 68.85 218.51, 107.13 173.34 M13.27 282.37 C47.77 244.04, 83.38 206.1, 108.79 171.49 M17.27 283.16 C51.98 242.36, 83.61 210.52, 106.39 176.32 M19.6 284.84 C51.28 249.45, 82.58 212.35, 108.33 180.35 M19.81 286.37 C45.45 263.22, 60.98 239.09, 108.49 184.79 M22.18 284.33 C56.06 246.81, 89.07 205.88, 110.66 186.6 M28.64 286.56 C60.62 252.67, 87.15 218.49, 109.16 187.89 M29.99 284.03 C53.57 256.23, 79.6 229.14, 110 190.42 M30.11 286.62 C58.96 260.47, 74.75 235.89, 109.73 201.03 M35.99 283.74 C52.86 260.36, 73.15 240.87, 111.13 198.1 M37.42 285.71 C62.43 259.05, 90.27 229.52, 108.7 201.65 M40.96 283.37 C65.73 252.07, 91.73 219.48, 108.39 202.28 M48.37 282.28 C61.72 269.09, 73.66 256.34, 110.81 208.47 M46.65 282.44 C66.99 255.58, 95.28 228.12, 110.28 209.72 M52.92 281.8 C63.61 264.45, 83.59 241.06, 112.03 216.76 M50.94 284.34 C72.71 257.44, 96.55 231.82, 107.99 217.04 M58.29 280.01 C69.2 269.12, 75.52 255.59, 107.19 222.03 M56.36 284.05 C69.54 266.62, 85.62 249.84, 110.46 222.94 M57.91 286.21 C75.07 267.18, 85.74 255.93, 111.71 231.13 M58.59 283.93 C75.47 264.45, 93.64 244.77, 109.63 227.78 M63.08 282.97 C74.71 272.47, 85.55 262.42, 113.18 237.88 M65.59 281.93 C78.27 267.22, 96.02 247.98, 107.58 233.74 M68.69 285.13 C83.89 271.6, 97.39 260.26, 112.44 238.42 M70.82 283.12 C80.25 275.33, 86.05 265.89, 109 240.63 M77.46 282.83 C87.48 272.6, 99.46 263.62, 108.55 246.42 M77.03 283.17 C85.67 271.39, 96.96 262.88, 109.79 245.6 M81.72 284.47 C88.77 276.2, 94.37 272.63, 106.43 252.82 M81.47 283.88 C87.87 277.01, 93.32 267.95, 108.07 251.43 M87.64 283.75 C92.04 275.9, 95.26 269.32, 106.6 260.83 M87.65 284.63 C91.94 277.16, 97.89 268.11, 109.51 258.01 M88.97 286.64 C98.36 272.38, 103.25 269.21, 112.75 261.72 M90.61 285.94 C98.27 279, 102.48 272.34, 110.38 262.56 M99.17 286.13 C99.3 278.12, 108.64 276.3, 108.87 273.63 M96.77 284.81 C101.47 279.85, 107.61 272.76, 110.04 271.3 M102.35 283.34 C105.83 283.48, 103.61 280.98, 108.63 277.69 M103.7 283.47 C104.53 281.35, 107.66 279.23, 108.53 276.22" stroke="#4285f4" stroke-width="0.5" fill="none"></path><path d="M-0.01 1.63 C30.75 0.19, 54.54 -3.65, 107.58 0.93 M1.98 -1.82 C40.52 2.19, 85.96 2.6, 106.61 0.31 M107.93 -1.98 C110.58 105.7, 109.13 214.81, 109.95 279.26 M105.89 -0.39 C110.02 60.25, 110.41 123.32, 106.81 280.59 M105.9 283.06 C62.69 281.86, 25.37 282.41, 2.57 283.72 M108.34 280.86 C74.97 281.35, 40.72 282.22, -0.93 282.76 M-0.08 280.32 C0.62 193.36, -4.1 110.55, 0.4 0.44 M-0.33 280.61 C-3.49 175.24, -0.88 70.28, -0.34 -0.37" stroke="#1e1e1e" stroke-width="1" fill="none"></path></g><g transform="translate(20.860000610351562 199.133743380311) rotate(0 42.63999938964844 37.5)"><text x="42.63999938964844" y="0" font-family="Virgil, Segoe UI Emoji" font-size="20px" fill="#1e1e1e" text-anchor="middle" style="white-space: pre;" direction="ltr" dominant-baseline="text-before-edge">Define </text><text x="42.63999938964844" y="25" font-family="Virgil, Segoe UI Emoji" font-size="20px" fill="#1e1e1e" text-anchor="middle" style="white-space: pre;" direction="ltr" dominant-baseline="text-before-edge">the use </text><text x="42.63999938964844" y="50" font-family="Virgil, Segoe UI Emoji" font-size="20px" fill="#1e1e1e" text-anchor="middle" style="white-space: pre;" direction="ltr" dominant-baseline="text-before-edge">case</text></g><g stroke-linecap="round" transform="translate(148.5 93.63374338031099) rotate(0 53.5 141)"><path d="M0 0 C0 0, 0 0, 0 0 M0 0 C0 0, 0 0, 0 0 M0.3 6.78 C1.52 5.73, 2.46 1.09, 6.36 1.26 M0.12 6.65 C1.28 3.82, 3.01 1.79, 5.3 -0.39 M-0.53 10.87 C1.34 12.29, 6.59 7.96, 11.88 0.4 M1.43 10.49 C3.44 7.86, 7.1 3.92, 11.11 0.27 M0.53 17.99 C1.2 17.24, 6.57 10.65, 12.12 -3.58 M-1.27 19.77 C5.57 12.83, 8.24 9.68, 15.49 0.54 M2.13 26.14 C10.73 11.75, 15.36 5.27, 22.49 -2.57 M-1.44 22.95 C5.69 19.12, 13.35 11.06, 20.27 1.52 M0.98 31.89 C7.38 18.66, 19.65 13.13, 28.14 -0.08 M1.73 29.73 C7.22 24.34, 13.73 14.62, 27.31 -1.67 M1.14 40.11 C4.6 24.83, 12.6 15.3, 32.76 -3.45 M1.31 37.54 C7.13 29.31, 14.15 22.2, 30.11 -1.86 M-1.08 38.95 C6.2 33.14, 16.52 18.36, 40.66 3.27 M-0.48 42.9 C11.16 31.06, 18.99 20.45, 35.19 -0.29 M-0.14 47.13 C20.08 27.71, 35.5 8.38, 40.97 2.28 M0.26 49.22 C11.43 35.4, 24.5 24.19, 41.84 0.92 M2.33 57.6 C10.36 38.6, 30.33 19.34, 45.41 1.11 M0.18 54.99 C18.86 32.34, 37.71 11.25, 47.36 -1.73 M3.33 64.62 C15.73 42.13, 32.76 22.98, 56.57 -0.46 M1.97 61.35 C17.45 41.42, 33.97 20.75, 54.8 -1.66 M-1.98 63.49 C21.59 38.26, 43.58 17.97, 57.6 0.63 M1.4 68.26 C19.07 44.11, 38.73 23.49, 58.25 1.37 M-3.23 73.76 C17.54 53.43, 40.44 27.84, 60.53 1.73 M-0.11 74.29 C19.07 49.79, 42.99 22.16, 62.56 0.65 M2.24 82.54 C21.84 58.21, 40.07 28.81, 71.94 -2.51 M1.05 80.41 C22.12 55.47, 42.37 32.38, 68.58 2.12 M0.89 84.2 C30.54 52.12, 53.98 27.48, 77.3 2.78 M1.74 86.15 C29 54.41, 55.42 24.92, 72.95 -0.19 M0.81 91.4 C23.28 67.13, 48.52 37.71, 78.64 -0.16 M1.33 93.19 C27.23 60.66, 54.54 31.26, 81.31 -0.63 M-0.75 94.85 C20.58 67.5, 50.35 46.21, 86.85 1.1 M0.81 97.53 C24.84 71.98, 48.49 40.94, 84.07 1.56 M-0.31 102.51 C30.86 63.32, 59.3 29.5, 87.41 -3.65 M-0.69 105.31 C26.88 71.64, 55.4 39.87, 89.64 1.74 M-3.14 106.89 C35.38 71.17, 73.01 27.93, 96.64 -0.4 M-1.37 108.53 C35.6 65.96, 70.73 25.45, 96.23 1.38 M0.34 116.77 C33.17 78.37, 68.51 33.74, 103.46 -3.81 M-1.67 117.28 C34.18 72.45, 69.38 30.85, 101.03 -0.43 M0.29 120.22 C30.99 85.31, 63.19 50.43, 109.62 -2.3 M0.99 123.26 C33.94 84.24, 69.71 45.41, 108.03 0.49 M-0.94 124.34 C28.59 95.05, 57.35 62.73, 109.53 -0.72 M-0.7 128.06 C36.85 86.78, 75.14 45.1, 111.22 3.23 M-3.76 130.51 C44.98 86.11, 84.75 30.66, 109.06 7.6 M0.6 134.83 C32.68 98.35, 67.23 59, 109.07 6.19 M-2.37 141.64 C28.49 105.27, 56.02 76.14, 111.28 15.34 M-0.62 140.13 C24.58 114.12, 48.97 87.12, 109.61 14.13 M-1.08 145.92 C34.52 105.09, 77.52 58.66, 108.17 17.96 M0.42 146.09 C25.73 118.22, 51.43 89.61, 109.72 19.42 M-0.64 151.83 C35.23 111.18, 65.73 72.39, 108.94 25.22 M-0.01 151.98 C39.86 103.8, 80.48 57.69, 110.92 26.06 M1.39 155.87 C35.84 113.25, 68.28 75.7, 109.02 36.4 M0.99 158.4 C20.05 131.41, 46.52 106.6, 107.91 33.39 M3.69 165.83 C41.49 118.47, 81.32 76.1, 105.72 40.08 M1.46 163.08 C37.25 122.36, 76.06 77.52, 111.62 40.38 M2.18 168.02 C25.69 144.33, 46.45 116.72, 111.92 41.1 M-0.9 172.61 C39.89 122.64, 79.72 76.83, 110.55 45.09 M-2.4 175.05 C27.65 141.79, 59.58 100.04, 107.69 52.34 M-1.62 174.67 C36.77 138.53, 70.7 99.13, 109.77 52.94 M1.33 180.79 C25.33 151.51, 57.15 119.68, 113.32 53.96 M-0.22 181.57 C20.27 155.82, 45.49 130.28, 111.49 56.48 M2.89 192.16 C28.6 164.17, 46.76 133.14, 110.36 64.66 M-1.09 190.48 C41.74 138.1, 87.22 89.32, 107.62 63.1 M3.06 196.34 C27.15 159.32, 60.85 122.36, 113.18 69.4 M-1 195.15 C37.36 148.65, 78.43 101.85, 110.8 67.3 M-1.17 200.06 C29.8 174.89, 52.99 142.91, 110.78 78.45 M-0.54 201.73 C40.45 158.36, 73.89 115.19, 107.72 74.21 M-0.92 205.33 C24.29 184.32, 49.11 157.78, 106.32 79.09 M-1.03 208.95 C45.64 159.14, 85.31 111.24, 110.16 79.79 M-1.77 212.43 C38.25 171.2, 69.13 122.96, 110.18 90.88 M0.71 211.66 C19.89 185.53, 46.02 159.61, 111.55 86.63 M-0.06 219.68 C41.15 173.46, 77.41 132.07, 109 92.93 M-0.52 221.08 C21.68 192.09, 45.4 162.36, 107.47 95.67 M2.05 222.67 C25.34 200.45, 50.69 169.48, 113.25 95.61 M-1.78 224.5 C43.59 176.54, 82.76 132.12, 110.79 98.46 M-2.33 229.55 C37.27 189.38, 76.22 146.73, 107.02 103.6 M0.55 233.13 C19.61 207.36, 41.54 179.64, 108.9 104.67 M-1.26 236.7 C29.45 210.03, 58.1 173.09, 111.56 115.57 M1.84 238.23 C26.21 208.07, 54.25 177.25, 110.76 110.32 M1.82 239.85 C41.23 198.21, 85.77 149.47, 106.35 115.5 M-1.52 242.71 C35.74 204.73, 69.5 165.69, 111.52 117.53 M3.62 249.7 C27.15 223.67, 47.31 194.61, 110.13 127.9 M-1.01 249.33 C36.06 207.27, 72.06 164.16, 108.98 122.3 M2.1 259.25 C27.93 218.97, 68.97 177.31, 108.45 129.55 M0.49 256.44 C43.78 206.32, 85.86 155.92, 110.69 130.72 M-2.54 259.06 C32.33 223.27, 66.75 181.61, 107.5 132.53 M1.31 261.78 C36.01 223.66, 69.4 184.53, 111.24 134.51 M-0.27 268.92 C38.73 227.13, 73.17 184.57, 109.63 143.92 M0.03 266.66 C21.57 240.41, 46.92 214.24, 107.31 143.22 M2.55 276.95 C34.53 234.61, 63.76 194.21, 106.41 149.11 M0.74 275.55 C20.24 246.34, 44.84 219.4, 110.24 148.05 M-1.25 279.27 C37.84 235.39, 86.04 182.01, 111.66 151.02 M0.14 280.24 C23.53 252.57, 45.38 222.56, 110.54 153.52 M-0.66 285.02 C23.83 252.55, 51.8 222.94, 113.04 161.82 M2.06 285.37 C32.13 251.72, 59.03 218.92, 108.96 161.78 M8.57 285.9 C30.07 258.32, 58.91 229.04, 109.83 166.01 M7.98 282.47 C43.71 242.28, 77.86 205.4, 109.8 168.1 M16.34 280.15 C42.39 256.66, 66.82 223.12, 112.47 176.07 M12.93 282.43 C47.2 248.09, 76.35 210.99, 107.94 173.07 M18.99 282.27 C38.95 253.54, 61.94 227.08, 111.62 175.8 M17.84 281.73 C54.58 242.82, 91.27 202.47, 109.42 178.43 M22.48 281.05 C55.45 246.18, 88.4 217.27, 111.21 183.52 M24.15 285 C53.86 248.11, 85.17 214.55, 107.94 186.75 M26.6 286.56 C50.25 258.66, 73.64 235.47, 111.98 187.82 M29.56 284.42 C52.25 256.98, 74.19 230.83, 107.98 189.74 M30.73 285.14 C52.77 269.22, 67.95 242.21, 109.31 198.59 M33.29 283.32 C48.98 266.29, 65.01 245.04, 110.02 195.7 M42.11 286.43 C56.59 267.47, 68.76 246.33, 108.73 206.73 M39.84 283.63 C53.54 267.74, 67.38 248.72, 109.67 201.78 M41.55 286.34 C54.11 270.11, 68.77 254.78, 110.99 207.43 M44.19 285.38 C58.43 266.86, 74.6 251.72, 110.14 209.75 M47.07 282.8 C71.13 255.91, 95.75 233.61, 113.12 215.43 M50.98 282.97 C61.45 267.97, 75.49 252.72, 110.87 213.76 M58.89 283.05 C73.37 265.34, 87.62 244.96, 107.96 224.71 M54.94 284.9 C69.09 269.04, 79.63 255.2, 110.51 220.53 M60.5 286.84 C72.32 263.27, 90.48 247.33, 105.97 227.59 M61.51 285.55 C77.45 265.34, 95.93 245.37, 108.26 228.92 M66.22 286.19 C79.89 270.44, 94.89 249.66, 110.78 230.36 M65.87 285.37 C79.13 267.91, 92.88 253.13, 110.91 234.13 M70.97 284.44 C88.17 269.61, 100.2 249.65, 112.24 236.63 M70.22 282.46 C86.29 267.97, 98.93 252.5, 109.42 239.48 M74.5 287.18 C85.16 277.84, 93.39 265.08, 111.46 246.53 M75.54 284 C85.6 273.22, 95.54 262.54, 107.38 244.16 M79.18 281.29 C87.98 278.61, 95.31 264.36, 112.39 248.46 M82.83 285.82 C91.42 272.79, 97.82 267.08, 108.18 251.43 M90.19 281.93 C91.94 274.43, 100.97 274.15, 111.57 262.13 M88.81 283.8 C92.24 276.29, 97.86 269.45, 108.22 256.22 M89.34 287.55 C96.86 282.01, 99.63 279.66, 105.72 266.25 M91.28 285.48 C95.25 279.76, 104.21 272.71, 107.98 265.26 M99.11 286.55 C103.41 279.4, 104.73 276.5, 108.88 269.87 M96.86 285.3 C102.55 277.07, 107.38 274.98, 108.72 269.05 M101.98 285 C104.15 279.56, 106.03 278.41, 111.19 278 M102.3 284.59 C104.26 280.84, 106.47 278.13, 108.91 276.76" stroke="#ffc9c9" stroke-width="0.5" fill="none"></path><path d="M2.47 -0.29 C32.21 -5.84, 57.11 -1.83, 110.27 -1.78 M-0.64 -0.69 C23.37 -2.93, 46.2 -1.54, 108.16 0.29 M105.2 -2.79 C109.02 64.68, 111.06 137.23, 106.12 283.07 M106.96 -0.22 C109.66 75.55, 110.91 148.22, 107.29 280.8 M107.93 280.28 C83.78 286.61, 55.21 287.65, 3.79 284.07 M106.49 282.77 C72.21 284.8, 32.69 284.5, 1.13 280.08 M1.69 279.09 C-1.08 181.15, 0.38 81.43, 1.49 0.3 M0.33 282.7 C-3.62 225.89, -3.34 167.58, 0.09 1.25" stroke="#1e1e1e" stroke-width="1" fill="none"></path></g><g transform="translate(156.5 159.633743380311) rotate(0 45.5 75)"><text x="45.5" y="0" font-family="Virgil, Segoe UI Emoji" font-size="20px" fill="#1e1e1e" text-anchor="middle" style="white-space: pre;" direction="ltr" dominant-baseline="text-before-edge">Choose </text><text x="45.5" y="25" font-family="Virgil, Segoe UI Emoji" font-size="20px" fill="#1e1e1e" text-anchor="middle" style="white-space: pre;" direction="ltr" dominant-baseline="text-before-edge">an </text><text x="45.5" y="50" font-family="Virgil, Segoe UI Emoji" font-size="20px" fill="#1e1e1e" text-anchor="middle" style="white-space: pre;" direction="ltr" dominant-baseline="text-before-edge">existing </text><text x="45.5" y="75" font-family="Virgil, Segoe UI Emoji" font-size="20px" fill="#1e1e1e" text-anchor="middle" style="white-space: pre;" direction="ltr" dominant-baseline="text-before-edge">model or </text><text x="45.5" y="100" font-family="Virgil, Segoe UI Emoji" font-size="20px" fill="#1e1e1e" text-anchor="middle" style="white-space: pre;" direction="ltr" dominant-baseline="text-before-edge">pretrain </text><text x="45.5" y="125" font-family="Virgil, Segoe UI Emoji" font-size="20px" fill="#1e1e1e" text-anchor="middle" style="white-space: pre;" direction="ltr" dominant-baseline="text-before-edge">your own</text></g><g stroke-linecap="round"><g transform="translate(154.042613345895 10.827762493284808) rotate(0 51.4023886623346 28.38201513251579)" fill-rule="evenodd"><path d="M0 0 C0 0, 0 0, 0 0 M0 0 C0 0, 0 0, 0 0 M2.69 3.56 C3.26 2.06, 4.32 1.25, 5.01 0.6 M2.19 3.42 C3.04 2.6, 4.02 1.52, 4.82 0.46 M4.61 7.34 C5.82 5.02, 8.88 1.45, 10.08 0.35 M4.99 7.11 C6.54 5.06, 8.04 2.39, 10.99 -0.33 M7.85 10.8 C10.2 6.44, 12.42 4.01, 15.5 1.6 M7.19 10 C10.68 6.14, 13.23 3.59, 16.09 0.82 M10.77 14.51 C14.9 8.04, 19.37 3.71, 19.95 -0.02 M9.63 13.51 C12.65 10.2, 16.55 5.62, 21.09 -0.13 M13.79 17.89 C18.43 9.5, 23.52 5.66, 28.16 -0.45 M12.34 15.39 C15.42 11.19, 20.82 8.23, 26.7 0.64 M15.89 19.21 C21.36 15.84, 24.99 7.84, 30.92 1.73 M14.72 19.28 C20.73 11.8, 25.97 5.49, 31.24 -1.04 M16.36 24.73 C23.66 16.97, 30.95 9.62, 36.49 1.91 M16.44 22.15 C24.24 15.31, 32.07 6.31, 37.12 0.23 M18.3 24.93 C28.87 15.75, 36.18 7.24, 43.08 1.55 M19.57 26.59 C27.29 17.99, 35.4 7.66, 43.22 -1.1 M19.97 31.41 C30.06 18.4, 38.74 7.31, 47.88 -0.26 M21.99 29.23 C29.59 20.98, 37.35 12.59, 48.34 -0.27 M3.6 59.29 C17.54 40, 35.31 21.86, 54.88 0.66 M2.46 56.95 C16.03 42.44, 29.43 27.21, 53.2 -0.92 M7.16 58.04 C24.87 38.95, 42.83 20.64, 60.04 1.14 M6.64 57.44 C28.04 35.74, 47.19 11.28, 57.97 0.11 M13.71 58.78 C28.87 42.27, 45.25 23.82, 63.13 -1.94 M12.7 58.23 C26.2 42.48, 38.87 28.53, 64.24 0.05 M17.74 58.04 C29.42 46.52, 41.56 33.62, 68.92 -0.04 M17.91 58.25 C34.99 38.67, 53.89 17.69, 68.51 -0.54 M24.02 57.96 C34.92 44.81, 47.89 30.85, 74.94 -1.54 M23.73 57.73 C39.7 39.47, 54.36 21.67, 74.25 -0.53 M28.85 57.81 C47.03 34.89, 65.86 13.84, 80.73 -0.18 M29.29 57.5 C45.51 38.14, 61.21 20.03, 79.32 1.03 M35.75 57.44 C43.02 44.43, 56.15 34.97, 82.31 1.87 M35.41 58.18 C52.9 37.11, 70.85 17.32, 82.73 1.65 M40.81 56.84 C54.85 41.4, 72.25 21.18, 88 6.59 M40.08 57.49 C50.34 46.59, 59.82 34.76, 86.71 3.69 M44.36 59.57 C61.91 37.57, 77.08 20.11, 89.55 8.28 M44.48 57.44 C56.68 43.98, 69.23 28.29, 88.08 8.28 M48.23 56.35 C63.36 44.07, 75.51 29.73, 91.39 13.11 M50.47 57.64 C59.58 46.72, 70.73 35.08, 91.75 10.65 M55.54 56.46 C62.68 47.57, 72.46 39.78, 95.08 14.39 M56.57 58.49 C64.98 48.86, 71.7 38.6, 93.44 15.1 M59.92 59.33 C73.83 40.74, 90.13 25.53, 94.48 17.23 M61.5 58.48 C70.09 46.37, 80.9 34.39, 97.06 17.5 M64.6 58.72 C76.16 43.65, 88.31 30.12, 99.64 19.17 M65.49 58.17 C74.35 50.34, 81.45 40.84, 98.89 21.55 M70.97 58.51 C83.32 47.75, 89.78 35.62, 99.18 23.06 M71.1 57.69 C78.13 51.62, 84.84 44.4, 100.2 23.48 M75.06 60.44 C88.69 45.93, 97.32 33.75, 104.25 25.63 M75.94 58.22 C85.99 48.37, 93.55 36.5, 103.43 28.4" stroke="#ffc9c9" stroke-width="0.5" fill="none"></path><path d="M-1.14 1.33 C7.72 7.74, 11.81 18.05, 20.47 28.22 M0.47 0.52 C8.44 9.92, 15.45 21.29, 20.91 27.38 M18.9 26.87 C13.6 37.37, 9.49 44.06, -0.99 57.59 M20.84 28.35 C14.28 36.24, 8.95 45.85, 0.47 55.91 M1.72 55.25 C21.89 57.73, 42.7 55.7, 83.46 54.04 M0.35 56.81 C20.53 54.99, 41.71 54.99, 82.62 55.17 M83.96 56.66 C87.43 50.08, 92.05 44.84, 101.22 26.24 M82.1 55.11 C87.1 48.71, 92.91 40.07, 103.95 28.75 M102.38 28.38 C99.26 19.28, 92.79 12.22, 80.72 -0.55 M102.99 27.55 C95.62 16.02, 87.03 4.92, 82.01 0.61 M82.78 0.3 C60.23 -0.79, 40.05 1.05, -0.68 1.05 M82.92 0.76 C57.13 -0.82, 34.11 -1.59, -0.52 0.22 M0 0 C0 0, 0 0, 0 0 M0 0 C0 0, 0 0, 0 0" stroke="#1e1e1e" stroke-width="1" fill="none"></path></g></g><mask></mask><g transform="translate(179.24317609495301 28.159471337798095) rotate(0 30.31999969482422 12.5)"><text x="30.31999969482422" y="0" font-family="Virgil, Segoe UI Emoji" font-size="20px" fill="#1e1e1e" text-anchor="middle" style="white-space: pre;" direction="ltr" dominant-baseline="text-before-edge">Select</text></g><g stroke-linecap="round" transform="translate(438.2560381273497 94.44977353681998) rotate(0 53.5 141)"><path d="M0 0 C0 0, 0 0, 0 0 M0 0 C0 0, 0 0, 0 0 M-0.49 6.42 C-0.23 3.92, 0.8 3.39, 4.53 1.46 M-0.43 6.21 C0.59 4.45, 2.35 3.25, 4.87 0.58 M-2.2 13.59 C0.98 6.26, 7.87 2.78, 13.55 -2.56 M-0.18 10.5 C3.28 7.59, 9.69 1.62, 11.14 1.03 M1.26 21.66 C4.63 14.19, 14.42 0.4, 17.29 1.92 M-1.49 17.85 C5.77 14.1, 8.21 9.91, 17.59 -1.21 M-2.54 27.89 C9.28 14.32, 18.2 7.05, 17.56 2.81 M2.04 25.07 C6.33 15.38, 15.16 7.49, 21.55 -0.39 M-1.43 29.3 C12.68 18.71, 16.89 5.45, 27.39 1.06 M-1.81 30.37 C6.95 23.17, 13.52 17.82, 27.99 -0.89 M-2.34 34.44 C7.38 30.59, 13.8 22.22, 29.01 -3.55 M-1.56 36.21 C11.79 23.28, 26.05 9.27, 31.53 -1.75 M3.02 45.11 C9.04 30.15, 13.01 25.62, 38.3 4 M1.34 41.69 C10.23 31.13, 22.56 14.67, 36.74 0.19 M1.3 45.56 C17.37 27.26, 34.22 13.96, 43.04 2.93 M0.11 47.34 C16.93 28.02, 34.66 11.3, 40.94 -1.33 M-0.98 56.29 C14.65 41.03, 23.72 31.41, 50.68 1.7 M0.69 56.28 C11.31 40.8, 21.22 28.65, 46.44 -1.38 M-1.62 62.98 C24.15 41.01, 45.28 12.07, 50.56 2.97 M2 62.8 C10.55 49.14, 21.22 37.01, 51.27 0.58 M-1.18 70.31 C22.35 40.09, 38.08 19.13, 61.7 -3.37 M-1.95 65.58 C19.82 44.06, 41.48 20.65, 57.45 1.24 M0.07 75.15 C15.46 52.58, 36.02 32.27, 63 -3.23 M1.46 72.43 C25.39 43.6, 48.42 15.03, 65.73 -2.08 M-2.85 79.87 C16.19 64.73, 26.21 47.83, 65.02 2.74 M-1.01 81.07 C13.05 63.53, 30.32 45.62, 67.87 1.12 M-1.97 82.04 C17.48 65.63, 34.4 47.31, 72.25 -3.95 M1.61 84.32 C30.69 49.72, 58.08 17.33, 73.32 -1.08 M-0.72 91.45 C25.08 69.05, 40.95 47.28, 82.81 -2.51 M0.8 90.68 C20.21 68.76, 38.93 45.34, 77.56 1.59 M-4.23 95.85 C19.05 77.95, 35.45 52.34, 82.74 0.02 M-1.37 97.53 C17.04 78.56, 34.46 60.33, 84.77 -1.98 M-0.39 106.24 C23.87 74.54, 45 49.35, 93.73 1.85 M-0.76 103.89 C34.08 64.38, 67.83 26.82, 88.13 0.25 M3.26 106.05 C38.81 69.84, 73 22.55, 95.38 3.39 M0.45 111.16 C31.07 73.96, 61.42 38.54, 96.55 -0.06 M-2.94 112.96 C27.7 83.21, 52.51 52.43, 96.95 0.27 M-0.22 116.39 C23.32 88.26, 45.86 62.61, 98.92 0.91 M1.02 123.85 C37.98 80.24, 74.05 40.68, 107.59 -3.64 M-1.24 120.78 C37.16 79.71, 75.65 34.29, 106.89 -0.38 M2.39 128.57 C23.74 93.58, 47.16 63.44, 110.16 -1.01 M0.99 126.91 C41.75 77.81, 84.92 30.05, 109.09 3.94 M-1.29 131.2 C41.13 94.55, 73.78 49.92, 106.06 4.96 M-0.32 135.48 C44.05 81.8, 86.3 33.99, 108.56 6.59 M0.82 139.28 C40.56 93.88, 83.13 45.58, 110.96 13.01 M1.17 142.13 C35.99 99.87, 71.45 58.67, 110.92 13.2 M2.49 145.57 C45.8 100.45, 87.41 48.44, 108.48 22.61 M-0.95 146.59 C32.36 107.68, 68.74 71.04, 110.57 20.52 M-3.88 153.06 C33.17 115.34, 59.82 89.26, 112.55 27.47 M-1.61 153.27 C23.43 123.92, 45.92 97.51, 109.54 25.46 M-1.63 156.68 C32.58 114.57, 68.98 77.43, 106.37 36.76 M-2.17 160.44 C44.58 111.77, 89.25 60.17, 108.99 33.84 M-2.81 164.61 C21.76 139.2, 52.57 109.87, 108.09 40.84 M1.13 165.03 C40.09 119.23, 81.57 71.69, 111.32 37.57 M2.82 171.48 C33.48 135.64, 68.8 94.97, 106.48 44.35 M0.69 171.36 C36.06 127.35, 73.31 84.33, 108.4 43.25 M1.44 180.14 C48.79 130.4, 84.5 78.24, 110.58 47.84 M-0.37 176.38 C41.77 130.17, 79.91 84.34, 107.7 49.35 M2.86 186.67 C41.94 134.87, 79.32 84.62, 112.72 53.11 M0.07 182.19 C31.8 145.03, 61 110.26, 107.77 54.97 M2.15 186.12 C39.52 144.44, 78.42 103.1, 107.52 60.42 M1.2 189.27 C41.5 143.56, 84.8 95.34, 109.84 64.63 M-1.35 193.73 C24.27 165.48, 55.35 135.64, 109.51 66.25 M-1.18 193.26 C37.13 149.3, 74.96 109.85, 107.85 69.45 M-0.97 202.25 C40.75 151.23, 80.43 106.75, 112.9 72.29 M0.88 201.66 C21.77 174.41, 44.56 150.65, 108.71 75.74 M2.85 203.62 C36.55 162.4, 76.61 116.59, 109.11 83.22 M1.56 207.14 C29.28 173.65, 58 136.46, 110.44 82.16 M2.34 214 C44.75 167.88, 80.9 120.92, 105.88 87.92 M1.52 212 C21.8 186.07, 45.41 162.88, 109.65 88.52 M-0.03 223.54 C40.72 177.13, 75.46 133.39, 106.25 96.74 M-2.01 221.43 C44.3 170.68, 88.66 121.1, 109.1 92.54 M3.5 225.58 C28.46 197.68, 50.31 169.93, 110.14 99.25 M0.32 224.25 C28.44 195.03, 55.5 163.51, 107.77 99.05 M-3.01 229.96 C31.5 197.47, 55.24 169.57, 106.17 105.26 M1.51 233.7 C32.27 190.05, 71.13 147.75, 109.14 104.55 M-1.59 236.7 C27.92 204.62, 63.45 169.63, 113.18 110.52 M0.28 236.62 C30.11 199.22, 60.75 163.46, 107.27 110.42 M3.41 245.08 C40.83 201.8, 80.88 153.94, 111.3 118.01 M1.34 242.03 C43.79 198.32, 84.84 146.67, 110.31 119.66 M2.85 251.32 C33.59 207.95, 70.11 170.84, 108.97 127.17 M1.47 250.32 C20.43 224.78, 47.37 196.06, 108.06 125.69 M1.9 253.87 C36.48 206.52, 80.77 166.23, 112.55 131.68 M1.07 254.02 C24.07 226.84, 48.36 199.74, 110.07 129.56 M-0.97 258.65 C28.26 231.7, 52.89 203.42, 110.03 136.42 M-0.32 262.55 C27.63 231.79, 53.35 202.48, 109.86 136.46 M3.62 268.79 C42.28 222.09, 78.61 172.24, 112.67 139.25 M2.06 267.48 C42.6 216.77, 88.28 167.97, 111.01 140.97 M3.71 277.65 C32.52 234.66, 64.46 202.9, 110.01 152.23 M-1.52 275.02 C29.74 239.26, 59.69 206.17, 110.75 147.81 M-0.42 282.55 C31.7 237.94, 68.43 201.8, 112.9 150.92 M-1.23 279.26 C38.73 234.44, 78.88 189.39, 107.42 156.59 M0.77 287.77 C33.3 247.96, 64.8 217.4, 107.09 160.06 M1.83 284.67 C35.52 245.66, 65.71 208.8, 110.6 159.07 M11.13 280.06 C31.17 258.97, 47.65 236.77, 108.99 166.64 M9.23 285.12 C39.17 248.92, 71.98 215.51, 109.36 167.63 M15.2 282.67 C37.72 259.33, 58.83 233.61, 111.26 173.62 M12.02 285.41 C44.62 252.45, 74.38 215.88, 110.36 172.57 M17.04 283.05 C48.64 243.65, 83.79 207.08, 109.85 181.14 M18.13 284.44 C46.74 248.27, 74.7 214.31, 109.33 178.8 M21.37 284.88 C51.99 248.69, 90.01 210.2, 107.02 183.87 M21.99 282.76 C49.09 255.04, 78.46 222.93, 110.69 186.64 M27.83 281.02 C52.72 247.67, 84.56 215.34, 112.91 192.63 M27.23 283.06 C63.51 246.86, 92.9 210.53, 109.55 189.04 M30.7 286.6 C60.34 257.61, 80.4 237.06, 113.35 195.52 M34.98 282.68 C58.92 260.16, 77.18 233.91, 108.04 196.12 M37.17 279.92 C57.99 256.18, 85.61 236.07, 111.41 203.56 M38.61 282.07 C60.5 261.82, 75.88 240.35, 109.35 204.34 M43.09 283.54 C68.12 254.95, 90.21 234.77, 106.44 208.03 M43.97 285.37 C62.16 263.61, 81.01 239.31, 109.27 209.33 M50.57 281.97 C72.76 260.57, 94.69 239.27, 113.09 217.65 M51.48 285.57 C70.66 258.88, 94.02 233.15, 107.76 214.62 M54.98 282.93 C71.03 270.34, 89.14 250.08, 106.93 224.37 M55.68 285.3 C72.24 260.53, 89.99 242.01, 110.99 220.86 M64.01 282.62 C70.27 269.82, 82.82 259.32, 112.2 228.35 M60.75 285.61 C68.08 271.95, 80.1 262.64, 107.62 226.36 M67.27 287.46 C79.74 267.36, 94.91 249.67, 107.35 235.74 M66.61 283.16 C81.16 268.46, 91.31 255.17, 110.89 232.3 M68 283.09 C86.99 270.77, 101.56 251.7, 108.15 239.89 M69.13 282.78 C80.87 274.31, 92.21 262.34, 110.15 239.51 M77.37 287.35 C90.12 271.72, 100 259.56, 106.66 242.61 M74.97 281.92 C87.2 269.18, 101.67 254.66, 110.39 245.22 M82.19 287.33 C90.1 277.43, 102.59 261.89, 112.87 251.96 M81.73 283.18 C88.51 274.64, 97.14 265.59, 110.34 252.28 M87.2 284.32 C98.6 278.18, 103.38 268, 106.38 259.19 M88.75 282.78 C96.36 274.79, 101.13 266.1, 110.7 257.7 M90.76 286.82 C99.08 281.09, 104.99 267.63, 110.1 268.53 M93.39 283.12 C95.76 280.69, 98.64 275.4, 108.25 265.88 M95.43 283.58 C99.9 275.36, 104.36 270.7, 112.81 270.41 M97.7 285.06 C100.43 279.9, 105.38 273.24, 111.23 269.42 M104.58 284.32 C104.44 282.62, 106.36 277.83, 107.72 277.7 M103.76 284.67 C104.36 282.43, 106.59 279.17, 108.53 277.05" stroke="#f08c00" stroke-width="0.5" fill="none"></path><path d="M-1.7 1.41 C39.68 2.27, 79.95 3.18, 105.04 0.9 M1.35 -1.72 C26.68 -1.27, 53.45 0.69, 107.84 -0.63 M103.97 -1.69 C102.39 64.32, 103.58 133.22, 104.71 283.35 M106.8 0 C104.16 91.9, 105.45 184.37, 107.72 283.5 M103.55 283.44 C75.86 277.48, 37.5 279.25, -0.32 282.31 M107.87 282.43 C69.96 283.74, 30.39 281.83, -1.73 281.01 M0.98 282.89 C-2.58 198.55, -0.74 114.56, 0.78 -2.82 M-0.17 282.23 C-0.65 217.23, -1.29 149.58, -0.15 0.76" stroke="#1e1e1e" stroke-width="1" fill="none"></path></g><g transform="translate(447.01603263418565 222.94977353681998) rotate(0 44.74000549316406 12.5)"><text x="44.74000549316406" y="0" font-family="Virgil, Segoe UI Emoji" font-size="20px" fill="#1e1e1e" text-anchor="middle" style="white-space: pre;" direction="ltr" dominant-baseline="text-before-edge">Evaluate</text></g><g stroke-linecap="round"><g transform="translate(282.5851846208129 15.537810308494954) rotate(0 129.12355090501364 25.841821744584877)" fill-rule="evenodd"><path d="M0 0 C0 0, 0 0, 0 0 M0 0 C0 0, 0 0, 0 0 M2.45 3.63 C3.03 2.47, 4.71 0.9, 4.83 0.71 M2.29 3.49 C3.34 2.29, 4.42 1.45, 4.85 0.29 M4.72 5.7 C6.99 4.53, 7.6 2.2, 9.86 -0.76 M5.61 6.12 C7.26 4.01, 8.24 2.68, 10.76 -0.24 M7.34 10.5 C8.76 6.12, 12.71 4.4, 15.47 -0.46 M7.81 9.95 C9.79 6.43, 11.42 4.08, 16.09 0.76 M8.91 13.2 C14.75 9.76, 18.44 3.7, 20.53 0.95 M9.91 12.03 C13.01 9.33, 16.68 5.54, 21.88 0.23 M13.57 17.12 C16.2 13.73, 20.77 6.96, 25.09 0.52 M13 15.92 C15.31 11.57, 18.27 8.61, 25.98 -0.02 M16.35 19.42 C22.54 13.09, 25.07 7.54, 31.45 0.31 M15.82 17.89 C21.15 10.83, 28.8 3.4, 31.59 -0.51 M19.77 20.7 C23.07 15.91, 29.23 6.23, 35.55 2.25 M17.19 22.62 C24.46 13.91, 33.54 5.9, 36.43 0.02 M19.23 25.06 C30.59 13.85, 38.09 7.08, 43.19 -1.83 M21.01 25.74 C25.15 19.89, 29.83 13.64, 42.56 -0.16 M1.65 52.88 C17.82 32.87, 36.15 16.06, 47.21 1.54 M1.39 52.12 C14.76 38.09, 25.44 25.12, 47.98 -0.46 M5.11 55.17 C18.95 37.62, 33.92 20.75, 51.2 -1.07 M6.51 53.94 C24.42 33.14, 41.85 12.23, 52.59 -0.73 M13.68 51.79 C21.24 39.53, 34.46 28.42, 58.78 1.52 M11.68 52.73 C23.65 39.01, 35.89 24.55, 57.75 0 M16.32 54.55 C32.51 35.91, 43.87 21.3, 65.32 0.58 M16.54 54.16 C28.45 39.66, 40.69 24, 64.23 -1.2 M21.8 51.36 C33.25 39.71, 44.06 25.76, 67.21 -0.97 M22.2 53.94 C36.05 37.13, 48.84 23.65, 69.73 0.02 M27.87 53.74 C46.59 34.53, 63.37 14.79, 73.62 -1.15 M28.67 53.16 C41.43 36.56, 58.16 19.36, 74.89 0.6 M33.09 52.31 C42.44 43.6, 52.51 30.85, 79.72 0.68 M32.89 53.43 C50.69 33.75, 66.68 14.83, 78.78 -0.69 M37.99 52.32 C47.41 41.05, 58.87 28.57, 86.44 -0.78 M38.25 54.19 C53.55 35.15, 70.77 15.81, 84.9 -0.03 M44.88 53.12 C60.59 32.98, 76.97 16.28, 89.75 -1.17 M44.55 51.96 C55.62 39.94, 65.88 27.52, 90.65 0.74 M47.11 51.67 C63.94 35.58, 79.58 21.64, 96.36 0.93 M49.53 53.59 C59.56 41.96, 70.82 28.04, 95.41 -0.67 M52.76 54.03 C63.36 38.79, 77.79 29.41, 101.02 -0.42 M54.86 53.48 C70.95 32.66, 89.75 13.39, 99.96 0.28 M57.95 54.89 C73.57 37.73, 85.97 22.69, 106.22 0.94 M59.63 52.85 C78.67 31.88, 96.92 11.63, 106.5 0.21 M66.56 53.02 C77.88 38.09, 91.52 20.9, 111.48 -1.22 M66.36 53 C81.64 35.48, 95.63 17.56, 112.18 -0.96 M71.47 54.83 C85.89 37.37, 97.19 20.81, 116.43 -1.26 M70.52 52.57 C85.81 34.98, 101.9 17.16, 116.42 0.03 M74.35 53.82 C86.34 42.02, 101.03 25.09, 121.34 -1.95 M76.5 52.71 C93.54 32.72, 110.52 12.33, 121.69 -0.76 M82.88 54.1 C94.44 38.01, 110.41 18.74, 127.65 1.32 M81.09 52.47 C97.43 35.14, 111.92 18.08, 126.29 1.07 M86.48 53.9 C99.79 35.49, 116.47 20.32, 133.06 0.74 M87.56 51.89 C100.76 34.95, 117.27 17.94, 131.72 0.23 M89.62 53.05 C109.79 30.54, 128.54 11.98, 136.79 -0.36 M91.07 53.41 C104.04 36.71, 119.17 22.47, 138.14 1.01 M95.52 52.49 C116.82 29.84, 133.17 11.9, 143.34 -0.05 M96.73 52.96 C108.17 38.05, 121.82 25.46, 142.4 0.51 M103.41 53.79 C111.2 40.23, 123.79 29.31, 147.69 1.7 M103.07 53.37 C116.37 37.66, 129.45 21.78, 147.52 -0.11 M108.3 54.59 C120.49 36.95, 133.77 23.61, 155.14 -1.46 M108.06 53.46 C117.03 41.9, 128.54 30.59, 154.71 -0.34 M114.21 52.17 C129.12 34.8, 140.36 19.05, 158.44 1.22 M112.58 53.45 C127.29 36.85, 142.7 19.02, 158.85 0.88 M117.92 50.91 C128.88 42.13, 138.29 30.93, 165.66 1.11 M118.47 52.06 C133.14 36.13, 147.43 18.82, 164.51 0.42 M122.22 53.81 C135.89 36.44, 150.41 20.21, 169.37 1.68 M123.98 53.88 C134.18 41.65, 145.35 28.27, 169.44 0.25 M127.69 53.95 C145.59 33.08, 167.14 9.62, 174.38 -1.98 M129.78 52.54 C146.65 31.82, 163.72 12.3, 174.56 0.64 M133.9 54.05 C147.91 36.79, 160.53 19.51, 179.05 0.32 M134.49 52.01 C144.26 40.24, 156.01 27.97, 179.46 -0.56 M139.2 53.92 C149.28 39.22, 163.03 26.86, 186.98 1.38 M140.66 51.82 C158.25 31.08, 176.29 10.22, 186.45 -0.7 M145.95 54 C160.14 36.93, 170.74 23.01, 192.31 0.11 M144.24 52.33 C155.92 38.62, 169.29 25.54, 189.98 0.98 M152.28 50.81 C166.2 35.14, 182.25 17.48, 195.43 1.04 M150.65 51.94 C159.99 41.96, 169.36 30.41, 196.69 0.51 M157.34 52.52 C170.08 37.43, 183.6 19.68, 200.25 1.79 M156.22 52.43 C169.18 37.47, 184.53 21.13, 200.91 0.53 M161.03 54.36 C174.36 40.62, 182.9 25.8, 205.94 0.6 M160.2 52.08 C171.1 41.91, 179.91 30.95, 206.63 -0.52 M165.27 54.21 C175.8 41.95, 183.88 30.07, 212.2 -0.17 M166.29 53.04 C180.41 36.5, 195.49 20.57, 211.05 0.89 M169.75 52.03 C187.93 33.74, 202.83 18.03, 218.97 1.43 M172.6 52.52 C185.6 37.07, 197.27 22.39, 218.53 0.59 M177.19 53.42 C194.49 34.85, 211.07 11.12, 223.72 -1.53 M177.18 52.03 C192.76 35.2, 207.79 17.5, 222.1 -0.02 M181.05 53.07 C200.48 32.68, 215.78 15.61, 229.21 -1.38 M182.02 52.67 C192.11 41.39, 203.38 27.74, 227.49 -0.71 M186.82 54.27 C203.37 33.11, 221.98 13.47, 230.7 1.95 M186.53 52.36 C201.94 35.92, 215.02 19.79, 230.62 3.1 M191.75 52.44 C201.06 42.65, 209.99 31.47, 233.03 6.32 M193.53 53.08 C208.41 35.38, 223.18 17.41, 234.9 5.49 M198.11 54.61 C209.12 40.74, 218.63 27.5, 236.55 6.75 M198.81 52.14 C212.63 35.59, 227.02 19.76, 237.4 7.16 M204.93 50.89 C214.19 41.84, 224.78 28.36, 242.24 9.85 M203.05 51.41 C215.95 38.26, 229.4 24.6, 240.24 9.62 M209.27 54.04 C218.88 39.01, 231.46 27.09, 242.23 11.34 M209.39 52.6 C217.62 43.86, 225.7 34.04, 243.36 12.45 M213.93 50.89 C223.68 44.86, 231.54 33.4, 246.29 13.56 M213.38 52.46 C222.66 41.46, 231.25 31.43, 247.24 14.55 M220.75 53.92 C231.79 39.28, 240.58 25.88, 248.33 18.95 M218.51 52.09 C225.18 44.01, 232.97 35.56, 249.67 17.38 M226.33 52.68 C231.95 45.93, 235.9 38.73, 252.89 19.56 M224.2 52.13 C230.76 45.62, 237.24 38.92, 252.51 20.24 M231.27 53.36 C235.43 43.79, 244.39 37.69, 253.67 22.55 M229.29 52.09 C239.19 41.71, 249.5 30.41, 254.4 23.48 M234.64 55.74 C241.8 48.06, 246.87 39.02, 259.99 27.7 M234.75 52.99 C242.28 43.19, 251.74 33.6, 257.55 25.8" stroke="#f08c00" stroke-width="0.5" fill="none"></path><path d="M0.71 1.66 C6.23 9.05, 13.29 16.15, 22.41 27.4 M0.56 0.86 C5.08 5.29, 8.61 10.34, 21.27 25.06 M21.59 26.16 C14.62 33.15, 11.36 37.22, -0.46 51.85 M22.43 27.01 C15.52 34.92, 8.71 41.58, -0.98 51.24 M-1.39 51.83 C77.73 53.09, 156.83 51.68, 232.15 51.85 M0.6 51.83 C73.75 50.13, 148.97 50.19, 231.29 51.38 M231.15 52.02 C241.54 40.93, 248.76 34.99, 258.7 25.83 M231.57 51.18 C240.27 43.44, 249.74 35.29, 258.87 26.03 M259.64 25.54 C250.03 18.14, 242.07 13.39, 228.9 0.09 M258.38 26.32 C250.24 19.16, 241.81 11.91, 228.6 -0.14 M227.34 -0.28 C159.26 -0.18, 90.82 -1.16, -0.03 -0.36 M228.15 0.57 C165.31 -0.03, 102.71 -0.07, 0.35 -0.62 M0 0 C0 0, 0 0, 0 0 M0 0 C0 0, 0 0, 0 0" stroke="#1e1e1e" stroke-width="1" fill="none"></path></g></g><mask></mask><g transform="translate(306.9592133067754 29.975501494307082) rotate(0 108.36000061035156 12.5)"><text x="108.36000061035156" y="0" font-family="Virgil, Segoe UI Emoji" font-size="20px" fill="#1e1e1e" text-anchor="middle" style="white-space: pre;" direction="ltr" dominant-baseline="text-before-edge">Adapt and align model</text></g><g stroke-linecap="round" transform="translate(285.5 95.63374338031099) rotate(0 69.5 36)"><path d="M0 0 C0 0, 0 0, 0 0 M0 0 C0 0, 0 0, 0 0 M0.56 6.6 C1.76 3.26, 3.07 1.19, 6.07 1.47 M0.19 6.18 C1.99 4.64, 3.65 1.68, 4.86 0.26 M0.33 13.95 C2.71 9.11, 7.75 6.38, 11.87 -0.78 M-0.09 12.07 C4.36 10.2, 5.61 5.18, 10.97 -1.36 M-2.46 17.15 C6.05 12.09, 9.24 1.99, 13.09 -1.39 M1.21 19.92 C6.06 12.99, 10.58 5.31, 14.31 -1.66 M3.43 25.91 C8.72 15.38, 9.44 10.18, 20.12 1.66 M0.07 22.33 C6.33 15.22, 14.77 8.22, 22.56 1.91 M3.88 28.8 C6.15 18.75, 11.87 15.5, 23.63 4.25 M-1.44 29.4 C8.5 19.75, 17.3 10.86, 24.41 -1.62 M1.94 36.85 C4.98 27.28, 14.58 18.12, 28.85 3.62 M-0.13 37.62 C10.31 27.76, 19.23 14.65, 31.68 1.26 M-3.04 41.31 C7.11 37.12, 11.41 23.24, 39.71 -0.74 M-0.2 42.61 C14.37 27.88, 23.61 14.64, 35.71 0.69 M3.61 50.93 C14.71 30.64, 28.66 22, 45.02 -2.13 M-1.71 47.9 C11.37 35.41, 22.3 20.98, 42.02 -0.06 M-2.54 57.65 C19.14 34.52, 39.77 13.2, 50.26 -1.64 M1.51 54.14 C10.2 41.28, 20.98 30.76, 46.68 -0.04 M2.72 61.64 C6.93 50.59, 20.99 36.26, 55.8 -3.13 M-1.86 59.64 C12.8 46.88, 25.32 32.24, 54.94 -0.2 M-2.13 69.03 C16.94 44.37, 37.31 28.28, 56.69 3.75 M1.41 65.58 C18.75 49.49, 34.12 26.81, 57.56 1.17 M-0.67 72.41 C23.81 45.25, 51.06 10.29, 60.85 0.58 M1.33 72.04 C25.51 44.18, 50.5 14.95, 65.53 0.9 M3.09 69.1 C31.09 48.82, 53.15 17.74, 64.9 -2.84 M6.82 71.71 C26.41 47.31, 44.45 26.02, 70.33 -0.5 M14.54 72.41 C35.19 44.05, 61.74 16.96, 72.34 -3.52 M12.01 72.73 C34.33 48.55, 55.3 23.93, 74.66 1.59 M13.31 73.6 C42.54 43.36, 64.94 17.26, 77.33 3.78 M17.62 72.12 C35.06 53.21, 49.71 33.7, 80.72 0.43 M22.93 76.15 C42.98 41.54, 73.5 17.88, 82.93 -0.5 M21.08 73.5 C45.14 50.31, 62.52 23.51, 84.93 -1.57 M30.59 72.77 C43.92 59.27, 54.46 43.04, 92.87 -3.67 M28.83 71.67 C50.76 44.97, 73.11 22, 90.21 -0.34 M29.4 74.36 C56.09 45.34, 76.03 28.78, 97.78 -3.87 M31.01 73.05 C57.35 42.32, 84.07 16.09, 96.69 -1.72 M34.11 71.07 C50.4 58.2, 67.87 41.46, 98.94 -0.98 M37.79 72.21 C59.46 43.33, 85.75 18.82, 102.03 -0.86 M42.72 69.99 C66.92 42.57, 92.9 15.78, 102.56 0.32 M41.39 73.09 C58.47 55.26, 74.01 38.52, 108.06 -1.8 M47.52 76.45 C56.9 60.86, 70.28 45.56, 111.47 -0.44 M47.63 73.8 C70.2 48.24, 89.48 24.71, 113.15 -0.92 M54.11 75.25 C71.36 52.93, 85.82 39.85, 118.77 -1.73 M51.49 71.33 C69.58 55.49, 88.17 32.45, 118.23 2.28 M58.99 76.39 C78.84 44.06, 101.95 25.18, 118.85 -2.83 M59.19 70.79 C74.97 53.81, 91.6 32.63, 122.32 1.94 M65.33 76.11 C82.01 55.02, 102.08 29.34, 126.4 1.46 M64.4 73.97 C80.64 52.12, 96.98 34.98, 126.12 -1.4 M69.19 69.84 C91.32 48.6, 114.57 19.27, 130.01 2.55 M71.07 71.76 C84.23 54.37, 96.97 39.67, 134.01 0.43 M75.3 69.26 C92.53 53.56, 112.73 24.99, 139.94 3.08 M73.6 72.72 C87.3 57.03, 99.54 44.11, 138.42 -0.25 M83.28 75.26 C95.63 54.58, 119.53 33.89, 140.39 0.18 M79.64 71.53 C94.9 54.95, 110.9 36.47, 140.49 3.76 M87.42 70.94 C100.32 51.93, 120.11 30.09, 140.51 6.66 M86.32 73.54 C103.21 54.82, 118.31 32.39, 141.69 7.34 M86.92 74.61 C108.62 47.48, 127.54 30.45, 137.35 15.31 M91 71.2 C103.07 57.94, 115.5 46.42, 143.17 12.7 M93.62 68.84 C108.57 54.48, 124.58 39.47, 138.24 17.38 M95.53 72.63 C103.25 63.52, 114.41 52.4, 140.74 19.46 M102.27 69.36 C111.62 67.29, 119.49 56.21, 143.82 27.35 M101 74.08 C114.97 53.04, 133.95 34.43, 140.31 24.88 M106.3 70.18 C117.68 64.98, 128.24 51.36, 143.03 32.17 M107.97 72.45 C117.26 58.65, 126.79 49.42, 141.43 32.64 M116.01 72.47 C119.53 60.69, 126.73 58.17, 138.72 37.01 M111.25 73.77 C120.57 62.09, 129.22 50.25, 143.39 38.02 M118.38 69.66 C124.05 60.4, 129.72 59.37, 139.4 42.25 M116.12 73.71 C125.96 62.26, 130.99 54.8, 141.47 44.47 M119.29 68.39 C126.85 68.32, 127.11 59.33, 144.82 49.24 M121.11 74.09 C129.52 65.39, 136.36 56.3, 141 52.82 M127.28 73.51 C131.67 70.11, 138.53 60.12, 141.01 57.57 M126.22 71.37 C131.22 70.33, 132.91 65.96, 140.94 58.04 M132.41 70.33 C135.9 69.03, 136.45 68.53, 142.49 62.62 M132.35 72.76 C135.48 69.22, 136.93 69.16, 141.33 62.45 M137.48 73.27 C138.22 72.75, 140.68 70.67, 141.72 68.48 M138.31 72.07 C139.2 71.61, 141.12 69.79, 141.64 69.25" stroke="#f08c00" stroke-width="0.5" fill="none"></path><path d="M3.46 -3.39 C47.39 -0.15, 90.1 4.17, 138.12 -2.02 M1.8 -1.66 C38.45 -1.68, 79.59 1.79, 140.67 -0.11 M139.41 3.95 C137.74 14.36, 141.68 31.59, 140.4 70.91 M140.14 -0.47 C140.2 16.86, 138.81 34.53, 139.92 70.03 M142.56 68.24 C110.95 71.49, 80.1 70.81, -2.91 69.41 M137.07 73.92 C96.15 71.17, 52.34 71.88, 1.84 71.25 M-2.65 71.74 C0.44 54.33, -0.74 35.86, 1.15 1.72 M0.86 70.75 C-0.79 55.7, -0.14 41.59, -1.82 1.07" stroke="#1e1e1e" stroke-width="1" fill="none"></path></g><g transform="translate(305.87999725341797 106.63374338031099) rotate(0 49.12000274658203 25)"><text x="49.12000274658203" y="0" font-family="Virgil, Segoe UI Emoji" font-size="20px" fill="#1e1e1e" text-anchor="middle" style="white-space: pre;" direction="ltr" dominant-baseline="text-before-edge">Prompt </text><text x="49.12000274658203" y="25" font-family="Virgil, Segoe UI Emoji" font-size="20px" fill="#1e1e1e" text-anchor="middle" style="white-space: pre;" direction="ltr" dominant-baseline="text-before-edge">engineering</text></g><g stroke-linecap="round" transform="translate(285.5 183.633743380311) rotate(0 69.5 31.5)"><path d="M0 0 C0 0, 0 0, 0 0 M0 0 C0 0, 0 0, 0 0 M1.13 7.15 C0.76 5.77, 3.04 2.65, 4.76 1.27 M-0.04 5.78 C1.95 4.85, 3.25 3.21, 5.34 0.96 M3.24 12.4 C5.58 5.74, 7.23 5.62, 11.01 -1.1 M-0.4 11.4 C3.56 8.24, 7.84 3.71, 10.2 -0.77 M3.74 18.79 C1.32 14.46, 11.95 4.86, 12.96 1.91 M0.47 17.77 C5 10.95, 12.74 7.21, 17.19 -1.26 M-3.41 21.33 C2.25 22.25, 10.35 15.83, 22.15 0.12 M1.54 22.86 C5.53 19.16, 11.39 10.22, 19.68 -0.68 M1.36 29.58 C6.4 15.56, 22.59 9.15, 22.45 1.26 M1.94 28.54 C10.79 17.33, 21.36 5.33, 25.62 0.31 M-2.99 35.98 C9.1 19.2, 23.25 6.01, 33.46 0.58 M1.05 36.68 C12.74 24.57, 21.65 10.5, 30.28 1.8 M3.76 39.31 C15.01 29.45, 20.09 14.17, 36.37 -0.38 M-1.1 40.78 C14.39 27.09, 25.56 13.73, 37.5 0.03 M-3.96 51.84 C16.28 30.82, 34.18 10.47, 46.23 -2.82 M0.66 49.68 C16.79 29.69, 33.59 12.78, 43.35 -1.17 M-1.84 51.15 C18.4 34.38, 38.95 13.39, 45.68 0.38 M-0.19 55.84 C16.04 32.88, 33.52 14.07, 49.43 1.15 M1.99 63.08 C9.03 44.91, 29.02 28.42, 49.18 -0.42 M-0.7 62.84 C21.62 39.82, 37.79 18.17, 54.59 0.53 M0.58 63.25 C19.25 47.78, 35.38 29.08, 60.83 3.46 M0.69 63.32 C15.34 51.14, 27.59 36.33, 56.22 0.64 M10.54 67.3 C18.88 49.19, 33.33 32.26, 66.53 -2.05 M6.01 65.83 C25.39 44.53, 43.95 22.94, 61.96 -1.25 M13.11 62.72 C26.33 45.06, 43.49 20.87, 71.79 -2.72 M10.37 67.03 C24.07 47.78, 38.56 34.69, 66.97 1.24 M17.7 63.46 C36.55 49.08, 53.31 24.17, 77.97 2.95 M16.93 62.92 C38.93 39.64, 60.95 13.56, 73.67 -0.91 M24.28 68.79 C34.5 53, 44.9 34.99, 80.02 -1.25 M22.87 64.12 C41.46 46.42, 59.02 26.05, 81 -0.58 M31.66 62.23 C43.38 47.05, 55.09 35.12, 82.73 -2.26 M27.12 63.35 C51.27 40.93, 69.75 17.33, 84.17 0.92 M35.28 62.62 C55.12 41.93, 66.33 19.08, 90.49 -2.72 M31.65 66.96 C57.19 40.87, 77.51 15.72, 91.9 1.42 M35.39 67.04 C57.36 42.49, 77.52 20.69, 99.51 1.99 M41.16 66.37 C57.27 40.89, 80.17 16.9, 94.17 1.33 M42.84 61.88 C56.84 52.26, 65.68 40.49, 103.64 2.79 M44.41 65.65 C61.95 47.2, 77.2 26.62, 99.49 -0.8 M47.34 61.8 C70.64 42.67, 94.85 12.91, 102.53 -0.13 M49.89 64.95 C71.22 41.78, 91.11 20.05, 106.63 -0.82 M55.17 64.74 C65.18 51.15, 77.24 34.08, 107.45 -2.3 M55.12 64.05 C78.52 39.17, 100.91 15.68, 109.87 -1.48 M57.47 66.92 C73.78 42.5, 89.15 27.47, 116.84 -3.21 M62.38 65.82 C72.75 50.12, 84.33 38.25, 118.1 -0.17 M67.97 65.85 C88.1 40.63, 106.21 17.26, 125.37 0.91 M63.97 63.76 C82.48 45, 96.02 28.57, 123.36 -1.16 M67.25 67.31 C93.87 41, 105.23 23.18, 124.95 0.4 M69.97 65.46 C85.65 43.39, 105.62 25.91, 125.35 0.13 M72.47 64.38 C96.57 36.18, 123.89 10.51, 136.36 3.84 M77.44 64.13 C92.78 47.82, 104.07 29.23, 134.54 1.4 M81.63 68.39 C100.4 45.09, 118.3 22.97, 134.94 1.13 M82.23 66.1 C98.37 48.55, 112.99 29.39, 137.42 0.94 M87.35 63.99 C101.44 43.15, 123.12 25.66, 144.92 4.68 M88.21 66.28 C106.85 44.1, 122.79 19.99, 142.28 3.43 M93.08 64.08 C107.35 47.27, 123.47 25.63, 144.44 8.69 M91.01 63.72 C106.66 49.75, 121.25 30.92, 139.72 7.66 M94.85 64.86 C103.67 55.73, 117.2 48.12, 138.45 11.37 M99.26 65.06 C114.36 45.51, 133.59 24.23, 143.1 13.23 M105.56 60.78 C113.95 56.34, 121.63 43.44, 139.14 19.47 M102.38 64.06 C116.26 49.66, 130.56 36.59, 140.43 21.63 M104.67 63.63 C119.1 58.62, 126.22 44.71, 138.93 27.02 M107.78 65.08 C120.23 52.3, 132.85 36.43, 142.86 27.45 M109.86 62.17 C126.99 53.37, 135.92 42.87, 143.49 30.61 M112.01 63.34 C124.95 54.46, 134 43.61, 141.24 34.17 M122.02 61.48 C121.2 57.41, 126.3 47.31, 139.33 37.06 M117.24 64.68 C129.14 56.34, 133.79 45.43, 141.14 38.33 M126.28 66.16 C128.7 54.92, 136.43 50.59, 139.56 42.51 M123.81 65.3 C128.95 60.82, 133.83 52.5, 140.2 45.14 M131.38 64.13 C129.41 61.19, 136.9 53.14, 143.22 48.43 M129.34 64.05 C134.09 61.95, 134.39 57.15, 139.32 52.46 M135.55 63.04 C139.07 61.74, 137.53 61.38, 139.32 58.18 M134.09 65.38 C137.39 62.13, 139.19 59.05, 141.92 56" stroke="#f08c00" stroke-width="0.5" fill="none"></path><path d="M3.41 2.68 C41.7 -2.93, 84.3 1.28, 140.15 3.82 M-1.37 -1.42 C45.48 2.54, 88.35 -0.48, 138.81 -1.93 M135.56 1.63 C136.5 27.49, 139.16 45.59, 141.19 61.73 M137.74 0.65 C140.65 18.52, 138.52 41.37, 139.84 63.53 M139.14 63.83 C91.52 61.09, 47.95 62.71, -2.93 65.4 M138.73 62.2 C93.64 67.14, 44.36 67.23, 1.99 63.4 M3.94 64.53 C2.49 47.22, 0.53 32.85, 2.54 0.62 M1.83 64.61 C2.44 50.23, 0.71 37.61, 1.26 1.53" stroke="#1e1e1e" stroke-width="1" fill="none"></path></g><g transform="translate(304.05999755859375 202.633743380311) rotate(0 50.94000244140625 12.5)"><text x="50.94000244140625" y="0" font-family="Virgil, Segoe UI Emoji" font-size="20px" fill="#1e1e1e" text-anchor="middle" style="white-space: pre;" direction="ltr" dominant-baseline="text-before-edge">Fine tuning</text></g><g stroke-linecap="round" transform="translate(283.5 266.133743380311) rotate(0 69.5 54)"><path d="M0 0 C0 0, 0 0, 0 0 M0 0 C0 0, 0 0, 0 0 M0.59 7.06 C0.73 5.8, 4.81 1.51, 4.14 -1.01 M-0.01 6.03 C1.39 5.05, 3.5 2.14, 4.8 0.87 M-0.23 15.11 C4.32 7.64, 8.44 9.53, 12.22 1.66 M-0.4 10.45 C2.42 10.08, 3.67 5.22, 10.06 1.47 M1.34 21.32 C7.09 10.82, 12.34 9.16, 14.48 -1.52 M0.03 19.78 C7.08 9.97, 10.9 5.61, 14.59 -1.44 M-0.18 20.25 C8.61 13.08, 13.67 2.99, 24.44 2.54 M-0.33 25.46 C4.11 19.37, 8.49 14.78, 19.91 1.06 M1.71 26.84 C4.03 23.71, 15.61 16.51, 27.01 -2.05 M-1.48 31.99 C4.45 22.83, 13.09 18.53, 24.27 2.26 M2.76 33.28 C10.28 27.37, 17.89 17.33, 31.6 -1.31 M-1.68 38.66 C12.53 24.6, 22.29 8.35, 30.83 -1.85 M-3.05 41.03 C8.07 28.68, 16.98 25.24, 38.18 4.02 M-1.06 42.83 C9.48 30.95, 20.12 18.11, 36.77 -0.65 M1.52 52.12 C12.19 28.75, 28.02 14.79, 45.57 -2.53 M-1.07 47.76 C15.51 31.67, 30.18 12.93, 41.02 -1.41 M0.53 52.82 C18.8 37.81, 36.29 14.72, 49.18 -2.14 M-1.4 54.79 C18.15 35.61, 36.81 10.87, 45.55 2.19 M-1.35 64.7 C21.82 41.68, 37.46 15.01, 49.29 2.28 M1.3 62.88 C13.4 48.44, 25.91 33.55, 55.06 1.6 M-3.26 64.36 C17.45 46.28, 25.96 31.08, 56.75 -2.88 M0.45 68.85 C19.07 47.47, 36.51 26.65, 58.31 0.88 M0.87 70.67 C20.95 49.88, 46.69 18.76, 61.24 -2.97 M0.14 71.11 C15.45 54.67, 30.53 34.02, 63.79 0.18 M-0.64 80.06 C23.75 47.96, 52.42 22.23, 69.07 -0.03 M-0.38 77.48 C15.82 62, 33.63 38.66, 69.02 -0.72 M2.39 82.2 C23.52 54.65, 52.18 25.28, 71.37 2.15 M0.41 85.32 C16.75 65.28, 37.23 46.86, 76.28 1.05 M-0.3 95.09 C31.58 56.16, 63.68 21.66, 81.88 1.08 M-0.46 93.16 C29.8 57.17, 58.22 24.48, 77.87 -1.01 M0.26 100.71 C28.95 65.56, 60.18 32.41, 81.15 2.54 M0.66 96.86 C34.58 60.15, 69.64 20.43, 83.87 0.69 M1.21 100.36 C19.79 85.5, 38.92 58.16, 86.37 -0.39 M-1.46 105.38 C26.48 75.49, 47.35 49.58, 91.34 -0.63 M-2.35 113.1 C40.62 68.77, 75 29.46, 95.53 3.63 M0.31 107.82 C31.75 71.56, 63.38 33.7, 96.13 1.33 M8.77 108.5 C36.79 74.73, 65.57 36.63, 101.26 -0.77 M7.11 110.58 C27.86 86.86, 46.02 63.54, 102.11 1.52 M7.82 111.23 C46.92 72.99, 81.98 34.05, 106.98 -0.69 M11.59 110.51 C35.93 80.08, 59.58 49.39, 104.91 -1.05 M15.51 104.93 C37.18 80.49, 59.6 55.5, 108.75 0.09 M18.77 107.24 C36.16 85.46, 58.62 60.27, 113.16 0.3 M21.13 112.57 C45.08 75.37, 76.43 48.47, 118.8 -3.23 M22.64 108.08 C52.15 72.28, 84.73 32.16, 115.62 0.05 M30.81 107.35 C57.27 72.82, 78.75 45.94, 118.57 -1.14 M26 107.39 C61.81 68.3, 97.12 24.03, 121.68 0.31 M33.29 111.79 C59.34 82.38, 80.52 51.42, 123.76 -2.59 M33.64 110.16 C66.36 68.7, 101.24 26.63, 125.91 -1.42 M40.14 108.67 C76.47 64.47, 108.83 27.95, 135.92 -3.29 M36.14 107.49 C58.3 88.04, 78.95 63.75, 131.14 -0.08 M43.52 108.06 C78.97 69.81, 112.46 25.17, 140.18 1.39 M43.07 108.09 C68.08 81.01, 94.91 51.59, 137.72 0.53 M48.44 106.3 C75.67 76.99, 104.31 40.48, 143.54 1.57 M46.77 109.77 C66.05 86.14, 87.92 65.19, 141.28 1.48 M54.51 105.03 C89.48 73.2, 117.21 29.68, 143.94 4.18 M55.62 106.98 C90.25 70.69, 122.54 29.45, 141.29 8.44 M56.18 110.16 C87.64 73.29, 117.69 34.67, 139.09 15.14 M57.73 110.23 C79.86 84.71, 104.02 56.51, 141.48 14.4 M64.49 110.88 C91.86 79.29, 113.27 52.94, 138.98 19.92 M66.25 109.69 C82.17 84.87, 104.83 60.85, 141.7 20.76 M67.33 110.66 C83.46 89.27, 101.07 73.69, 138.8 26.28 M71.09 106.59 C88.82 88.89, 104.44 66.72, 142.49 24.49 M75.17 106.26 C101.04 76.79, 124.6 52.26, 144.01 31.5 M76.18 108.82 C92.27 90.81, 106.06 74.03, 141.52 33.94 M81.34 110.72 C102.23 87.03, 118.81 60.33, 137.89 38.15 M79.19 110.33 C94.49 91.27, 109.98 77.71, 140.76 37.08 M83.75 108.35 C99.14 94.82, 113.35 75.9, 143.33 41.08 M84.85 110.73 C107.84 88.24, 126.58 65.7, 139.67 44.97 M93.17 109.75 C102.73 99.58, 117.43 81.53, 142.41 51.17 M92.61 106.69 C101.55 95.18, 113.96 82.27, 142.34 52.04 M98.95 106.8 C107.15 91.13, 125.99 72.53, 141.41 54.58 M97.97 107.52 C112.12 90.05, 130.52 68.34, 141.99 55.83 M101.29 111.67 C108.03 101.79, 119.84 88.91, 139.88 60 M100.18 106.63 C116.83 92.06, 127.85 76.73, 141.51 64.73 M108.98 111.79 C119.72 95.78, 133.78 78.08, 138.2 66.41 M107.51 109.05 C117.89 96.9, 128.32 82.31, 140.56 70.24 M115.65 108.88 C122.45 97.6, 138.03 82.97, 143.35 74.06 M112.99 106.89 C122.63 98.11, 129.44 85.26, 140.81 74.49 M113.54 105.96 C127.13 100.11, 130.9 91.6, 144.51 84.23 M115.66 106.92 C124.43 100.28, 133.59 94.03, 141.05 82.44 M125.07 107.06 C131.43 104.49, 137.55 91.08, 138.05 90.5 M123.7 110.72 C128.78 105.59, 131.16 98.73, 141.7 85.68 M131.86 108.49 C132.37 105.73, 141.09 97.4, 144.61 93.96 M126.89 110.49 C131.43 104.58, 138.41 97.62, 141.36 94.16 M132.26 107.15 C138.13 104.91, 140.39 103.03, 143.6 101.69 M133.17 108.91 C134.02 105.73, 136 104.93, 140.5 100.01" stroke="#f08c00" stroke-width="0.5" fill="none"></path><path d="M3.63 3.14 C33.39 -4.48, 72.9 -4.42, 135.33 -2.75 M1.39 0.45 C31.54 -0.29, 64.31 -2.04, 140.27 -1.22 M138.86 -3.15 C139.7 32.96, 141.28 57.95, 140.35 107.1 M140.03 -1.9 C137.71 24.16, 138.28 42.71, 140.93 106.06 M135.55 106.74 C92.31 113.01, 47.62 106.44, -2.73 107.11 M137.9 108.78 C107.81 107.81, 75.08 106.49, 1.31 107.81 M-2.75 104.79 C3.68 66.97, 2.61 22.64, 3.62 -3.21 M-0.88 107.75 C-0.35 66.12, -1.9 23.29, -1.24 -1.74" stroke="#1e1e1e" stroke-width="1" fill="none"></path></g><g transform="translate(303.0699996948242 282.633743380311) rotate(0 49.93000030517578 37.5)"><text x="49.93000030517578" y="0" font-family="Virgil, Segoe UI Emoji" font-size="20px" fill="#1e1e1e" text-anchor="middle" style="white-space: pre;" direction="ltr" dominant-baseline="text-before-edge">Align with </text><text x="49.93000030517578" y="25" font-family="Virgil, Segoe UI Emoji" font-size="20px" fill="#1e1e1e" text-anchor="middle" style="white-space: pre;" direction="ltr" dominant-baseline="text-before-edge">human </text><text x="49.93000030517578" y="50" font-family="Virgil, Segoe UI Emoji" font-size="20px" fill="#1e1e1e" text-anchor="middle" style="white-space: pre;" direction="ltr" dominant-baseline="text-before-edge">feedback</text></g><g stroke-linecap="round"><g transform="translate(568.8640961064798 19.791921635726567) rotate(0 132.51305333515086 25.71183402242866)" fill-rule="evenodd"><path d="M0 0 C0 0, 0 0, 0 0 M0 0 C0 0, 0 0, 0 0 M2.62 3.31 C2.74 3.06, 3.39 2.29, 5.37 0.63 M2.52 3.38 C3.31 2.17, 4.16 1.3, 5.05 0.3 M5.1 5.58 C6.32 3.43, 9.43 2.11, 10.14 0.21 M5.38 6.37 C6.26 4.39, 7.65 3.34, 10.77 0.15 M7.2 8.35 C10.53 5.71, 12.38 4.32, 15.94 1.04 M7.99 9.27 C9.27 7.01, 11.29 5.28, 15.37 0.26 M11.09 11.89 C13.5 7.49, 19.11 5.56, 21.23 -1.44 M10.77 13.13 C12.54 8.97, 14.93 7.02, 20.45 0.27 M12.75 16.37 C15.43 9.68, 19.96 5.53, 28.2 -0.05 M13.52 15.25 C17.26 10.56, 19.95 6.57, 25.26 1.23 M16.27 19.16 C22.76 14.14, 27.09 7.02, 29.96 -2.05 M15.36 18.53 C18.91 15.27, 22.52 10.5, 31.72 0.2 M20.06 20.27 C21.61 16.86, 26.32 12.5, 37.87 2.01 M18.36 21 C23.6 15.43, 28.29 10.87, 37.54 0.61 M20.88 25.99 C28.68 13.64, 39.5 3.89, 41.57 -0.64 M20.68 24.72 C27.59 18.77, 32.21 10.61, 42.72 -0.88 M3.43 53.86 C16.47 33.12, 34.84 15.36, 46.23 -1.58 M2.35 52.71 C20.08 31.6, 36.62 12.92, 46.97 1.01 M5.49 54.57 C17.71 42.94, 25.94 29.08, 52.28 0.15 M6.61 52.58 C21.69 37.35, 36 18.79, 53.66 -0.66 M11.93 54.4 C22.72 40.28, 33.66 29.33, 56.64 1.67 M12.22 52.75 C27.08 35.8, 41.97 17.96, 57.35 0.25 M17.05 55.07 C27.57 42, 37.34 31.38, 64.52 -0.33 M18.06 54.07 C32.62 36.41, 49.28 17.59, 63.78 0.19 M23.45 53.93 C37.7 34.69, 52.92 19.22, 70.66 1.98 M22.16 53.67 C34.32 40.86, 44.06 27.74, 69.36 -0.78 M27.22 51.41 C39.84 36.97, 53.89 23.54, 75.02 -0.98 M27.27 54.29 C39.58 40.44, 49.83 27.62, 75.2 0.17 M33.71 54.56 C51.56 34.5, 67.75 14.7, 80.12 -0.67 M32.78 53.46 C50.51 33.85, 67.89 12.26, 78.56 -0.03 M38.81 52.55 C48.39 40.82, 56.9 30.58, 86.73 1.06 M38.29 52.79 C48.24 40.61, 59.73 27.11, 84.91 -1.13 M44.66 52.15 C56.3 41, 64.29 29.33, 91.12 -0.54 M43.57 53.21 C58.18 36.02, 72.67 20.03, 89.37 -0.33 M48.92 53.24 C60.53 37.71, 75.81 22.62, 96.85 -1.6 M50.06 54.23 C61.29 40.08, 74.67 25.72, 94.77 -0.98 M56.52 52.3 C70.86 36.26, 86.09 15.78, 99.98 1.85 M54.89 53.16 C69.18 36.33, 83.69 19.62, 101.09 0.61 M60.88 53.94 C70.4 38.51, 83.03 27.92, 104.84 1.39 M60.38 52.4 C76.91 35.51, 93.07 16.56, 105.52 0.47 M63.72 54.37 C75.25 38.71, 87.77 27.21, 113.28 -0.28 M66 52.65 C74.24 41.37, 84.68 30.98, 111.91 0.21 M72.27 52.9 C88.26 32.61, 101.57 15.43, 115.76 -1.11 M69.92 52.21 C81.33 38.85, 93.87 25.64, 116.13 0.97 M75 51.46 C87.66 39.04, 98.95 26.2, 123.86 0.06 M76.99 52.17 C89.2 35.84, 102.07 21.11, 122.87 -1.01 M82.91 54.09 C98.87 34.35, 113.74 17.68, 126.87 -0.74 M80.23 53.71 C93.6 38.45, 105.17 25.32, 126.39 1.09 M85.29 54.43 C103.55 33.64, 118.98 16.07, 130.8 -0.4 M86.86 53.32 C104.86 30.97, 122.83 11.28, 131.9 0.64 M90.91 51.24 C102.44 39.82, 114.08 26.32, 135.72 -1.16 M91.76 54.06 C107.19 36.22, 121.58 19.57, 137.02 0.84 M95.81 51.89 C105.82 40.01, 117.45 31.23, 143.43 0.81 M97.48 52.82 C107.5 40.14, 119.38 27.53, 143.8 -0.06 M100.57 51.84 C120.32 34.78, 135.62 15.25, 146.77 -1.01 M101.79 53.56 C118.22 34.15, 134.55 16.77, 148.25 0.55 M106.02 54.18 C121.79 33.59, 139.97 15.69, 153.33 -0.06 M107.59 52.54 C119.44 37.68, 132.95 23.25, 154.26 0.81 M114.49 53.11 C128.67 36.28, 141.49 19.36, 158.73 -1.17 M112.5 53.62 C128.38 34.69, 144.27 17.87, 159.2 -0.29 M117.61 53.42 C133.45 38.47, 144.91 22.33, 166.34 -1.05 M118.81 53.45 C131.04 38.73, 143.18 22.89, 163.83 0.28 M121.5 54.04 C140.07 33.17, 154.79 16.97, 168.55 -0.8 M122.96 52.78 C131.99 42.63, 141.54 30.75, 169.86 0.92 M130.56 51.46 C138.96 42.53, 150.38 27.47, 174.53 1.58 M129.61 51.65 C144.35 37.55, 157.79 19.59, 175.92 0.54 M132.68 51.35 C147.07 40.56, 159.08 23.75, 179.45 -1.29 M135.08 52.7 C151.09 33.05, 168.43 12.49, 179.09 -0.09 M139.06 51.91 C157.21 34.16, 170.06 17.92, 184.24 1.31 M139.37 52.37 C154.75 34.61, 171.82 15.24, 184.86 -1.15 M145.37 51.52 C161.48 33.48, 175.54 17.55, 188.87 1.72 M145.67 52.19 C154.28 42.31, 163.61 30.94, 190.64 -0.47 M151.57 52.12 C158.04 40.96, 169.02 30.74, 196.05 1.37 M150.33 51.97 C164.27 35.4, 178.88 19.43, 195.8 -0.35 M155.14 54.79 C169.18 39.05, 183.92 23.36, 200.53 -1.67 M154.4 53.14 C171.01 36.66, 186.86 18.47, 201.12 -0.23 M162.81 51.2 C173.91 36.04, 191.74 17.66, 208.8 -1.26 M161.61 51.92 C178.51 32.61, 196.57 12.44, 206.82 0.47 M167.83 51.14 C183.08 35.06, 201.34 15.11, 212.38 0.39 M165.84 52.62 C181.04 34.73, 196.38 17.29, 212.03 -0.28 M169.72 54 C184.01 39.94, 195.49 25.99, 219.56 0.15 M171.18 52.83 C186.27 35.31, 199.27 20.64, 216.82 -0.01 M175.51 52.29 C188.3 36.66, 201.64 23.15, 220.63 1.52 M177.4 52.77 C189.15 38.34, 200.89 23.75, 221.71 -0.39 M183.51 51.12 C195.65 37.28, 209.28 22.84, 227.66 -1.92 M181.93 52.43 C196.19 36.83, 210.75 19.64, 227.63 -0.02 M188.53 51.73 C199.06 39.5, 214.13 24.59, 231.74 1.06 M187.39 52.9 C202.89 33.08, 221.03 13.98, 233.43 0.8 M193.65 50.93 C208.89 32.29, 223.76 16.27, 236.73 1.03 M193.59 51.57 C208.59 35.24, 224.54 17.73, 235.94 1.63 M199.46 52.69 C206.93 40.26, 218.23 31.07, 238.47 4.66 M196.99 53.41 C209.5 39.13, 221.62 23.83, 239.35 4.3 M203.83 51.53 C215.05 36.6, 228.32 22.89, 241.93 5.73 M202.77 52.22 C215.05 39.8, 224.4 27.92, 242.65 7.74 M207.13 52.14 C220.34 39.64, 232.25 26.13, 247.07 11.39 M208.25 51.86 C219.35 39.73, 230.29 28.64, 245.74 9.93 M216.02 52.78 C227.9 37.44, 236.9 26.79, 247.98 10.9 M214.96 51.5 C224.17 42.91, 231.6 31.7, 248.82 12.45 M220.64 52.83 C226.21 43.7, 235.95 34.9, 251.4 13.11 M220.1 52.9 C229.49 41.71, 237.47 31.29, 251.14 15.67 M226.42 52.27 C235.9 38.16, 247.55 27.68, 255.2 16 M224.53 51.62 C236.36 39.34, 248.57 24.54, 255.75 18.05 M231.3 51.22 C237.44 42.3, 248.28 33.25, 258.91 20.16 M230.33 52.32 C237.69 42.37, 246.52 34.28, 258.27 19.37 M233.49 53.37 C245.88 41.65, 253.48 32.51, 262.18 22.28 M234.73 51.95 C243.19 43.91, 248.88 36.15, 261.61 21.97 M240.05 54.31 C245.66 47.66, 251.63 38.28, 263.31 24.66 M238.98 53.8 C246.91 45.48, 253.39 35.6, 264.75 26.01" stroke="#2f9e44" stroke-width="0.5" fill="none"></path><path d="M1.59 0.96 C3.23 5.95, 9.74 9.82, 23.33 24.17 M0.11 0.68 C7.63 9.67, 15.97 20.36, 22.51 25.67 M21.68 24.63 C14.34 34.34, 10.17 41.59, -1.11 52.97 M21.38 25.67 C15.11 35.4, 7.56 43.26, -0.78 51.63 M-1.1 51.57 C93.2 51.98, 183.97 53.52, 237.3 49.58 M-0.02 52.04 C68.65 51.09, 135.5 50.88, 237.29 50.64 M236.96 52.88 C246.9 44.1, 254.76 37.99, 264.17 24.57 M236.19 50.88 C243.5 45.13, 249.43 39.92, 266.2 26.24 M263.38 24.96 C259.7 18.82, 251.78 12.81, 235.02 -1.54 M265.71 26.76 C254.81 17.05, 245.38 8.21, 234.56 -0.82 M234.79 -0.04 C180.29 2.1, 128.94 1.67, -1.18 0.14 M233.64 0.69 C162.94 0.26, 92.33 0.23, -0.33 -0.31 M0 0 C0 0, 0 0, 0 0 M0 0 C0 0, 0 0, 0 0" stroke="#1e1e1e" stroke-width="1" fill="none"></path></g></g><mask></mask><g transform="translate(596.0099868774414 33.63374338031099) rotate(0 107.9900131225586 12.5)"><text x="107.9900131225586" y="0" font-family="Virgil, Segoe UI Emoji" font-size="20px" fill="#1e1e1e" text-anchor="middle" style="white-space: pre;" direction="ltr" dominant-baseline="text-before-edge">Application integration</text></g><g stroke-linecap="round" transform="translate(573.5 95.63374338031099) rotate(0 57.5 141)"><path d="M0 0 C0 0, 0 0, 0 0 M0 0 C0 0, 0 0, 0 0 M0.9 4.87 C1.83 5.13, 3.39 4.38, 4.68 1.15 M-0.39 7.18 C0.78 5.17, 2.56 3.56, 5.3 0.25 M0.72 8.88 C6.68 9.76, 4.93 3.95, 11.87 0.61 M1.2 10.49 C2.26 6.05, 6.38 3, 10.42 -0.41 M-1.94 17.77 C5.45 9.81, 12.61 11.92, 18.72 -1.91 M0.25 19.43 C5.81 12.59, 7.28 7.37, 15.32 -0.45 M0.14 26.72 C9.12 19.67, 12.06 3.99, 21.27 2.37 M-0.97 23.13 C5.37 17.17, 11.58 10.69, 20.89 -0.17 M-3.34 31.28 C7.03 21.09, 21.33 5.03, 29.94 1.91 M0.05 29.21 C4.49 25.2, 10.6 18.42, 27.79 -0.4 M2.45 34.72 C14.81 20.85, 26.86 12.98, 29.73 2.21 M-1.37 36 C11.94 23.06, 24.52 7.88, 31.98 -1.78 M-3.4 44.55 C10.6 23.97, 22.83 9.84, 36.3 3.01 M-1.31 41.02 C14.03 29.14, 24.73 13.54, 36.9 -0.28 M-2.48 45.77 C12.5 31.52, 27.75 22.3, 42.23 3.25 M0.3 49.66 C14.99 31.7, 29 11.67, 44.24 1.24 M0.54 54.56 C11.94 43.17, 21.95 30.3, 48.72 2.11 M1.77 56.45 C15.83 38.13, 27.69 25.01, 46.14 1.6 M1.63 63.35 C13.93 39.4, 37.93 18.9, 51.92 -4.04 M-0.13 61.57 C14.38 43.2, 29.81 27.19, 52.02 1.73 M-1 70.51 C23.31 45.2, 43.39 21.8, 58.61 3.41 M-0.02 68.08 C20.39 42.7, 41.57 16.13, 56.75 1.21 M-3.83 69.66 C13.49 52.55, 31.03 37.92, 64.48 -1.72 M-0.44 74.69 C23.26 48.37, 44.16 25.48, 63.44 -1.24 M-3.05 78.86 C10.91 60.51, 25.4 43.38, 69.89 -1.38 M-0.26 80.49 C25 50.95, 51.93 22.59, 67.7 0.75 M-0.93 82.41 C23.53 55.36, 52.71 31.04, 74.08 -0.32 M-0.63 86.22 C18.35 61.37, 37.52 40.35, 76.35 1.67 M1.9 87.82 C17.61 66.82, 45.9 36.81, 82.96 -1.04 M-0.74 90.76 C27.08 61.35, 51.97 28.62, 79.72 0.67 M0.08 99.58 C26.17 68.44, 50.27 44.96, 87.36 1.13 M0.35 96.38 C27.93 69.27, 50.81 37.77, 86.35 -1.96 M2.51 100.36 C35.68 61.04, 66.04 27.63, 86.75 3.13 M-0.86 105.47 C25.44 73.18, 51.58 48.62, 91.29 -0.31 M3.42 112.35 C25.74 82.43, 49.05 51.75, 99.5 -0.92 M-0.69 109.36 C37.05 68.37, 75.81 25.66, 94.8 -2.3 M-0.05 114.93 C25.56 90.87, 43.94 66.23, 98.66 -2.65 M1.74 117.46 C26.94 86.3, 55.63 57.06, 102.65 -1.23 M-0.13 125.71 C31.53 87.04, 66.63 43.99, 110.17 1.5 M0.81 121.88 C40.93 73.37, 83.37 27.01, 104.81 0.73 M-0.78 126.25 C45.95 82.32, 81.98 30.38, 108.62 3.33 M-1.51 126.57 C41.07 83.55, 82.52 37.2, 111.77 1.1 M1.32 131.35 C46.35 83.25, 86.08 39.39, 114.21 -2.65 M-0.15 132.14 C30.64 98.01, 62.96 60.09, 115.91 2.98 M3.8 138.28 C38.37 95.23, 76.31 53.73, 113.13 5.06 M0.58 140.61 C33.27 103.25, 62.11 69.81, 116.47 6.94 M0.2 148.5 C25.83 119.3, 49.32 83.57, 112.41 10.65 M1.14 144.6 C37.39 102.66, 76.24 56.34, 114.85 14.09 M3.7 152.72 C28.66 124.71, 56.53 89.07, 112.41 21.76 M-1.04 151.92 C27.55 121.48, 54.4 92.86, 115.57 18.48 M0.75 160.61 C27.3 132.88, 46.68 103.48, 119.13 25.3 M-1.48 158.73 C43.02 109.05, 90.13 57.38, 115.15 26.31 M2.08 166.04 C39.57 115.67, 78.52 71.61, 113.82 33.11 M-1.04 166.34 C44.28 110.72, 91.65 58.01, 116.21 33.16 M-2.28 168.39 C34.75 134.58, 63.87 96.14, 112.02 39.26 M1.53 169.96 C33.99 131.68, 68.81 95.58, 114.93 36.74 M-1.39 178.2 C25.01 148.6, 45.66 120.39, 118.58 41.3 M-0.29 175.94 C27.9 144.44, 53.6 110.69, 116.69 41.67 M-3.65 186.3 C45.68 129.35, 87.37 75.57, 113.26 45.99 M-0.51 182.27 C32.56 143.07, 69.26 98.85, 118.05 48.7 M-3.21 185.42 C25.87 162.13, 50.55 126.95, 114.46 54.31 M1.4 187.82 C43.19 145, 84.61 97.59, 115.08 55.23 M-0.94 191.55 C22.36 163.52, 55.07 128.58, 116.84 59.2 M0.13 193.1 C47.17 143.54, 88.82 97.77, 117.44 60.53 M-1.39 201.14 C35.18 152.26, 78.52 108.57, 118.36 66.84 M-0.04 201.04 C27.48 173.28, 51.37 145.15, 115.88 66.54 M-3.23 204.86 C38.1 163.91, 72.18 122.1, 115.26 77.85 M0.93 206.17 C33.69 163.17, 70.79 119.54, 113.79 74.56 M0.56 212.59 C32.71 170.12, 72.89 128.32, 119.7 77.1 M-0.94 215.2 C24.52 183.03, 53.36 150.32, 117.3 78.55 M0.23 219.19 C41.62 175.53, 76.43 128.6, 119.5 82.66 M0.46 220.19 C34.29 176.71, 68.53 134.98, 115.53 85.62 M-3.68 225.72 C30.82 189.45, 58.64 157.84, 111.74 95.56 M0.84 227.37 C34.54 185.07, 69.52 144.67, 114.67 93.24 M2.67 228.74 C44.48 185.55, 85.21 140.96, 113.75 97.07 M1.03 229.85 C28.32 203.03, 54.85 173.76, 117.53 98.03 M0.04 233.99 C37.97 192.62, 75.49 149.16, 118.2 101.92 M1.13 236.88 C31.59 199.53, 67.12 160.06, 115.04 104.54 M-0.16 241.47 C32.08 205.82, 61.29 167.04, 118.65 108.06 M0.7 242.37 C28.04 211.17, 56.36 177.29, 116.38 110.4 M-2.26 251.12 C30.49 221.49, 55.37 190.42, 117.34 113.66 M0.89 250.08 C36.36 211.67, 71.86 168.25, 117.22 114.92 M0.67 252.11 C35.61 208.92, 70.27 169.5, 118.73 122.84 M-0.05 254.45 C33.39 219.13, 65.59 182.79, 113.8 124.29 M-2.11 260.07 C27.35 231.94, 60.02 192.71, 116.58 126.96 M0.79 261.29 C25.19 234.24, 51.41 207.26, 114.45 128.34 M2.56 266.85 C44.05 222.57, 83.81 175.16, 112.96 133.86 M1.02 269.05 C35.97 227.62, 68.3 186.6, 115.19 133.29 M3.49 273.54 C33.64 240.66, 62.52 203.55, 119.83 141.56 M1.27 273.34 C46.61 221.43, 93.68 167.5, 117.72 139 M-1.23 280.17 C43.77 227.51, 88.8 176.58, 118.83 147.34 M-0.77 280.14 C30.33 241.77, 62.77 205.44, 117.75 147.48 M0.69 280.74 C50.61 236.39, 96.26 181.52, 118.85 153.41 M3.17 284.3 C37.73 244.44, 75.11 200.04, 115.08 152.11 M4.9 286.71 C38.07 250.67, 65.32 214.62, 119.03 156.23 M9.49 284.59 C31.19 256.46, 54.32 229.31, 117.1 158.44 M16.71 285.07 C35.09 258.67, 59.68 227.36, 111.86 167.72 M13.63 285.2 C49.66 241.14, 86.64 198.43, 114.34 164.88 M17.96 285.98 C51.44 242.07, 89.83 201.15, 116.71 173.01 M17.38 282.92 C43.84 252.49, 74.19 220.44, 114.59 172 M20.17 286.82 C52.03 252.71, 77.56 221.85, 115.62 179.45 M22.51 282.7 C47.32 256.35, 69.39 233.53, 115.08 179.02 M26.75 285.19 C59.66 255.01, 87.92 225.17, 118.88 182.38 M29.51 282.1 C59.66 253.52, 86.93 221.64, 116.66 185.01 M32.76 287.93 C68.55 245.78, 95.36 213.59, 112.05 186.32 M33.88 283.87 C62.96 247.5, 95.6 214.91, 115.26 189.72 M43.17 284.07 C60.41 261.49, 75.14 242.57, 115.02 194.29 M40.85 284.34 C62.58 255.6, 88.08 227.52, 117.48 194.28 M48.62 285.88 C64.62 260.32, 86.61 228.86, 119.56 205.52 M45.63 282.03 C64.47 257.99, 84.15 235.22, 114.63 202.45 M50.98 286.58 C72.52 253.67, 95.93 229.67, 113.13 208.47 M51.49 282.84 C75.68 255.24, 100.45 227.76, 115.01 209.15 M58.42 281.62 C76.72 261.37, 87.94 242.5, 112.41 210.54 M53.34 284.79 C70.01 268.5, 83.28 251.82, 114 213.67 M56.41 281.92 C84.04 260.23, 102.09 234.83, 118.38 219.37 M61.21 282.81 C74.56 266.69, 87.4 252.83, 117.59 220.46 M65.34 287.61 C87.29 259.65, 102.1 240.72, 119.32 224.07 M66.37 281.96 C83.78 262.65, 101.1 241.35, 113.92 227.84 M68.22 281.06 C82.67 271.33, 102.91 254.22, 116.43 232.95 M69.59 285.95 C81.18 269.92, 94.9 257.75, 115.34 233.27 M77.02 287.82 C91.5 267.17, 97.56 260.24, 115.55 234.57 M75.84 285.63 C89.14 268.63, 102.7 255.08, 114.71 237.9 M84.32 281.71 C92.24 272.44, 98.8 267.83, 112.79 243.43 M82.6 283.48 C89.58 273.6, 98.71 265.11, 115.45 243.69 M89.64 285.71 C90.75 276.37, 98.39 265.04, 113.53 249.26 M86.59 282.13 C94.11 274.3, 102.81 262.66, 115.11 250.31 M91.13 285.07 C97.34 277.22, 106.13 268.78, 119.44 254.26 M91.99 284.85 C99.19 276.23, 107.36 265.63, 116.85 255.79 M95.86 280.23 C100.67 278.1, 115.4 270.71, 114.15 262.85 M97.23 284.04 C100.25 277.98, 104.92 274.92, 115.59 261.79 M103.55 287.86 C110.05 281.4, 109.05 277.78, 118.89 266.66 M103.22 285.77 C107.07 278.06, 113.1 271.2, 114.22 270.14 M108.66 282.7 C110.88 279.98, 110.44 278.92, 114.85 274.82 M108.26 282.9 C109.52 281.71, 111.45 279.11, 114.6 275.78" stroke="#2f9e44" stroke-width="0.5" fill="none"></path><path d="M0.87 0.25 C31.13 1.47, 60.99 -2.27, 114.29 0.2 M0.08 -1.19 C32.99 -1.27, 67.05 -0.57, 114.65 -1.36 M117.83 -2.71 C118.02 105.1, 117.11 213.39, 116.94 281.44 M115.42 1.46 C118.93 75.3, 117.32 150.19, 116.18 281.99 M117.4 283.31 C79.43 282.13, 46.56 282.99, -1.39 279.89 M115.34 280.78 C92.59 282.25, 69.84 283.99, -0.02 283.85 M0.86 283.04 C3.77 217.9, -0.18 156.74, -1.38 -2.63 M-0.11 282.41 C5.08 182.68, 5.65 85.8, 0.62 -0.28" stroke="#1e1e1e" stroke-width="1" fill="none"></path></g><g transform="translate(580.0199966430664 186.633743380311) rotate(0 50.980003356933594 50)"><text x="50.980003356933594" y="0" font-family="Virgil, Segoe UI Emoji" font-size="20px" fill="#1e1e1e" text-anchor="middle" style="white-space: pre;" direction="ltr" dominant-baseline="text-before-edge">Optimize </text><text x="50.980003356933594" y="25" font-family="Virgil, Segoe UI Emoji" font-size="20px" fill="#1e1e1e" text-anchor="middle" style="white-space: pre;" direction="ltr" dominant-baseline="text-before-edge">and deploy</text><text x="50.980003356933594" y="50" font-family="Virgil, Segoe UI Emoji" font-size="20px" fill="#1e1e1e" text-anchor="middle" style="white-space: pre;" direction="ltr" dominant-baseline="text-before-edge">model for </text><text x="50.980003356933594" y="75" font-family="Virgil, Segoe UI Emoji" font-size="20px" fill="#1e1e1e" text-anchor="middle" style="white-space: pre;" direction="ltr" dominant-baseline="text-before-edge">inference</text></g><g stroke-linecap="round" transform="translate(700.5 95.63374338031099) rotate(0 62 141)"><path d="M0 0 C0 0, 0 0, 0 0 M0 0 C0 0, 0 0, 0 0 M1.06 5.1 C2.77 5.9, 2.44 3.65, 3.62 -0.48 M-0.94 7.19 C2.07 3.66, 4.13 2.54, 5.48 0.31 M0.65 12.98 C1.71 9.19, 2.69 7.86, 12.97 0.35 M-1.25 10.94 C1.19 9.36, 5.55 7.32, 9.22 1.16 M1.06 19.46 C0.55 14.13, 6.24 9.42, 14.95 -1.24 M-1.97 20.08 C4.53 13.9, 9.45 10.81, 15.52 1.53 M1.8 21.47 C3.25 19.78, 16.34 5.8, 24.24 0.73 M0.92 24.45 C7.18 17.11, 14.09 8.77, 20.65 -0.45 M-2.38 31.04 C11.47 15.96, 21.87 9.42, 29.55 -2.86 M-0.46 31.28 C8.6 20.08, 15.58 9.75, 24.71 0.79 M-2.65 37.92 C7.13 24.02, 22.16 18.23, 30.92 -1.05 M0.94 36.95 C10.12 26.45, 18.86 17.38, 32.9 1.12 M3.13 39.08 C12 26.87, 24.76 13.96, 40.03 -1.62 M-1.71 43.46 C7.73 34.49, 14.84 26.17, 35.4 -0.4 M-2.59 52 C9.99 34.38, 20.1 18.14, 42.49 -2.18 M-1.61 47.23 C7.93 39.08, 18.58 28.78, 42.12 -1.12 M0.52 56.31 C15.57 36.79, 28.56 23.98, 45.56 2.93 M-0.23 56.3 C14.91 40.12, 26.44 24.72, 46.95 1.79 M-1.53 58.92 C12.7 49.97, 30.16 29.5, 56.38 3.55 M0.96 62.88 C18.02 42.23, 37.43 19.91, 54.53 -0.22 M0.53 67.68 C11.87 49.32, 31.96 30.3, 57.79 -1.24 M-1.45 68.53 C18.02 47.16, 35.85 25.12, 56.46 1.46 M2.22 72.65 C18.33 50.38, 39.81 26.59, 66.5 1.85 M-1.25 72.98 C25.4 44.03, 48.51 18.69, 62.11 1.04 M-3.6 83.39 C17.77 62.33, 31.93 38.53, 68.9 1.33 M0.92 78.85 C25.83 50.27, 52.11 19.19, 66.79 -1.08 M-1.19 86.65 C17.84 61.29, 36.92 36.32, 71.26 -2.07 M-0.37 84.87 C21.31 58.29, 42.42 33.75, 74.58 -1.9 M-0.13 95.42 C30.82 61.31, 54.86 23.75, 75.54 -2.4 M0.95 90.45 C20.25 67.89, 46.23 40.62, 78.54 0.76 M-1.75 98.64 C28.75 62.45, 59.89 34.8, 81.58 0.5 M0.53 96.88 C23.57 67.11, 51.29 41.43, 83.44 0.69 M3.87 106.47 C25.4 80.26, 46.69 57.14, 86.89 2.03 M-0.87 104.06 C31.91 67.49, 58.77 33.71, 90.06 -0.18 M1.01 107.57 C28.1 80.49, 60.16 49.32, 96.87 -2.22 M-1.86 111.33 C38 63.6, 76.36 20.41, 93.91 0.74 M-2.18 114.76 C33.55 76.89, 67.5 34.12, 100.6 0.58 M1.69 114.63 C26.87 79.41, 57.35 47.54, 101.47 -0.82 M2.11 118.14 C38.43 79.54, 76.46 36.62, 105.05 -2.54 M0.89 123.06 C39.87 71.55, 84.59 23.93, 104.97 0.48 M-1.04 130.75 C28.92 95.45, 54.7 61.08, 110.84 -1.29 M-0.05 128.11 C33.82 86.19, 71.08 44.44, 110.62 0.16 M1.71 137.83 C26.78 102.33, 57.73 73.83, 113.86 3.53 M-0.35 132.41 C39.94 87.79, 80.67 44.09, 116.7 1.11 M-0.98 142.13 C25.14 108.88, 58.97 73.93, 124.27 -2.62 M0.95 138.47 C33.35 102.81, 62.55 70.19, 121.11 -1.65 M-3.54 145.59 C51.63 90.07, 96.18 33.39, 128.24 -1.31 M-0.98 145.94 C29.58 108.43, 62.52 68.76, 127.57 1.34 M0.26 150.39 C33.2 112.74, 65.16 75.12, 129.5 8.61 M-0.48 152.15 C22.3 118.97, 48.31 90.52, 127.74 7.14 M2.89 156.65 C33.27 124.88, 68.22 78.74, 125.05 10.96 M0.69 157.26 C29.68 126.04, 58.71 95.17, 125.29 11.94 M2.11 167.72 C52.55 105.56, 97.54 49.43, 128.82 21.32 M0.89 165.12 C36.11 127.87, 69.82 89.2, 124.23 19.57 M-4.03 171.44 C43.38 129.26, 74.54 83.76, 127.41 27.49 M-1.9 171.94 C32.37 134.74, 67.01 93.06, 125.03 25.54 M0.46 177.84 C39.68 130.51, 74.16 87.48, 121.67 35.22 M0.04 175.58 C27.64 145.9, 56.77 115.96, 126.73 34.22 M1.2 180.19 C41.23 133.11, 85.57 89.59, 129.72 41.49 M0.43 184.05 C40.53 140.11, 78.14 91.46, 126.51 39.61 M3.07 192.72 C26.83 156.33, 58.02 119.02, 126.02 47.75 M1.04 188.75 C39.62 144.01, 76.88 97.29, 127.16 46.15 M1.25 191.86 C42.35 145.29, 82.72 95.89, 122.9 49.67 M-0.72 193.19 C26.11 164.32, 52.75 136.87, 127.21 49.86 M0.19 201.55 C39.86 150.46, 82.4 106.18, 122.38 54.13 M-0.31 201.81 C49.68 145.9, 94.52 92.05, 125.2 54.94 M-0.72 210.91 C48.09 156.73, 92.03 104.03, 125.71 60.99 M0.03 205.18 C40.23 166.92, 74.99 123.11, 125.72 62.99 M0.55 215.3 C41.35 164.37, 86.72 115.47, 128.42 68.31 M-0.44 212.5 C37.63 170.98, 74.99 125.84, 126.97 69.7 M2.3 222.05 C43.58 170.58, 86.11 118.79, 123.37 77.66 M1.11 220.86 C31.19 182.36, 60.36 145.67, 124.31 73.7 M2.08 223.69 C41.98 177.55, 86.53 124.01, 126.31 83.77 M-1.37 224 C41.99 182.28, 81.49 134.77, 124.32 81.73 M-0.21 235.24 C36.12 185.99, 77.31 145.9, 127.65 83.64 M0.7 233.06 C31 196.41, 63.47 158.41, 125.07 85.2 M-0.81 235.92 C48.66 186.44, 87.21 142.41, 126.04 90.21 M0.63 237.79 C46.24 183.11, 89.74 133.19, 126.21 93.39 M-0.25 242.19 C38.46 191.91, 79.42 143.12, 123.45 97.64 M0.74 243.11 C49.29 189.21, 98.32 133.33, 124.48 98.21 M-1.86 249.46 C43.05 202.81, 88.79 150.91, 128.11 102.59 M-1.61 250.31 C33.92 211.69, 69.46 169.91, 125.29 106.99 M-0.65 253.36 C35.05 222.47, 70.33 182.97, 124.18 109.88 M1.58 257.83 C35.37 217.55, 68.98 177.97, 124.76 111.67 M3.66 263.01 C40.23 212.31, 85.23 161.47, 127.5 117.62 M0.45 262.02 C25.92 229.65, 53.65 193.51, 126.02 117.37 M0.25 266.72 C47.35 214.61, 94.08 154.4, 123.12 122.82 M1.35 266.33 C48.85 210.71, 100.48 156.44, 125.25 123.56 M-1.01 273.04 C40.32 222.48, 83.42 178.24, 124.39 126.76 M-0.87 273.88 C33.88 235.01, 71.99 192.56, 127.25 128.86 M-0.03 284.47 C31.81 242.61, 64.97 209.79, 127.98 132.16 M-0.78 280.67 C25.32 247.48, 53.91 214.71, 124.98 135.81 M-1.47 284.49 C38.15 245.29, 70.1 210.94, 123.45 140.97 M3.13 286.08 C32.57 249.56, 60.36 213.9, 125.6 140.05 M10.34 285.02 C52.01 239.78, 88.18 196.63, 125.02 147.37 M6 283.89 C36.29 243.02, 66.75 210.19, 126.78 146.89 M9.75 284.52 C49.26 246.02, 79.09 207.02, 125.17 151.48 M11.49 283.79 C55.72 231.91, 98.99 182.52, 126.75 152.52 M16.64 283.62 C55 243.52, 91.17 196.46, 129.66 156.66 M19.13 282.59 C58.23 236.71, 104.96 185.59, 127.87 160.76 M21.54 281.17 C62.7 239.83, 98.44 204.39, 128.55 166.73 M21.92 283.77 C56.46 243.39, 90.47 206.76, 124.13 167.84 M27.89 287.24 C67.57 237.16, 108.92 195.59, 129.81 175.73 M29.1 281.89 C68.42 237.82, 101.8 195.95, 127.25 171.62 M35.8 284.14 C53.09 258.27, 68.62 243.91, 127.07 176.93 M34.39 283.22 C54.19 262.63, 72.24 238.63, 126.93 180.1 M36.27 287.35 C69.58 250.73, 101.31 217.05, 125.22 184.56 M38.76 282.11 C63.19 256.41, 85.64 227.55, 124.98 184.68 M42.96 282.63 C69.17 250.25, 101.53 224.66, 127.42 191.05 M46.64 285.61 C66.87 263.27, 84.42 240.38, 126.77 188.89 M45.78 287.67 C63.83 262.71, 85.93 243.93, 122.13 196.34 M48.06 282.6 C73.36 255.97, 93.34 229.23, 124.85 197.15 M53.92 285.37 C72.85 260.22, 89.93 238.22, 124.75 205.56 M54.15 284.64 C83.52 251.43, 107.91 221.51, 124.99 204.03 M58.89 285.14 C84.34 257.6, 104.6 229.75, 129.29 206.05 M60.67 282.67 C82.31 256.85, 106.31 230.9, 126.45 210.73 M68.1 280.57 C82.22 264.42, 98.74 246.99, 126.06 213.15 M66.14 284.27 C81.78 267.32, 96.95 247.31, 124.05 214.36 M72.62 282.48 C84.99 268.61, 100.09 251.34, 128.62 219.39 M72.04 286.16 C87.34 268.38, 99.81 251.53, 127.75 220.63 M73.42 283.92 C89.02 267.79, 101.32 255.06, 128.85 223.79 M77.6 282.7 C92.94 266.53, 105.68 248.53, 126.11 228.7 M81.13 285.16 C92.04 264.86, 111.13 250.66, 121.87 230.33 M80.02 282.4 C95.16 267.65, 108.69 251.14, 123.82 233.07 M86.29 282.65 C95.16 267.79, 111.01 260.35, 125.11 237.19 M85.25 284.4 C102.88 266.17, 119.49 250.15, 125.13 240.4 M91.08 286.12 C96.95 277.16, 105.37 271.92, 125.28 242.07 M92.22 282.98 C106.89 270.31, 116.34 254.67, 125.46 246.24 M95.62 283.47 C100.93 274.82, 111.81 270.03, 128.01 247.82 M99.58 284.06 C104.76 273.73, 113.66 264.52, 125.45 252.27 M105.65 281.84 C110.33 271.19, 118.93 265.12, 125.59 255.57 M101.99 285.72 C108.57 280.58, 111.27 274.79, 127.24 258.85 M110.83 280.58 C112.85 278.78, 118.81 276.53, 122.55 262.38 M108.82 282.66 C114.96 278.03, 120.05 273.36, 124.54 262.17 M116.33 280.47 C117.56 284.18, 121.99 281.21, 122.88 266.71 M112.49 282.79 C115.21 281.18, 118.35 276.44, 126.14 271.04 M120.45 285.71 C122.36 282.05, 123.21 280.01, 124.93 274.5 M119.01 283.55 C120.18 280.66, 123.51 279.95, 126.59 276.04" stroke="#2f9e44" stroke-width="0.5" fill="none"></path><path d="M-2.03 -0.06 C45.73 5.11, 95.97 0.38, 121.03 -3.45 M0.26 1.06 C47.47 -1.37, 93.38 -2.71, 123.1 -1.3 M124 2 C126.95 81.32, 127.8 161.14, 122.91 279.11 M124.72 -1.06 C119.59 90.36, 120.05 180.64, 125.45 282.07 M120.28 278.65 C78.45 279.06, 32.17 279.07, 1.61 282.32 M122.3 283.92 C94.37 284.3, 59.71 282.11, 0.2 282.12 M-1.49 280.49 C-4.18 191.63, -3.32 103.31, -2.38 1.39 M1.5 280.95 C-4.22 198.33, -1.91 113.89, -1.07 0.92" stroke="#1e1e1e" stroke-width="1" fill="none"></path></g><g transform="translate(705.9799957275391 174.133743380311) rotate(0 56.52000427246094 62.5)"><text x="56.52000427246094" y="0" font-family="Virgil, Segoe UI Emoji" font-size="20px" fill="#1e1e1e" text-anchor="middle" style="white-space: pre;" direction="ltr" dominant-baseline="text-before-edge">Augment </text><text x="56.52000427246094" y="25" font-family="Virgil, Segoe UI Emoji" font-size="20px" fill="#1e1e1e" text-anchor="middle" style="white-space: pre;" direction="ltr" dominant-baseline="text-before-edge">model and </text><text x="56.52000427246094" y="50" font-family="Virgil, Segoe UI Emoji" font-size="20px" fill="#1e1e1e" text-anchor="middle" style="white-space: pre;" direction="ltr" dominant-baseline="text-before-edge">build LLM- </text><text x="56.52000427246094" y="75" font-family="Virgil, Segoe UI Emoji" font-size="20px" fill="#1e1e1e" text-anchor="middle" style="white-space: pre;" direction="ltr" dominant-baseline="text-before-edge">powered </text><text x="56.52000427246094" y="100" font-family="Virgil, Segoe UI Emoji" font-size="20px" fill="#1e1e1e" text-anchor="middle" style="white-space: pre;" direction="ltr" dominant-baseline="text-before-edge">applications</text></g></svg>