<svg version="1.1" xmlns="http://www.w3.org/2000/svg" viewBox="0 0 958 508.0799985486083" width="1916" height="1016.1599970972165">
  <!-- svg-source:excalidraw -->
  
  <defs>
    <style class="style-fonts">
      @font-face {
        font-family: "Virgil";
        src: url("https://excalidraw.com/Virgil.woff2");
      }
      @font-face {
        font-family: "Cascadia";
        src: url("https://excalidraw.com/Cascadia.woff2");
      }
    </style>
    
  </defs>
  <rect x="0" y="0" width="958" height="508.0799985486083" fill="#ffffff"></rect><g stroke-linecap="round" transform="translate(10 301.0799985486083) rotate(0 107 98.5)"><path d="M43.42 20.97 C51.69 12.71, 64.67 6.18, 76.8 2.85 C88.93 -0.48, 103.05 -0.58, 116.21 0.98 C129.38 2.54, 144.19 7.09, 155.77 12.21 C167.36 17.34, 177.28 22.94, 185.74 31.72 C194.2 40.51, 202.05 53.96, 206.52 64.92 C210.99 75.89, 212.64 85.71, 212.55 97.52 C212.46 109.32, 210.72 124.55, 205.99 135.77 C201.25 146.99, 193.03 156.61, 184.14 164.83 C175.26 173.04, 163.95 179.48, 152.68 185.07 C141.41 190.66, 129.2 197.19, 116.52 198.36 C103.84 199.53, 89.27 195.64, 76.6 192.1 C63.93 188.56, 50.76 183.92, 40.49 177.13 C30.23 170.33, 21.61 161.34, 15 151.32 C8.39 141.31, 3.1 128.88, 0.83 117.02 C-1.43 105.16, -1.44 91.77, 1.42 80.17 C4.29 68.58, 8.29 58.86, 18 47.46 C27.71 36.06, 49.41 18.56, 59.68 11.79 C69.95 5.01, 78.69 5.41, 79.62 6.78 M157.04 12.09 C168.19 16.16, 177.35 26.58, 185.8 35.57 C194.25 44.56, 202.61 55, 207.73 66.04 C212.84 77.09, 217.12 90.7, 216.49 101.85 C215.87 113.01, 208.91 122.01, 203.98 132.96 C199.04 143.92, 195.52 158.12, 186.88 167.59 C178.25 177.06, 164.45 184.73, 152.16 189.8 C139.86 194.88, 125.41 197.6, 113.12 198.06 C100.83 198.52, 90.29 196, 78.42 192.56 C66.54 189.11, 52.06 184.91, 41.86 177.39 C31.67 169.87, 23.53 157.99, 17.27 147.43 C11.01 136.86, 7.25 125.34, 4.31 113.99 C1.36 102.64, -2.51 91, -0.4 79.33 C1.71 67.66, 9.41 54.36, 16.98 43.98 C24.56 33.6, 34.56 23.44, 45.05 17.04 C55.54 10.63, 67.55 8.23, 79.94 5.56 C92.33 2.89, 107.07 0.11, 119.39 1.01 C131.72 1.92, 148.3 8.89, 153.88 11 C159.46 13.11, 152.86 12.55, 152.87 13.67" stroke="#000000" stroke-width="1" fill="none"></path></g><g stroke-linecap="round" transform="translate(858.0661627503391 29.14699448681222) rotate(0 26.578947368421154 27.192307692307736)"><path d="M0 0 C16.33 0, 32.65 0, 53.16 0 M0 0 C20.78 0, 41.55 0, 53.16 0 M53.16 0 C53.16 12.63, 53.16 25.26, 53.16 54.38 M53.16 0 C53.16 12.15, 53.16 24.3, 53.16 54.38 M53.16 54.38 C32.9 54.38, 12.65 54.38, 0 54.38 M53.16 54.38 C42.09 54.38, 31.03 54.38, 0 54.38 M0 54.38 C0 42.92, 0 31.45, 0 0 M0 54.38 C0 37.99, 0 21.59, 0 0" stroke="#e95d8e" stroke-width="2" fill="none"></path></g><g stroke-linecap="round"><g transform="translate(858.4750696329311 39.778573434180544) rotate(0 26.374493927125513 -0.20445344129552723)"><path d="M0 0 C13.01 -0.1, 26.01 -0.2, 52.75 -0.41 M0 0 C18.26 -0.14, 36.52 -0.28, 52.75 -0.41" stroke="#e95d8e" stroke-width="2" fill="none"></path></g></g><mask></mask><g stroke-linecap="round"><g transform="translate(864.6086728717964 34.25833051920108) rotate(0 1.4311740890688043 0)"><path d="M0 0 C1.12 0, 2.25 0, 2.86 0 M0 0 C1.13 0, 2.26 0, 2.86 0" stroke="#e95d8e" stroke-width="2" fill="none"></path></g></g><mask></mask><g stroke-linecap="round"><g transform="translate(872.5823570823231 34.25833051920108) rotate(0 1.226720647773277 0)"><path d="M0 0 C0.69 0, 1.39 0, 2.45 0 M0 0 C0.64 0, 1.27 0, 2.45 0" stroke="#e95d8e" stroke-width="2" fill="none"></path></g></g><mask></mask><g stroke-linecap="round"><g transform="translate(875.6491587017563 45.912176673046815) rotate(0 6.746963562753081 0)"><path d="M0 0 C4.59 0, 9.18 0, 13.49 0 M0 0 C3.33 0, 6.66 0, 13.49 0" stroke="#e95d8e" stroke-width="2" fill="none"></path></g></g><mask></mask><g stroke-linecap="round"><g transform="translate(904.8910615357645 77.18191351515361) rotate(0 -15.747975708502054 -11.846659919028298)"><path d="M0 0 C-7.74 0.05, -15.47 0.11, -31.7 0.22 M0 0 C-7.58 0.05, -15.16 0.1, -31.7 0.22 M-31.7 0.22 C-31.7 -5.77, -31.7 -11.76, -31.7 -23.5 M-31.7 0.22 C-31.7 -7.35, -31.7 -14.92, -31.7 -23.5 M-31.7 -23.5 C-24.87 -23.59, -18.04 -23.68, 0.2 -23.91 M-31.7 -23.5 C-22.46 -23.62, -13.22 -23.74, 0.2 -23.91 M0.2 -23.91 C0.15 -18.36, 0.11 -12.81, 0 0 M0.2 -23.91 C0.15 -18.29, 0.11 -12.66, 0 0" stroke="#e95d8e" stroke-width="2" fill="none"></path></g></g><mask></mask><g stroke-linecap="round"><g transform="translate(864.1997659892058 54.09031432486972) rotate(0 0 2.6578947368420813)"><path d="M0 0 C0 2.09, 0 4.18, 0 5.32 M0 0 C0 1.99, 0 3.98, 0 5.32" stroke="#e95d8e" stroke-width="2" fill="none"></path></g></g><mask></mask><g stroke-linecap="round"><g transform="translate(864.1997659892058 49.59233861636767) rotate(0 0 -1.8400809716599724)"><path d="M0 0 C0 -1, 0 -2.01, 0 -3.68 M0 0 C0 -0.85, 0 -1.7, 0 -3.68" stroke="#e95d8e" stroke-width="2" fill="none"></path></g></g><mask></mask><g stroke-linecap="round"><g transform="translate(864.608672871796 45.912176673046815) rotate(0 2.453441295546554 0)"><path d="M0 0 C1.55 0, 3.1 0, 4.91 0 M0 0 C1.54 0, 3.09 0, 4.91 0" stroke="#e95d8e" stroke-width="2" fill="none"></path></g></g><mask></mask><g stroke-linecap="round"><g transform="translate(900.5924785398133 49.38788517507146) rotate(0 0 -1.4311740890688043)"><path d="M0 0 C0 -0.79, 0 -1.58, 0 -2.86 M0 0 C0 -0.68, 0 -1.37, 0 -2.86" stroke="#e95d8e" stroke-width="2" fill="none"></path></g></g><mask></mask><g stroke-linecap="round"><g transform="translate(895.6855959487202 45.912176673046815) rotate(0 2.453441295546554 0)"><path d="M0 0 C1.41 0, 2.83 0, 4.91 0 M0 0 C1.04 0, 2.09 0, 4.91 0" stroke="#e95d8e" stroke-width="2" fill="none"></path></g></g><mask></mask><g stroke-linecap="round"><g transform="translate(864.1997659892058 68.19760177426087) rotate(0 0 -1.8400809716599724)"><path d="M0 0 C0 -0.85, 0 -1.71, 0 -3.68 M0 0 C0 -0.82, 0 -1.64, 0 -3.68" stroke="#e95d8e" stroke-width="2" fill="none"></path></g></g><mask></mask><g stroke-linecap="round"><g transform="translate(864.1997659892063 68.81096209814768) rotate(0 2.0445344129554996 0)"><path d="M0 0 C0.84 0, 1.68 0, 4.09 0 M0 0 C1.31 0, 2.63 0, 4.09 0" stroke="#e95d8e" stroke-width="2" fill="none"></path></g></g><mask></mask><g transform="translate(832.1451101187604 87.79463704104) rotate(0 52.1199951171875 12)"><text x="0" y="0" font-family="Virgil, Segoe UI Emoji" font-size="20px" fill="#000000" text-anchor="start" style="white-space: pre;" direction="ltr" dominant-baseline="text-before-edge">Dashboard</text></g><g stroke-linecap="round"><g transform="translate(637.7360013900152 207.29684296346454) rotate(0 52.54859667738299 -17.46898911697167)" fill-rule="evenodd"><path d="M0 0 L82.45 0 L84.14 -0.05 L85.81 -0.19 L87.45 -0.43 L89.06 -0.75 L90.63 -1.16 L92.18 -1.66 L93.68 -2.24 L95.14 -2.9 L96.56 -3.63 L97.94 -4.44 L99.26 -5.31 L100.54 -6.26 L101.76 -7.27 L102.93 -8.34 L105.1 -10.67 L102.89 -13.37 L100.54 -15.95 L98.05 -18.39 L95.43 -20.69 L92.68 -22.84 L89.82 -24.83 L86.83 -26.67 L83.74 -28.34 L80.55 -29.83 L77.26 -31.15 L73.88 -32.28 L70.42 -33.22 L66.88 -33.96 L63.27 -34.5 L59.59 -34.83 L55.86 -34.94 L53.57 -34.9 L51.3 -34.77 L46.82 -34.29 L42.45 -33.49 L38.19 -32.39 L34.05 -31 L30.05 -29.34 L26.2 -27.41 L22.5 -25.23 L18.98 -22.8 L15.63 -20.14 L12.48 -17.27 L9.53 -14.18 L6.79 -10.9 L4.29 -7.44 L2.02 -3.8 L0 0" stroke="none" stroke-width="0" fill="#F0BF1A" fill-rule="evenodd"></path><path d="M0 0 C31.6 0, 63.2 0, 82.45 0 M0 0 C24.79 0, 49.58 0, 82.45 0 M82.45 0 C82.88 -0.01, 83.3 -0.02, 84.14 -0.05 M82.45 0 C83.04 -0.02, 83.63 -0.03, 84.14 -0.05 M84.14 -0.05 C84.59 -0.09, 85.04 -0.13, 85.81 -0.19 M84.14 -0.05 C84.73 -0.1, 85.31 -0.15, 85.81 -0.19 M85.81 -0.19 C86.46 -0.29, 87.12 -0.38, 87.45 -0.43 M85.81 -0.19 C86.26 -0.26, 86.7 -0.32, 87.45 -0.43 M87.45 -0.43 C87.84 -0.51, 88.23 -0.59, 89.06 -0.75 M87.45 -0.43 C87.92 -0.52, 88.38 -0.62, 89.06 -0.75 M89.06 -0.75 C89.41 -0.85, 89.77 -0.94, 90.63 -1.16 M89.06 -0.75 C89.48 -0.86, 89.9 -0.97, 90.63 -1.16 M90.63 -1.16 C91.04 -1.29, 91.44 -1.42, 92.18 -1.66 M90.63 -1.16 C91.13 -1.32, 91.63 -1.48, 92.18 -1.66 M92.18 -1.66 C92.66 -1.85, 93.14 -2.03, 93.68 -2.24 M92.18 -1.66 C92.65 -1.84, 93.12 -2.03, 93.68 -2.24 M93.68 -2.24 C94.15 -2.45, 94.62 -2.66, 95.14 -2.9 M93.68 -2.24 C94.01 -2.39, 94.33 -2.53, 95.14 -2.9 M95.14 -2.9 C95.53 -3.1, 95.92 -3.3, 96.56 -3.63 M95.14 -2.9 C95.46 -3.06, 95.77 -3.22, 96.56 -3.63 M96.56 -3.63 C97.07 -3.93, 97.58 -4.23, 97.94 -4.44 M96.56 -3.63 C96.92 -3.84, 97.27 -4.05, 97.94 -4.44 M97.94 -4.44 C98.4 -4.75, 98.87 -5.06, 99.26 -5.31 M97.94 -4.44 C98.38 -4.73, 98.82 -5.02, 99.26 -5.31 M99.26 -5.31 C99.76 -5.68, 100.25 -6.05, 100.54 -6.26 M99.26 -5.31 C99.61 -5.57, 99.96 -5.83, 100.54 -6.26 M100.54 -6.26 C100.82 -6.49, 101.11 -6.73, 101.76 -7.27 M100.54 -6.26 C100.81 -6.48, 101.08 -6.7, 101.76 -7.27 M101.76 -7.27 C102.12 -7.6, 102.48 -7.92, 102.93 -8.34 M101.76 -7.27 C102.23 -7.7, 102.69 -8.12, 102.93 -8.34 M102.93 -8.34 C103.51 -8.96, 104.09 -9.58, 105.1 -10.67 M102.93 -8.34 C103.78 -9.25, 104.62 -10.16, 105.1 -10.67 M105.1 -10.67 C104.47 -11.44, 103.84 -12.22, 102.89 -13.37 M105.1 -10.67 C104.36 -11.58, 103.62 -12.49, 102.89 -13.37 M102.89 -13.37 C102.4 -13.92, 101.9 -14.46, 100.54 -15.95 M102.89 -13.37 C101.99 -14.37, 101.09 -15.36, 100.54 -15.95 M100.54 -15.95 C99.94 -16.55, 99.33 -17.14, 98.05 -18.39 M100.54 -15.95 C99.82 -16.65, 99.1 -17.36, 98.05 -18.39 M98.05 -18.39 C97.24 -19.1, 96.42 -19.82, 95.43 -20.69 M98.05 -18.39 C97.33 -19.02, 96.6 -19.66, 95.43 -20.69 M95.43 -20.69 C94.52 -21.4, 93.6 -22.12, 92.68 -22.84 M95.43 -20.69 C94.79 -21.19, 94.16 -21.69, 92.68 -22.84 M92.68 -22.84 C92.11 -23.24, 91.53 -23.64, 89.82 -24.83 M92.68 -22.84 C91.62 -23.58, 90.55 -24.32, 89.82 -24.83 M89.82 -24.83 C89.08 -25.29, 88.34 -25.74, 86.83 -26.67 M89.82 -24.83 C89.14 -25.25, 88.47 -25.66, 86.83 -26.67 M86.83 -26.67 C86.18 -27.02, 85.52 -27.38, 83.74 -28.34 M86.83 -26.67 C85.87 -27.18, 84.92 -27.7, 83.74 -28.34 M83.74 -28.34 C82.71 -28.82, 81.67 -29.31, 80.55 -29.83 M83.74 -28.34 C82.75 -28.8, 81.75 -29.27, 80.55 -29.83 M80.55 -29.83 C79.68 -30.18, 78.81 -30.53, 77.26 -31.15 M80.55 -29.83 C79.36 -30.31, 78.17 -30.78, 77.26 -31.15 M77.26 -31.15 C76.44 -31.42, 75.62 -31.7, 73.88 -32.28 M77.26 -31.15 C76.53 -31.39, 75.81 -31.64, 73.88 -32.28 M73.88 -32.28 C72.6 -32.63, 71.32 -32.98, 70.42 -33.22 M73.88 -32.28 C72.74 -32.59, 71.6 -32.9, 70.42 -33.22 M70.42 -33.22 C69.26 -33.46, 68.11 -33.7, 66.88 -33.96 M70.42 -33.22 C69.55 -33.4, 68.69 -33.58, 66.88 -33.96 M66.88 -33.96 C65.67 -34.14, 64.45 -34.32, 63.27 -34.5 M66.88 -33.96 C65.96 -34.1, 65.05 -34.24, 63.27 -34.5 M63.27 -34.5 C62.39 -34.58, 61.52 -34.66, 59.59 -34.83 M63.27 -34.5 C61.83 -34.63, 60.4 -34.76, 59.59 -34.83 M59.59 -34.83 C58.63 -34.86, 57.66 -34.88, 55.86 -34.94 M59.59 -34.83 C58.47 -34.86, 57.34 -34.89, 55.86 -34.94 M55.86 -34.94 C55.21 -34.93, 54.56 -34.91, 53.57 -34.9 M55.86 -34.94 C55.34 -34.93, 54.81 -34.92, 53.57 -34.9 M53.57 -34.9 C53.05 -34.87, 52.53 -34.84, 51.3 -34.77 M53.57 -34.9 C52.94 -34.86, 52.3 -34.83, 51.3 -34.77 M51.3 -34.77 C49.9 -34.62, 48.49 -34.47, 46.82 -34.29 M51.3 -34.77 C50.34 -34.67, 49.39 -34.56, 46.82 -34.29 M46.82 -34.29 C45.82 -34.1, 44.82 -33.92, 42.45 -33.49 M46.82 -34.29 C45.43 -34.03, 44.04 -33.78, 42.45 -33.49 M42.45 -33.49 C41.53 -33.25, 40.61 -33.01, 38.19 -32.39 M42.45 -33.49 C40.81 -33.06, 39.17 -32.64, 38.19 -32.39 M38.19 -32.39 C37.23 -32.07, 36.27 -31.74, 34.05 -31 M38.19 -32.39 C36.58 -31.85, 34.97 -31.31, 34.05 -31 M34.05 -31 C33.15 -30.63, 32.25 -30.25, 30.05 -29.34 M34.05 -31 C32.99 -30.56, 31.92 -30.11, 30.05 -29.34 M30.05 -29.34 C28.88 -28.75, 27.7 -28.16, 26.2 -27.41 M30.05 -29.34 C28.54 -28.58, 27.02 -27.82, 26.2 -27.41 M26.2 -27.41 C25.4 -26.94, 24.61 -26.47, 22.5 -25.23 M26.2 -27.41 C24.86 -26.62, 23.52 -25.82, 22.5 -25.23 M22.5 -25.23 C21.42 -24.48, 20.34 -23.74, 18.98 -22.8 M22.5 -25.23 C21.57 -24.58, 20.64 -23.94, 18.98 -22.8 M18.98 -22.8 C18.29 -22.26, 17.61 -21.71, 15.63 -20.14 M18.98 -22.8 C18.1 -22.11, 17.23 -21.41, 15.63 -20.14 M15.63 -20.14 C14.41 -19.03, 13.19 -17.92, 12.48 -17.27 M15.63 -20.14 C14.78 -19.37, 13.94 -18.6, 12.48 -17.27 M12.48 -17.27 C11.74 -16.49, 11 -15.72, 9.53 -14.18 M12.48 -17.27 C11.5 -16.24, 10.52 -15.22, 9.53 -14.18 M9.53 -14.18 C8.74 -13.24, 7.95 -12.29, 6.79 -10.9 M9.53 -14.18 C8.69 -13.18, 7.85 -12.18, 6.79 -10.9 M6.79 -10.9 C5.9 -9.67, 5 -8.43, 4.29 -7.44 M6.79 -10.9 C6.22 -10.11, 5.64 -9.31, 4.29 -7.44 M4.29 -7.44 C3.72 -6.54, 3.16 -5.63, 2.02 -3.8 M4.29 -7.44 C3.81 -6.68, 3.34 -5.92, 2.02 -3.8 M2.02 -3.8 C1.28 -2.41, 0.54 -1.02, 0 0 M2.02 -3.8 C1.23 -2.31, 0.44 -0.83, 0 0 M0 0 C0 0, 0 0, 0 0 M0 0 C0 0, 0 0, 0 0" stroke="#00000000" stroke-width="1" fill="none"></path></g></g><mask></mask><g stroke-linecap="round"><g transform="translate(713.2008202067791 217.0019336322573) rotate(0 -32.12325765160301 17.468989651595393)" fill-rule="evenodd"><path d="M0 0 L-79.21 0 L-80.28 4.21 L-81.07 8.54 L-81.55 12.96 L-81.67 15.2 L-81.72 17.47 L-81.67 19.73 L-81.55 21.98 L-81.07 26.4 L-80.28 30.72 L-79.21 34.94 L0 34.94 L1.76 34.85 L3.48 34.59 L5.14 34.16 L6.74 33.57 L8.27 32.84 L9.71 31.97 L11.06 30.97 L12.3 29.84 L13.44 28.6 L14.45 27.26 L15.33 25.82 L16.08 24.29 L16.67 22.68 L17.11 21.01 L17.38 19.26 L17.47 17.47 L17.38 15.67 L17.12 13.93 L16.69 12.25 L16.1 10.65 L15.37 9.12 L14.5 7.68 L13.5 6.33 L12.37 5.1 L11.14 3.97 L9.79 2.97 L8.35 2.1 L6.82 1.36 L5.22 0.78 L3.54 0.35 L1.8 0.09 L0 0" stroke="none" stroke-width="0" fill="#07A5DE" fill-rule="evenodd"></path><path d="M0 0 C-18.84 0, -37.67 0, -79.21 0 M0 0 C-28.28 0, -56.56 0, -79.21 0 M-79.21 0 C-79.5 1.15, -79.8 2.3, -80.28 4.21 M-79.21 0 C-79.46 0.98, -79.71 1.96, -80.28 4.21 M-80.28 4.21 C-80.57 5.8, -80.86 7.38, -81.07 8.54 M-80.28 4.21 C-80.51 5.44, -80.73 6.67, -81.07 8.54 M-81.07 8.54 C-81.18 9.54, -81.29 10.54, -81.55 12.96 M-81.07 8.54 C-81.21 9.81, -81.35 11.08, -81.55 12.96 M-81.55 12.96 C-81.59 13.69, -81.63 14.43, -81.67 15.2 M-81.55 12.96 C-81.58 13.53, -81.61 14.11, -81.67 15.2 M-81.67 15.2 C-81.69 16.05, -81.71 16.9, -81.72 17.47 M-81.67 15.2 C-81.68 15.7, -81.69 16.19, -81.72 17.47 M-81.72 17.47 C-81.7 18.11, -81.69 18.74, -81.67 19.73 M-81.72 17.47 C-81.7 18.16, -81.69 18.85, -81.67 19.73 M-81.67 19.73 C-81.65 20.26, -81.62 20.79, -81.55 21.98 M-81.67 19.73 C-81.64 20.44, -81.6 21.14, -81.55 21.98 M-81.55 21.98 C-81.42 23.21, -81.28 24.44, -81.07 26.4 M-81.55 21.98 C-81.36 23.74, -81.17 25.49, -81.07 26.4 M-81.07 26.4 C-80.78 28, -80.49 29.59, -80.28 30.72 M-81.07 26.4 C-80.88 27.44, -80.69 28.48, -80.28 30.72 M-80.28 30.72 C-79.89 32.25, -79.51 33.77, -79.21 34.94 M-80.28 30.72 C-79.92 32.13, -79.56 33.55, -79.21 34.94 M-79.21 34.94 C-57.38 34.94, -35.55 34.94, 0 34.94 M-79.21 34.94 C-50.95 34.94, -22.69 34.94, 0 34.94 M0 34.94 C0.47 34.91, 0.94 34.89, 1.76 34.85 M0 34.94 C0.44 34.92, 0.88 34.89, 1.76 34.85 M1.76 34.85 C2.28 34.77, 2.79 34.69, 3.48 34.59 M1.76 34.85 C2.44 34.74, 3.13 34.64, 3.48 34.59 M3.48 34.59 C4.01 34.45, 4.54 34.31, 5.14 34.16 M3.48 34.59 C3.99 34.45, 4.5 34.32, 5.14 34.16 M5.14 34.16 C5.66 33.97, 6.19 33.78, 6.74 33.57 M5.14 34.16 C5.75 33.94, 6.36 33.71, 6.74 33.57 M6.74 33.57 C7.26 33.32, 7.78 33.07, 8.27 32.84 M6.74 33.57 C7.05 33.43, 7.35 33.28, 8.27 32.84 M8.27 32.84 C8.68 32.59, 9.08 32.35, 9.71 31.97 M8.27 32.84 C8.71 32.57, 9.15 32.31, 9.71 31.97 M9.71 31.97 C10.17 31.63, 10.63 31.28, 11.06 30.97 M9.71 31.97 C10.07 31.7, 10.43 31.43, 11.06 30.97 M11.06 30.97 C11.36 30.69, 11.66 30.42, 12.3 29.84 M11.06 30.97 C11.39 30.67, 11.72 30.37, 12.3 29.84 M12.3 29.84 C12.56 29.56, 12.82 29.28, 13.44 28.6 M12.3 29.84 C12.72 29.39, 13.14 28.93, 13.44 28.6 M13.44 28.6 C13.76 28.18, 14.08 27.75, 14.45 27.26 M13.44 28.6 C13.76 28.17, 14.09 27.74, 14.45 27.26 M14.45 27.26 C14.71 26.84, 14.96 26.42, 15.33 25.82 M14.45 27.26 C14.63 26.97, 14.81 26.68, 15.33 25.82 M15.33 25.82 C15.6 25.27, 15.87 24.73, 16.08 24.29 M15.33 25.82 C15.5 25.48, 15.67 25.14, 16.08 24.29 M16.08 24.29 C16.27 23.77, 16.46 23.25, 16.67 22.68 M16.08 24.29 C16.31 23.66, 16.55 23.02, 16.67 22.68 M16.67 22.68 C16.79 22.24, 16.9 21.79, 17.11 21.01 M16.67 22.68 C16.81 22.17, 16.94 21.65, 17.11 21.01 M17.11 21.01 C17.19 20.48, 17.27 19.95, 17.38 19.26 M17.11 21.01 C17.17 20.64, 17.22 20.27, 17.38 19.26 M17.38 19.26 C17.4 18.77, 17.43 18.27, 17.47 17.47 M17.38 19.26 C17.41 18.57, 17.45 17.87, 17.47 17.47 M17.47 17.47 C17.44 16.92, 17.41 16.37, 17.38 15.67 M17.47 17.47 C17.45 17.03, 17.43 16.6, 17.38 15.67 M17.38 15.67 C17.31 15.2, 17.24 14.72, 17.12 13.93 M17.38 15.67 C17.31 15.21, 17.24 14.75, 17.12 13.93 M17.12 13.93 C16.95 13.27, 16.78 12.61, 16.69 12.25 M17.12 13.93 C16.98 13.39, 16.84 12.85, 16.69 12.25 M16.69 12.25 C16.52 11.8, 16.36 11.35, 16.1 10.65 M16.69 12.25 C16.56 11.9, 16.43 11.54, 16.1 10.65 M16.1 10.65 C15.87 10.15, 15.63 9.65, 15.37 9.12 M16.1 10.65 C15.95 10.33, 15.8 10.02, 15.37 9.12 M15.37 9.12 C15.06 8.6, 14.74 8.07, 14.5 7.68 M15.37 9.12 C15.09 8.66, 14.82 8.2, 14.5 7.68 M14.5 7.68 C14.25 7.34, 14 7.01, 13.5 6.33 M14.5 7.68 C14.21 7.29, 13.92 6.9, 13.5 6.33 M13.5 6.33 C13.13 5.93, 12.77 5.53, 12.37 5.1 M13.5 6.33 C13.16 5.96, 12.81 5.58, 12.37 5.1 M12.37 5.1 C12.12 4.87, 11.87 4.64, 11.14 3.97 M12.37 5.1 C12.01 4.76, 11.64 4.43, 11.14 3.97 M11.14 3.97 C10.84 3.75, 10.54 3.52, 9.79 2.97 M11.14 3.97 C10.72 3.66, 10.3 3.35, 9.79 2.97 M9.79 2.97 C9.47 2.77, 9.14 2.57, 8.35 2.1 M9.79 2.97 C9.23 2.63, 8.67 2.29, 8.35 2.1 M8.35 2.1 C7.98 1.92, 7.61 1.74, 6.82 1.36 M8.35 2.1 C7.82 1.84, 7.28 1.59, 6.82 1.36 M6.82 1.36 C6.43 1.22, 6.04 1.08, 5.22 0.78 M6.82 1.36 C6.41 1.21, 5.99 1.06, 5.22 0.78 M5.22 0.78 C4.84 0.69, 4.47 0.59, 3.54 0.35 M5.22 0.78 C4.85 0.69, 4.49 0.6, 3.54 0.35 M3.54 0.35 C2.89 0.26, 2.25 0.16, 1.8 0.09 M3.54 0.35 C3.14 0.29, 2.74 0.23, 1.8 0.09 M1.8 0.09 C1.19 0.06, 0.58 0.03, 0 0 M1.8 0.09 C1.1 0.05, 0.4 0.02, 0 0 M0 0 C0 0, 0 0, 0 0 M0 0 C0 0, 0 0, 0 0" stroke="#00000000" stroke-width="1" fill="none"></path></g></g><mask></mask><g stroke-linecap="round"><g transform="translate(743.0451146537744 272.0460387222081) rotate(0 -52.65449138355518 7.067735099772108)" fill-rule="evenodd"><path d="M0 0 L-2.15 -2.27 L-4.53 -4.31 L-5.79 -5.23 L-7.11 -6.09 L-8.48 -6.87 L-9.88 -7.59 L-11.34 -8.22 L-12.83 -8.79 L-14.35 -9.27 L-15.92 -9.67 L-17.51 -9.99 L-19.14 -10.22 L-20.79 -10.35 L-22.47 -10.4 L-105.31 -10.4 L-103.29 -6.6 L-101.02 -2.96 L-98.51 0.5 L-95.78 3.78 L-92.83 6.87 L-89.68 9.74 L-86.33 12.4 L-82.81 14.82 L-79.11 17.01 L-75.26 18.94 L-71.26 20.6 L-67.12 21.99 L-62.86 23.08 L-58.49 23.88 L-54.01 24.37 L-51.74 24.5 L-49.45 24.54 L-45.69 24.42 L-42 24.09 L-38.36 23.55 L-34.8 22.8 L-31.32 21.85 L-27.93 20.7 L-24.62 19.37 L-21.41 17.86 L-18.31 16.17 L-15.31 14.31 L-12.43 12.3 L-9.67 10.12 L-7.05 7.8 L-4.55 5.33 L-2.2 2.73 L0 0" stroke="none" stroke-width="0" fill="#3EBEB0" fill-rule="evenodd"></path><path d="M0 0 C-0.54 -0.57, -1.09 -1.15, -2.15 -2.27 M0 0 C-0.69 -0.73, -1.37 -1.45, -2.15 -2.27 M-2.15 -2.27 C-2.66 -2.71, -3.17 -3.14, -4.53 -4.31 M-2.15 -2.27 C-2.84 -2.86, -3.53 -3.45, -4.53 -4.31 M-4.53 -4.31 C-4.82 -4.52, -5.11 -4.74, -5.79 -5.23 M-4.53 -4.31 C-4.82 -4.52, -5.12 -4.74, -5.79 -5.23 M-5.79 -5.23 C-6.21 -5.5, -6.62 -5.77, -7.11 -6.09 M-5.79 -5.23 C-6.1 -5.43, -6.41 -5.63, -7.11 -6.09 M-7.11 -6.09 C-7.45 -6.28, -7.79 -6.48, -8.48 -6.87 M-7.11 -6.09 C-7.58 -6.36, -8.05 -6.63, -8.48 -6.87 M-8.48 -6.87 C-9 -7.14, -9.53 -7.4, -9.88 -7.59 M-8.48 -6.87 C-8.85 -7.06, -9.23 -7.25, -9.88 -7.59 M-9.88 -7.59 C-10.23 -7.74, -10.59 -7.89, -11.34 -8.22 M-9.88 -7.59 C-10.38 -7.8, -10.88 -8.02, -11.34 -8.22 M-11.34 -8.22 C-11.64 -8.34, -11.95 -8.46, -12.83 -8.79 M-11.34 -8.22 C-11.65 -8.34, -11.97 -8.46, -12.83 -8.79 M-12.83 -8.79 C-13.26 -8.92, -13.69 -9.06, -14.35 -9.27 M-12.83 -8.79 C-13.15 -8.89, -13.47 -8.99, -14.35 -9.27 M-14.35 -9.27 C-14.86 -9.4, -15.37 -9.53, -15.92 -9.67 M-14.35 -9.27 C-14.71 -9.36, -15.07 -9.45, -15.92 -9.67 M-15.92 -9.67 C-16.38 -9.76, -16.85 -9.85, -17.51 -9.99 M-15.92 -9.67 C-16.4 -9.77, -16.89 -9.86, -17.51 -9.99 M-17.51 -9.99 C-17.88 -10.04, -18.26 -10.09, -19.14 -10.22 M-17.51 -9.99 C-18 -10.06, -18.49 -10.12, -19.14 -10.22 M-19.14 -10.22 C-19.68 -10.26, -20.23 -10.31, -20.79 -10.35 M-19.14 -10.22 C-19.59 -10.25, -20.04 -10.29, -20.79 -10.35 M-20.79 -10.35 C-21.32 -10.37, -21.85 -10.38, -22.47 -10.4 M-20.79 -10.35 C-21.39 -10.37, -21.99 -10.39, -22.47 -10.4 M-22.47 -10.4 C-47.41 -10.4, -72.35 -10.4, -105.31 -10.4 M-22.47 -10.4 C-50.79 -10.4, -79.1 -10.4, -105.31 -10.4 M-105.31 -10.4 C-104.56 -8.99, -103.81 -7.58, -103.29 -6.6 M-105.31 -10.4 C-104.6 -9.07, -103.89 -7.73, -103.29 -6.6 M-103.29 -6.6 C-102.72 -5.69, -102.16 -4.78, -101.02 -2.96 M-103.29 -6.6 C-102.79 -5.8, -102.29 -5, -101.02 -2.96 M-101.02 -2.96 C-100.34 -2.01, -99.65 -1.07, -98.51 0.5 M-101.02 -2.96 C-100.09 -1.67, -99.15 -0.38, -98.51 0.5 M-98.51 0.5 C-97.8 1.37, -97.08 2.23, -95.78 3.78 M-98.51 0.5 C-97.96 1.16, -97.41 1.82, -95.78 3.78 M-95.78 3.78 C-94.91 4.69, -94.05 5.6, -92.83 6.87 M-95.78 3.78 C-94.77 4.84, -93.76 5.9, -92.83 6.87 M-92.83 6.87 C-91.66 7.93, -90.49 9, -89.68 9.74 M-92.83 6.87 C-92.01 7.62, -91.19 8.36, -89.68 9.74 M-89.68 9.74 C-88.35 10.8, -87.02 11.85, -86.33 12.4 M-89.68 9.74 C-88.62 10.58, -87.56 11.42, -86.33 12.4 M-86.33 12.4 C-85.47 13, -84.6 13.59, -82.81 14.82 M-86.33 12.4 C-85.08 13.26, -83.83 14.12, -82.81 14.82 M-82.81 14.82 C-81.56 15.56, -80.32 16.29, -79.11 17.01 M-82.81 14.82 C-81.4 15.65, -80 16.48, -79.11 17.01 M-79.11 17.01 C-77.95 17.59, -76.79 18.17, -75.26 18.94 M-79.11 17.01 C-77.85 17.64, -76.58 18.27, -75.26 18.94 M-75.26 18.94 C-73.81 19.54, -72.37 20.14, -71.26 20.6 M-75.26 18.94 C-73.84 19.52, -72.43 20.11, -71.26 20.6 M-71.26 20.6 C-69.63 21.15, -68 21.69, -67.12 21.99 M-71.26 20.6 C-70.42 20.88, -69.59 21.16, -67.12 21.99 M-67.12 21.99 C-65.8 22.33, -64.48 22.67, -62.86 23.08 M-67.12 21.99 C-65.89 22.3, -64.65 22.62, -62.86 23.08 M-62.86 23.08 C-61.45 23.34, -60.05 23.6, -58.49 23.88 M-62.86 23.08 C-61.62 23.31, -60.39 23.54, -58.49 23.88 M-58.49 23.88 C-57.07 24.04, -55.66 24.19, -54.01 24.37 M-58.49 23.88 C-56.81 24.07, -55.14 24.25, -54.01 24.37 M-54.01 24.37 C-53.27 24.41, -52.53 24.45, -51.74 24.5 M-54.01 24.37 C-53.42 24.4, -52.83 24.44, -51.74 24.5 M-51.74 24.5 C-51.05 24.51, -50.36 24.52, -49.45 24.54 M-51.74 24.5 C-51.22 24.5, -50.71 24.51, -49.45 24.54 M-49.45 24.54 C-47.99 24.49, -46.54 24.45, -45.69 24.42 M-49.45 24.54 C-48.29 24.5, -47.13 24.47, -45.69 24.42 M-45.69 24.42 C-44.64 24.33, -43.58 24.24, -42 24.09 M-45.69 24.42 C-44.23 24.29, -42.77 24.16, -42 24.09 M-42 24.09 C-40.78 23.91, -39.57 23.73, -38.36 23.55 M-42 24.09 C-40.61 23.89, -39.22 23.68, -38.36 23.55 M-38.36 23.55 C-37.39 23.34, -36.41 23.14, -34.8 22.8 M-38.36 23.55 C-37.42 23.35, -36.47 23.15, -34.8 22.8 M-34.8 22.8 C-33.66 22.49, -32.51 22.17, -31.32 21.85 M-34.8 22.8 C-33.7 22.5, -32.6 22.2, -31.32 21.85 M-31.32 21.85 C-30.07 21.42, -28.81 21, -27.93 20.7 M-31.32 21.85 C-30.11 21.44, -28.91 21.03, -27.93 20.7 M-27.93 20.7 C-26.65 20.19, -25.37 19.67, -24.62 19.37 M-27.93 20.7 C-26.82 20.26, -25.71 19.81, -24.62 19.37 M-24.62 19.37 C-23.77 18.97, -22.92 18.57, -21.41 17.86 M-24.62 19.37 C-23.93 19.05, -23.24 18.72, -21.41 17.86 M-21.41 17.86 C-20.62 17.43, -19.82 17, -18.31 16.17 M-21.41 17.86 C-20.36 17.28, -19.3 16.71, -18.31 16.17 M-18.31 16.17 C-17.27 15.53, -16.24 14.89, -15.31 14.31 M-18.31 16.17 C-17.34 15.57, -16.37 14.97, -15.31 14.31 M-15.31 14.31 C-14.36 13.65, -13.41 12.98, -12.43 12.3 M-15.31 14.31 C-14.68 13.87, -14.05 13.43, -12.43 12.3 M-12.43 12.3 C-11.37 11.46, -10.3 10.62, -9.67 10.12 M-12.43 12.3 C-11.33 11.43, -10.23 10.56, -9.67 10.12 M-9.67 10.12 C-8.77 9.32, -7.86 8.52, -7.05 7.8 M-9.67 10.12 C-8.78 9.34, -7.89 8.55, -7.05 7.8 M-7.05 7.8 C-6.4 7.16, -5.76 6.52, -4.55 5.33 M-7.05 7.8 C-6.33 7.09, -5.61 6.38, -4.55 5.33 M-4.55 5.33 C-3.9 4.61, -3.24 3.88, -2.2 2.73 M-4.55 5.33 C-3.96 4.67, -3.36 4.01, -2.2 2.73 M-2.2 2.73 C-1.71 2.12, -1.21 1.5, 0 0 M-2.2 2.73 C-1.6 1.99, -1 1.24, 0 0 M0 0 C0 0, 0 0, 0 0 M0 0 C0 0, 0 0, 0 0" stroke="#00000000" stroke-width="1" fill="none"></path></g></g><mask></mask><g stroke-linecap="round"><g transform="translate(633.9931538460951 217.0019336322573) rotate(0 25.733383657070817 17.468989651595393)" fill-rule="evenodd"><path d="M0 0 L-1.08 4.21 L-1.86 8.54 L-2.34 12.96 L-2.47 15.2 L-2.51 17.47 L-2.47 19.73 L-2.34 21.98 L-1.86 26.4 L-1.08 30.72 L0 34.94 L51.84 34.94 L52.75 30.9 L53.42 26.64 L53.66 24.43 L53.83 22.16 L53.94 19.84 L53.97 17.47 L53.94 15.09 L53.83 12.77 L53.66 10.51 L53.42 8.3 L52.75 4.04 L51.84 0 L0 0" stroke="none" stroke-width="0" fill="#231F20" fill-rule="evenodd"></path><path d="M0 0 C-0.3 1.16, -0.59 2.32, -1.08 4.21 M0 0 C-0.34 1.34, -0.68 2.68, -1.08 4.21 M-1.08 4.21 C-1.32 5.57, -1.57 6.92, -1.86 8.54 M-1.08 4.21 C-1.28 5.32, -1.48 6.42, -1.86 8.54 M-1.86 8.54 C-2.03 10.03, -2.19 11.53, -2.34 12.96 M-1.86 8.54 C-1.98 9.63, -2.1 10.72, -2.34 12.96 M-2.34 12.96 C-2.38 13.65, -2.42 14.33, -2.47 15.2 M-2.34 12.96 C-2.38 13.59, -2.41 14.22, -2.47 15.2 M-2.47 15.2 C-2.48 15.8, -2.49 16.4, -2.51 17.47 M-2.47 15.2 C-2.48 16.01, -2.5 16.81, -2.51 17.47 M-2.51 17.47 C-2.5 17.98, -2.49 18.49, -2.47 19.73 M-2.51 17.47 C-2.5 18.04, -2.49 18.62, -2.47 19.73 M-2.47 19.73 C-2.43 20.49, -2.38 21.25, -2.34 21.98 M-2.47 19.73 C-2.44 20.24, -2.41 20.74, -2.34 21.98 M-2.34 21.98 C-2.17 23.59, -1.99 25.19, -1.86 26.4 M-2.34 21.98 C-2.17 23.57, -2 25.17, -1.86 26.4 M-1.86 26.4 C-1.67 27.43, -1.49 28.47, -1.08 30.72 M-1.86 26.4 C-1.65 27.58, -1.43 28.75, -1.08 30.72 M-1.08 30.72 C-0.69 32.23, -0.31 33.74, 0 34.94 M-1.08 30.72 C-0.78 31.86, -0.49 33.01, 0 34.94 M0 34.94 C17.38 34.94, 34.75 34.94, 51.84 34.94 M0 34.94 C12.67 34.94, 25.34 34.94, 51.84 34.94 M51.84 34.94 C52.1 33.79, 52.36 32.64, 52.75 30.9 M51.84 34.94 C52.05 33.98, 52.27 33.03, 52.75 30.9 M52.75 30.9 C53.01 29.24, 53.27 27.59, 53.42 26.64 M52.75 30.9 C52.96 29.52, 53.18 28.15, 53.42 26.64 M53.42 26.64 C53.5 25.83, 53.59 25.02, 53.66 24.43 M53.42 26.64 C53.51 25.77, 53.61 24.91, 53.66 24.43 M53.66 24.43 C53.7 23.86, 53.75 23.29, 53.83 22.16 M53.66 24.43 C53.7 23.93, 53.73 23.43, 53.83 22.16 M53.83 22.16 C53.86 21.55, 53.89 20.94, 53.94 19.84 M53.83 22.16 C53.86 21.57, 53.89 20.98, 53.94 19.84 M53.94 19.84 C53.95 18.96, 53.97 18.07, 53.97 17.47 M53.94 19.84 C53.95 19.17, 53.96 18.49, 53.97 17.47 M53.97 17.47 C53.96 16.56, 53.95 15.65, 53.94 15.09 M53.97 17.47 C53.97 16.93, 53.96 16.39, 53.94 15.09 M53.94 15.09 C53.91 14.42, 53.88 13.75, 53.83 12.77 M53.94 15.09 C53.9 14.18, 53.85 13.26, 53.83 12.77 M53.83 12.77 C53.77 11.94, 53.7 11.1, 53.66 10.51 M53.83 12.77 C53.78 12.12, 53.73 11.47, 53.66 10.51 M53.66 10.51 C53.58 9.77, 53.5 9.04, 53.42 8.3 M53.66 10.51 C53.59 9.93, 53.53 9.35, 53.42 8.3 M53.42 8.3 C53.27 7.4, 53.13 6.5, 52.75 4.04 M53.42 8.3 C53.21 6.99, 53 5.67, 52.75 4.04 M52.75 4.04 C52.45 2.73, 52.16 1.43, 51.84 0 M52.75 4.04 C52.45 2.7, 52.14 1.35, 51.84 0 M51.84 0 C34.08 0, 16.31 0, 0 0 M51.84 0 C34.52 0, 17.19 0, 0 0 M0 0 C0 0, 0 0, 0 0 M0 0 C0 0, 0 0, 0 0" stroke="#00000000" stroke-width="1" fill="none"></path></g></g><mask></mask><g stroke-linecap="round"><g transform="translate(662.3470705812169 180.70518581279225) rotate(0 -1.7470523610616056 13.295936629886455)" fill-rule="evenodd"><path d="M0 0 L-3.85 2.47 L-7.51 5.22 L-10.97 8.23 L-14.22 11.48 L-17.23 14.95 L-19.98 18.64 L-21.26 20.56 L-22.46 22.53 L-23.59 24.54 L-24.65 26.59 L21.16 26.59 L19.28 22.67 L17.17 18.92 L14.82 15.33 L12.25 11.91 L9.47 8.67 L6.5 5.6 L3.34 2.71 L0 0" stroke="none" stroke-width="0" fill="#D7A229" fill-rule="evenodd"></path><path d="M0 0 C-1.01 0.65, -2.01 1.29, -3.85 2.47 M0 0 C-1.36 0.87, -2.71 1.74, -3.85 2.47 M-3.85 2.47 C-4.71 3.12, -5.57 3.77, -7.51 5.22 M-3.85 2.47 C-4.8 3.18, -5.75 3.9, -7.51 5.22 M-7.51 5.22 C-8.21 5.83, -8.91 6.44, -10.97 8.23 M-7.51 5.22 C-8.85 6.39, -10.2 7.56, -10.97 8.23 M-10.97 8.23 C-11.66 8.91, -12.34 9.6, -14.22 11.48 M-10.97 8.23 C-12.08 9.34, -13.19 10.45, -14.22 11.48 M-14.22 11.48 C-14.86 12.22, -15.51 12.97, -17.23 14.95 M-14.22 11.48 C-15.01 12.39, -15.8 13.31, -17.23 14.95 M-17.23 14.95 C-17.92 15.88, -18.61 16.8, -19.98 18.64 M-17.23 14.95 C-18.1 16.13, -18.98 17.31, -19.98 18.64 M-19.98 18.64 C-20.37 19.23, -20.77 19.82, -21.26 20.56 M-19.98 18.64 C-20.33 19.16, -20.67 19.69, -21.26 20.56 M-21.26 20.56 C-21.62 21.15, -21.98 21.74, -22.46 22.53 M-21.26 20.56 C-21.69 21.28, -22.13 21.99, -22.46 22.53 M-22.46 22.53 C-22.84 23.2, -23.22 23.88, -23.59 24.54 M-22.46 22.53 C-22.79 23.11, -23.12 23.7, -23.59 24.54 M-23.59 24.54 C-23.9 25.14, -24.22 25.75, -24.65 26.59 M-23.59 24.54 C-23.89 25.12, -24.19 25.7, -24.65 26.59 M-24.65 26.59 C-11.2 26.59, 2.24 26.59, 21.16 26.59 M-24.65 26.59 C-11.85 26.59, 0.95 26.59, 21.16 26.59 M21.16 26.59 C20.66 25.56, 20.17 24.52, 19.28 22.67 M21.16 26.59 C20.76 25.76, 20.36 24.92, 19.28 22.67 M19.28 22.67 C18.82 21.85, 18.36 21.03, 17.17 18.92 M19.28 22.67 C18.48 21.24, 17.67 19.81, 17.17 18.92 M17.17 18.92 C16.63 18.09, 16.09 17.27, 14.82 15.33 M17.17 18.92 C16.4 17.74, 15.63 16.57, 14.82 15.33 M14.82 15.33 C14.07 14.33, 13.32 13.34, 12.25 11.91 M14.82 15.33 C14.25 14.58, 13.69 13.82, 12.25 11.91 M12.25 11.91 C11.41 10.93, 10.57 9.95, 9.47 8.67 M12.25 11.91 C11.34 10.84, 10.42 9.77, 9.47 8.67 M9.47 8.67 C8.49 7.65, 7.5 6.63, 6.5 5.6 M9.47 8.67 C8.86 8.04, 8.25 7.4, 6.5 5.6 M6.5 5.6 C5.26 4.47, 4.02 3.34, 3.34 2.71 M6.5 5.6 C5.37 4.57, 4.24 3.53, 3.34 2.71 M3.34 2.71 C2.31 1.88, 1.29 1.05, 0 0 M3.34 2.71 C2.57 2.09, 1.8 1.47, 0 0 M0 0 C0 0, 0 0, 0 0 M0 0 C0 0, 0 0, 0 0" stroke="#00000000" stroke-width="1" fill="none"></path></g></g><mask></mask><g stroke-linecap="round"><g transform="translate(664.2880893799265 289.2071028279713) rotate(0 -3.0086422252335296 -13.78118093970329)" fill-rule="evenodd"><path d="M0 0 L3.26 -2.8 L6.35 -5.81 L9.26 -9.01 L11.96 -12.4 L14.46 -15.96 L16.73 -19.68 L18.77 -23.55 L20.57 -27.56 L-26.59 -27.56 L-25.46 -25.4 L-24.25 -23.29 L-22.96 -21.23 L-21.59 -19.22 L-20.15 -17.26 L-18.64 -15.36 L-17.06 -13.52 L-15.41 -11.74 L-13.69 -10.03 L-11.91 -8.38 L-10.07 -6.8 L-8.17 -5.29 L-6.21 -3.85 L-4.19 -2.49 L-2.12 -1.21 L0 0" stroke="none" stroke-width="0" fill="#019B8F" fill-rule="evenodd"></path><path d="M0 0 C0.78 -0.67, 1.57 -1.35, 3.26 -2.8 M0 0 C0.91 -0.78, 1.81 -1.56, 3.26 -2.8 M3.26 -2.8 C4.33 -3.84, 5.39 -4.87, 6.35 -5.81 M3.26 -2.8 C4.23 -3.74, 5.2 -4.69, 6.35 -5.81 M6.35 -5.81 C7.41 -6.97, 8.46 -8.13, 9.26 -9.01 M6.35 -5.81 C7.34 -6.9, 8.33 -7.99, 9.26 -9.01 M9.26 -9.01 C10.02 -9.96, 10.78 -10.91, 11.96 -12.4 M9.26 -9.01 C10.28 -10.29, 11.29 -11.56, 11.96 -12.4 M11.96 -12.4 C12.73 -13.5, 13.5 -14.6, 14.46 -15.96 M11.96 -12.4 C12.5 -13.16, 13.03 -13.93, 14.46 -15.96 M14.46 -15.96 C15.26 -17.27, 16.06 -18.59, 16.73 -19.68 M14.46 -15.96 C14.92 -16.72, 15.39 -17.48, 16.73 -19.68 M16.73 -19.68 C17.53 -21.19, 18.32 -22.69, 18.77 -23.55 M16.73 -19.68 C17.41 -20.96, 18.08 -22.23, 18.77 -23.55 M18.77 -23.55 C19.37 -24.88, 19.97 -26.21, 20.57 -27.56 M18.77 -23.55 C19.46 -25.09, 20.15 -26.62, 20.57 -27.56 M20.57 -27.56 C10.79 -27.56, 1.01 -27.56, -26.59 -27.56 M20.57 -27.56 C8.82 -27.56, -2.93 -27.56, -26.59 -27.56 M-26.59 -27.56 C-26.33 -27.07, -26.08 -26.58, -25.46 -25.4 M-26.59 -27.56 C-26.28 -26.96, -25.96 -26.36, -25.46 -25.4 M-25.46 -25.4 C-25.02 -24.64, -24.59 -23.88, -24.25 -23.29 M-25.46 -25.4 C-25.01 -24.62, -24.56 -23.84, -24.25 -23.29 M-24.25 -23.29 C-23.73 -22.47, -23.22 -21.65, -22.96 -21.23 M-24.25 -23.29 C-23.8 -22.58, -23.36 -21.87, -22.96 -21.23 M-22.96 -21.23 C-22.5 -20.55, -22.04 -19.88, -21.59 -19.22 M-22.96 -21.23 C-22.65 -20.78, -22.35 -20.33, -21.59 -19.22 M-21.59 -19.22 C-21.25 -18.75, -20.9 -18.28, -20.15 -17.26 M-21.59 -19.22 C-21.29 -18.81, -20.99 -18.4, -20.15 -17.26 M-20.15 -17.26 C-19.83 -16.85, -19.5 -16.45, -18.64 -15.36 M-20.15 -17.26 C-19.6 -16.56, -19.04 -15.87, -18.64 -15.36 M-18.64 -15.36 C-18.18 -14.83, -17.73 -14.3, -17.06 -13.52 M-18.64 -15.36 C-18.02 -14.64, -17.4 -13.92, -17.06 -13.52 M-17.06 -13.52 C-16.45 -12.87, -15.84 -12.21, -15.41 -11.74 M-17.06 -13.52 C-16.56 -12.99, -16.07 -12.46, -15.41 -11.74 M-15.41 -11.74 C-14.84 -11.18, -14.28 -10.62, -13.69 -10.03 M-15.41 -11.74 C-14.73 -11.07, -14.06 -10.4, -13.69 -10.03 M-13.69 -10.03 C-13.04 -9.43, -12.4 -8.83, -11.91 -8.38 M-13.69 -10.03 C-13.07 -9.46, -12.46 -8.89, -11.91 -8.38 M-11.91 -8.38 C-11.39 -7.94, -10.88 -7.49, -10.07 -6.8 M-11.91 -8.38 C-11.19 -7.76, -10.48 -7.15, -10.07 -6.8 M-10.07 -6.8 C-9.58 -6.41, -9.09 -6.02, -8.17 -5.29 M-10.07 -6.8 C-9.36 -6.24, -8.66 -5.68, -8.17 -5.29 M-8.17 -5.29 C-7.55 -4.84, -6.94 -4.39, -6.21 -3.85 M-8.17 -5.29 C-7.48 -4.79, -6.8 -4.29, -6.21 -3.85 M-6.21 -3.85 C-5.61 -3.45, -5.01 -3.05, -4.19 -2.49 M-6.21 -3.85 C-5.68 -3.49, -5.14 -3.13, -4.19 -2.49 M-4.19 -2.49 C-3.5 -2.06, -2.81 -1.63, -2.12 -1.21 M-4.19 -2.49 C-3.53 -2.08, -2.87 -1.67, -2.12 -1.21 M-2.12 -1.21 C-1.65 -0.94, -1.17 -0.67, 0 0 M-2.12 -1.21 C-1.58 -0.9, -1.05 -0.59, 0 0 M0 0 C0 0, 0 0, 0 0 M0 0 C0 0, 0 0, 0 0" stroke="#00000000" stroke-width="1" fill="none"></path></g></g><mask></mask><g stroke-linecap="round"><g transform="translate(853.5792656098547 365.0329547805404) rotate(0 42.68583962609307 10.252974667278295)" fill-rule="evenodd"><path d="M0 0 L11.28 0.73 L22.15 2.82 L32.51 6.18 L42.27 10.67 L87.05 -43.1 L-1.67 -43.1 L-1.67 63.61 L-1.67 0 L0 0" stroke="none" stroke-width="0" fill="#e9478b" fill-rule="evenodd"></path><path d="M0 0 C4.25 0.27, 8.51 0.55, 11.28 0.73 M0 0 C3.22 0.21, 6.43 0.41, 11.28 0.73 M11.28 0.73 C14.14 1.28, 17 1.83, 22.15 2.82 M11.28 0.73 C14.52 1.35, 17.75 1.97, 22.15 2.82 M22.15 2.82 C24.61 3.62, 27.07 4.42, 32.51 6.18 M22.15 2.82 C25.04 3.76, 27.93 4.7, 32.51 6.18 M32.51 6.18 C36.14 7.85, 39.77 9.52, 42.27 10.67 M32.51 6.18 C36.07 7.82, 39.63 9.46, 42.27 10.67 M42.27 10.67 C59.26 -9.73, 76.25 -30.14, 87.05 -43.1 M42.27 10.67 C51.35 -0.24, 60.44 -11.15, 87.05 -43.1 M87.05 -43.1 C53.04 -43.1, 19.03 -43.1, -1.67 -43.1 M87.05 -43.1 C66.67 -43.1, 46.29 -43.1, -1.67 -43.1 M-1.67 -43.1 C-1.67 -1.32, -1.67 40.46, -1.67 63.61 M-1.67 -43.1 C-1.67 -16.45, -1.67 10.2, -1.67 63.61 M-1.67 63.61 C-1.67 46.58, -1.67 29.55, -1.67 0 M-1.67 63.61 C-1.67 43.67, -1.67 23.73, -1.67 0 M-1.67 0 C-1.33 0, -0.99 0, 0 0 M-1.67 0 C-1.18 0, -0.69 0, 0 0 M0 0 C0 0, 0 0, 0 0 M0 0 C0 0, 0 0, 0 0" stroke="#00000000" stroke-width="1" fill="none"></path></g></g><mask></mask><g stroke-linecap="round"><g transform="translate(895.8466150079298 375.7044196758361) rotate(0 0.313865675504303 30.654291467283997)" fill-rule="evenodd"><path d="M0 0 L-43.94 52.94 L-43.94 61.31 L44.57 61.31 L42.15 51.62 L38.69 42.37 L34.27 33.63 L28.95 25.48 L22.8 17.96 L15.88 11.17 L8.26 5.16 L0 0" stroke="none" stroke-width="0" fill="#3ebeb0" fill-rule="evenodd"></path><path d="M0 0 C-15.1 18.2, -30.21 36.4, -43.94 52.94 M0 0 C-12.66 15.26, -25.33 30.51, -43.94 52.94 M-43.94 52.94 C-43.94 55.77, -43.94 58.6, -43.94 61.31 M-43.94 52.94 C-43.94 54.94, -43.94 56.94, -43.94 61.31 M-43.94 61.31 C-18.13 61.31, 7.68 61.31, 44.57 61.31 M-43.94 61.31 C-21.42 61.31, 1.1 61.31, 44.57 61.31 M44.57 61.31 C44.06 59.28, 43.56 57.25, 42.15 51.62 M44.57 61.31 C43.62 57.5, 42.67 53.7, 42.15 51.62 M42.15 51.62 C41.28 49.3, 40.41 46.97, 38.69 42.37 M42.15 51.62 C41.26 49.24, 40.37 46.86, 38.69 42.37 M38.69 42.37 C37.78 40.57, 36.87 38.77, 34.27 33.63 M38.69 42.37 C37.04 39.09, 35.38 35.82, 34.27 33.63 M34.27 33.63 C32.89 31.51, 31.5 29.38, 28.95 25.48 M34.27 33.63 C32.81 31.38, 31.34 29.13, 28.95 25.48 M28.95 25.48 C27.26 23.41, 25.57 21.34, 22.8 17.96 M28.95 25.48 C27.3 23.45, 25.64 21.43, 22.8 17.96 M22.8 17.96 C20.37 15.58, 17.94 13.19, 15.88 11.17 M22.8 17.96 C20.57 15.77, 18.34 13.58, 15.88 11.17 M15.88 11.17 C13.55 9.33, 11.22 7.49, 8.26 5.16 M15.88 11.17 C14.05 9.72, 12.21 8.28, 8.26 5.16 M8.26 5.16 C6.24 3.9, 4.22 2.64, 0 0 M8.26 5.16 C5.43 3.39, 2.61 1.63, 0 0 M0 0 C0 0, 0 0, 0 0 M0 0 C0 0, 0 0, 0 0" stroke="#00000000" stroke-width="1" fill="none"></path></g></g><mask></mask><g stroke-linecap="round"><g transform="translate(895.8466150079298 375.7044196758361) rotate(0 -14.751722667871604 30.654291467283997)" fill-rule="evenodd"><path d="M0 0 L-43.94 52.94 L-43.94 61.31 L-28.25 61.31 L14.44 9.83 L12.48 8.32 L10.29 6.66 L7.53 4.6 L2.67 1.52 L0.77 0.43" stroke="none" stroke-width="0" fill="#37a595" fill-rule="evenodd"></path><path d="M0 0 C-16.74 20.17, -33.49 40.34, -43.94 52.94 M0 0 C-9.15 11.02, -18.29 22.04, -43.94 52.94 M-43.94 52.94 C-43.94 54.7, -43.94 56.47, -43.94 61.31 M-43.94 52.94 C-43.94 55.46, -43.94 57.99, -43.94 61.31 M-43.94 61.31 C-39.13 61.31, -34.31 61.31, -28.25 61.31 M-43.94 61.31 C-39.49 61.31, -35.03 61.31, -28.25 61.31 M-28.25 61.31 C-13.17 43.13, 1.9 24.95, 14.44 9.83 M-28.25 61.31 C-18.09 49.06, -7.94 36.82, 14.44 9.83 M14.44 9.83 C14.03 9.52, 13.63 9.21, 12.48 8.32 M14.44 9.83 C13.8 9.34, 13.16 8.84, 12.48 8.32 M12.48 8.32 C11.9 7.88, 11.32 7.44, 10.29 6.66 M12.48 8.32 C11.89 7.87, 11.3 7.42, 10.29 6.66 M10.29 6.66 C9.34 5.95, 8.4 5.25, 7.53 4.6 M10.29 6.66 C9.39 5.99, 8.49 5.32, 7.53 4.6 M7.53 4.6 C6.35 3.85, 5.17 3.1, 2.67 1.52 M7.53 4.6 C5.75 3.47, 3.96 2.33, 2.67 1.52 M2.67 1.52 C2.24 1.27, 1.82 1.03, 0.77 0.43 M2.67 1.52 C2.18 1.24, 1.69 0.95, 0.77 0.43 M0.77 0.43 C0.48 0.26, 0.19 0.1, 0 0 M0.77 0.43 C0.51 0.28, 0.26 0.14, 0 0" stroke="#00000000" stroke-width="1" fill="none"></path></g></g><mask></mask><g stroke-linecap="round"><g transform="translate(853.5792656098547 365.0329547805404) rotate(0 20.29669623851032 31.805137598824672)" fill-rule="evenodd"><path d="M0 0 L-1.67 0 L-1.67 63.61 L42.27 10.67 L32.51 6.18 L22.15 2.82 L11.28 0.73 L0 0" stroke="none" stroke-width="0" fill="#353535" fill-rule="evenodd"></path><path d="M0 0 C-0.44 0, -0.89 0, -1.67 0 M0 0 C-0.6 0, -1.19 0, -1.67 0 M-1.67 0 C-1.67 17.73, -1.67 35.46, -1.67 63.61 M-1.67 0 C-1.67 17.07, -1.67 34.15, -1.67 63.61 M-1.67 63.61 C13.35 45.52, 28.36 27.42, 42.27 10.67 M-1.67 63.61 C12.85 46.12, 27.36 28.63, 42.27 10.67 M42.27 10.67 C39.68 9.48, 37.08 8.28, 32.51 6.18 M42.27 10.67 C39.8 9.53, 37.33 8.4, 32.51 6.18 M32.51 6.18 C28.9 5.01, 25.29 3.84, 22.15 2.82 M32.51 6.18 C29.8 5.3, 27.08 4.42, 22.15 2.82 M22.15 2.82 C19.46 2.3, 16.76 1.78, 11.28 0.73 M22.15 2.82 C19.17 2.25, 16.18 1.67, 11.28 0.73 M11.28 0.73 C7.32 0.47, 3.36 0.22, 0 0 M11.28 0.73 C7 0.45, 2.71 0.17, 0 0 M0 0 C0 0, 0 0, 0 0 M0 0 C0 0, 0 0, 0 0" stroke="#00000000" stroke-width="1" fill="none"></path></g></g><mask></mask><g transform="translate(774.4351053122418 303.4708157639261) rotate(0 31.829999923706055 12.5)"><text x="31.829999923706055" y="0" font-family="Virgil, Segoe UI Emoji" font-size="20px" fill="#000000" text-anchor="middle" style="white-space: pre;" direction="ltr" dominant-baseline="text-before-edge">search</text></g><g transform="translate(625.3750982169049 298.4708157639261) rotate(0 64.89000701904297 25)"><text x="64.89000701904297" y="0" font-family="Virgil, Segoe UI Emoji" font-size="20px" fill="#000000" text-anchor="middle" style="white-space: pre;" direction="ltr" dominant-baseline="text-before-edge">elasticsearch</text><text x="64.89000701904297" y="25" font-family="Virgil, Segoe UI Emoji" font-size="20px" fill="#000000" text-anchor="middle" style="white-space: pre;" direction="ltr" dominant-baseline="text-before-edge">cluster</text></g><g stroke-linecap="round"><g transform="translate(852.2651052359479 59.82893755186524) rotate(0 -58.19236130453646 79.84840782648143)"><path d="M-3.67 0.5 C-29.22 39.3, -61.74 87.51, -112.03 159.15 M-1.78 -0.89 C-25.66 36.23, -52.44 74.6, -114.6 160.59" stroke="#000000" stroke-width="1" fill="none"></path></g><g transform="translate(852.2651052359479 59.82893755186524) rotate(0 -58.19236130453646 79.84840782648143)"><path d="M-110.16 132.22 C-106.5 136.87, -110.13 149.12, -112.63 159.1 M-108.27 130.82 C-108.58 137.58, -110.79 145.38, -115.2 160.54" stroke="#000000" stroke-width="1" fill="none"></path></g><g transform="translate(852.2651052359479 59.82893755186524) rotate(0 -58.19236130453646 79.84840782648143)"><path d="M-93.49 144.19 C-94.35 145.29, -102.53 154.28, -112.63 159.1 M-91.6 142.79 C-95.87 146.74, -101.95 151.76, -115.2 160.54" stroke="#000000" stroke-width="1" fill="none"></path></g></g><mask></mask><g stroke-linecap="round"><g transform="translate(850.2651052359479 369.4708157639261) rotate(0 -57.724327843636274 -66.01935031078756)"><path d="M2.27 -2.58 C-21.38 -25.76, -44.89 -56.88, -117.72 -128.48 M-0.43 -0.81 C-31.75 -38.41, -64.91 -76.39, -113.69 -131.22" stroke="#000000" stroke-width="1" fill="none"></path></g><g transform="translate(850.2651052359479 369.4708157639261) rotate(0 -57.724327843636274 -66.01935031078756)"><path d="M-85.05 -119.5 C-91.85 -118.13, -96.38 -124.47, -116.41 -129.7 M-87.75 -117.73 C-95.46 -121.02, -102.94 -125.49, -112.38 -132.45" stroke="#000000" stroke-width="1" fill="none"></path></g><g transform="translate(850.2651052359479 369.4708157639261) rotate(0 -57.724327843636274 -66.01935031078756)"><path d="M-100.41 -105.9 C-103.67 -107.48, -104.91 -116.73, -116.41 -129.7 M-103.11 -104.13 C-106.13 -111.22, -109.16 -119.63, -112.38 -132.45" stroke="#000000" stroke-width="1" fill="none"></path></g></g><mask></mask><g transform="translate(760.4351053122418 119.47081576392611) rotate(0 31.829999923706055 12.5)"><text x="31.829999923706055" y="0" font-family="Virgil, Segoe UI Emoji" font-size="20px" fill="#000000" text-anchor="middle" style="white-space: pre;" direction="ltr" dominant-baseline="text-before-edge">search</text></g><g stroke-linecap="round"><g transform="translate(117.69250789754983 410.26676143387454) rotate(0 -1.4415383697295852 -28.830767394591817)" fill-rule="evenodd"><path d="M0 0 L-31.71 0 L-31.71 -57.66 L0 -57.66 L5.81 -57.08 L11.22 -55.4 L16.12 -52.74 L20.39 -49.22 L23.91 -44.95 L26.56 -40.05 L28.24 -34.64 L28.83 -28.83 L28.24 -23.02 L26.56 -17.61 L23.91 -12.71 L20.39 -8.45 L16.12 -4.92 L11.22 -2.27 L5.81 -0.59 L0 0" stroke="none" stroke-width="0" fill="#0080D5" fill-rule="evenodd"></path><path d="M0 0 C-9.87 0, -19.73 0, -31.71 0 M0 0 C-7.65 0, -15.29 0, -31.71 0 M-31.71 0 C-31.71 -15.42, -31.71 -30.84, -31.71 -57.66 M-31.71 0 C-31.71 -11.58, -31.71 -23.16, -31.71 -57.66 M-31.71 -57.66 C-22.38 -57.66, -13.05 -57.66, 0 -57.66 M-31.71 -57.66 C-21.07 -57.66, -10.43 -57.66, 0 -57.66 M0 -57.66 C2.12 -57.45, 4.25 -57.23, 5.81 -57.08 M0 -57.66 C1.59 -57.5, 3.17 -57.34, 5.81 -57.08 M5.81 -57.08 C6.93 -56.73, 8.06 -56.38, 11.22 -55.4 M5.81 -57.08 C7.11 -56.67, 8.41 -56.27, 11.22 -55.4 M11.22 -55.4 C12.55 -54.67, 13.88 -53.95, 16.12 -52.74 M11.22 -55.4 C12.89 -54.49, 14.55 -53.59, 16.12 -52.74 M16.12 -52.74 C16.99 -52.02, 17.86 -51.3, 20.39 -49.22 M16.12 -52.74 C17.53 -51.57, 18.95 -50.4, 20.39 -49.22 M20.39 -49.22 C21.16 -48.27, 21.94 -47.33, 23.91 -44.95 M20.39 -49.22 C21.47 -47.91, 22.54 -46.6, 23.91 -44.95 M23.91 -44.95 C24.91 -43.1, 25.92 -41.24, 26.56 -40.05 M23.91 -44.95 C24.62 -43.63, 25.34 -42.31, 26.56 -40.05 M26.56 -40.05 C27.14 -38.19, 27.72 -36.33, 28.24 -34.64 M26.56 -40.05 C26.92 -38.9, 27.28 -37.75, 28.24 -34.64 M28.24 -34.64 C28.4 -33.08, 28.56 -31.51, 28.83 -28.83 M28.24 -34.64 C28.42 -32.92, 28.59 -31.2, 28.83 -28.83 M28.83 -28.83 C28.62 -26.73, 28.41 -24.63, 28.24 -23.02 M28.83 -28.83 C28.64 -26.92, 28.45 -25.02, 28.24 -23.02 M28.24 -23.02 C27.65 -21.1, 27.05 -19.17, 26.56 -17.61 M28.24 -23.02 C27.68 -21.19, 27.11 -19.36, 26.56 -17.61 M26.56 -17.61 C25.8 -16.21, 25.04 -14.81, 23.91 -12.71 M26.56 -17.61 C25.88 -16.34, 25.19 -15.07, 23.91 -12.71 M23.91 -12.71 C22.64 -11.18, 21.38 -9.65, 20.39 -8.45 M23.91 -12.71 C22.84 -11.42, 21.77 -10.13, 20.39 -8.45 M20.39 -8.45 C19.01 -7.31, 17.62 -6.17, 16.12 -4.92 M20.39 -8.45 C19.36 -7.6, 18.32 -6.74, 16.12 -4.92 M16.12 -4.92 C14.43 -4.01, 12.75 -3.1, 11.22 -2.27 M16.12 -4.92 C14.25 -3.91, 12.38 -2.89, 11.22 -2.27 M11.22 -2.27 C9.21 -1.64, 7.2 -1.02, 5.81 -0.59 M11.22 -2.27 C9.89 -1.85, 8.56 -1.44, 5.81 -0.59 M5.81 -0.59 C4.55 -0.46, 3.29 -0.33, 0 0 M5.81 -0.59 C3.79 -0.38, 1.76 -0.18, 0 0 M0 0 C0 0, 0 0, 0 0 M0 0 C0 0, 0 0, 0 0" stroke="#00000000" stroke-width="1" fill="none"></path></g></g><mask></mask><g stroke-linecap="round"><g transform="translate(151.4305623835926 397.65041645620636) rotate(0 -29.41315205240727 23.606632925589224)" fill-rule="evenodd"><path d="M0 0 L-2.58 4.52 L-5.74 8.62 L-9.42 12.25 L-13.57 15.34 L-18.13 17.85 L-23.05 19.71 L-28.27 20.87 L-33.74 21.27 L-65.45 21.27 L-65.45 47.21 L-22.21 47.21 L-16.4 46.63 L-10.98 44.95 L-6.09 42.29 L-1.82 38.77 L1.7 34.5 L4.36 29.6 L6.04 24.19 L6.63 18.38 L6.17 13.26 L4.86 8.44 L2.78 3.99 L0 0" stroke="none" stroke-width="0" fill="#00C2B3" fill-rule="evenodd"></path><path d="M0 0 C-0.6 1.04, -1.19 2.09, -2.58 4.52 M0 0 C-0.96 1.69, -1.93 3.38, -2.58 4.52 M-2.58 4.52 C-3.75 6.04, -4.92 7.56, -5.74 8.62 M-2.58 4.52 C-3.8 6.1, -5.02 7.68, -5.74 8.62 M-5.74 8.62 C-6.87 9.74, -8.01 10.85, -9.42 12.25 M-5.74 8.62 C-7.19 10.05, -8.64 11.48, -9.42 12.25 M-9.42 12.25 C-10.61 13.13, -11.8 14.02, -13.57 15.34 M-9.42 12.25 C-10.3 12.9, -11.18 13.56, -13.57 15.34 M-13.57 15.34 C-14.57 15.89, -15.56 16.44, -18.13 17.85 M-13.57 15.34 C-14.86 16.05, -16.15 16.76, -18.13 17.85 M-18.13 17.85 C-19.89 18.51, -21.64 19.17, -23.05 19.71 M-18.13 17.85 C-19.43 18.34, -20.73 18.83, -23.05 19.71 M-23.05 19.71 C-24.44 20.02, -25.82 20.32, -28.27 20.87 M-23.05 19.71 C-24.63 20.06, -26.21 20.41, -28.27 20.87 M-28.27 20.87 C-29.88 20.98, -31.48 21.1, -33.74 21.27 M-28.27 20.87 C-29.42 20.95, -30.58 21.03, -33.74 21.27 M-33.74 21.27 C-44.69 21.27, -55.65 21.27, -65.45 21.27 M-33.74 21.27 C-44.82 21.27, -55.91 21.27, -65.45 21.27 M-65.45 21.27 C-65.45 30.41, -65.45 39.56, -65.45 47.21 M-65.45 21.27 C-65.45 26.51, -65.45 31.76, -65.45 47.21 M-65.45 47.21 C-54.79 47.21, -44.13 47.21, -22.21 47.21 M-65.45 47.21 C-54.45 47.21, -43.45 47.21, -22.21 47.21 M-22.21 47.21 C-20.87 47.08, -19.53 46.94, -16.4 46.63 M-22.21 47.21 C-20.05 47, -17.89 46.78, -16.4 46.63 M-16.4 46.63 C-14.51 46.04, -12.62 45.45, -10.98 44.95 M-16.4 46.63 C-14.89 46.16, -13.38 45.69, -10.98 44.95 M-10.98 44.95 C-9.2 43.98, -7.41 43.01, -6.09 42.29 M-10.98 44.95 C-9.34 44.06, -7.7 43.16, -6.09 42.29 M-6.09 42.29 C-4.7 41.14, -3.31 39.99, -1.82 38.77 M-6.09 42.29 C-5.16 41.52, -4.23 40.76, -1.82 38.77 M-1.82 38.77 C-0.98 37.75, -0.14 36.73, 1.7 34.5 M-1.82 38.77 C-0.79 37.52, 0.23 36.28, 1.7 34.5 M1.7 34.5 C2.34 33.32, 2.99 32.13, 4.36 29.6 M1.7 34.5 C2.49 33.04, 3.28 31.59, 4.36 29.6 M4.36 29.6 C4.82 28.12, 5.28 26.63, 6.04 24.19 M4.36 29.6 C4.9 27.86, 5.44 26.11, 6.04 24.19 M6.04 24.19 C6.19 22.72, 6.34 21.25, 6.63 18.38 M6.04 24.19 C6.2 22.56, 6.37 20.93, 6.63 18.38 M6.63 18.38 C6.47 16.65, 6.32 14.91, 6.17 13.26 M6.63 18.38 C6.49 16.89, 6.36 15.39, 6.17 13.26 M6.17 13.26 C5.77 11.77, 5.36 10.27, 4.86 8.44 M6.17 13.26 C5.7 11.53, 5.23 9.79, 4.86 8.44 M4.86 8.44 C4.37 7.38, 3.87 6.32, 2.78 3.99 M4.86 8.44 C4.14 6.89, 3.41 5.34, 2.78 3.99 M2.78 3.99 C2.07 2.98, 1.37 1.96, 0 0 M2.78 3.99 C2.05 2.95, 1.32 1.9, 0 0 M0 0 C0 0, 0 0, 0 0 M0 0 C0 0, 0 0, 0 0" stroke="#00000000" stroke-width="1" fill="none"></path></g></g><mask></mask><g stroke-linecap="round"><g transform="translate(144.61439064926333 391.6815851372719) rotate(0 -29.31800744879547 7.052004615908686)" fill-rule="evenodd"><path d="M0 0 L-3.49 -1.89 L-7.24 -3.3 L-11.22 -4.18 L-15.39 -4.48 L-58.64 -4.48 L-58.64 18.58 L-26.92 18.58 L-22.4 18.23 L-18.1 17.21 L-14.08 15.57 L-10.4 13.36 L-7.09 10.65 L-4.22 7.48 L-1.84 3.92 L0 0" stroke="none" stroke-width="0" fill="black" fill-rule="evenodd"></path><path d="M0 0 C-0.82 -0.45, -1.65 -0.89, -3.49 -1.89 M0 0 C-0.88 -0.48, -1.76 -0.95, -3.49 -1.89 M-3.49 -1.89 C-4.63 -2.32, -5.77 -2.75, -7.24 -3.3 M-3.49 -1.89 C-4.41 -2.24, -5.34 -2.58, -7.24 -3.3 M-7.24 -3.3 C-8.61 -3.6, -9.99 -3.9, -11.22 -4.18 M-7.24 -3.3 C-8.73 -3.63, -10.23 -3.96, -11.22 -4.18 M-11.22 -4.18 C-12.14 -4.24, -13.05 -4.31, -15.39 -4.48 M-11.22 -4.18 C-12.62 -4.28, -14.02 -4.38, -15.39 -4.48 M-15.39 -4.48 C-27.17 -4.48, -38.95 -4.48, -58.64 -4.48 M-15.39 -4.48 C-32.57 -4.48, -49.76 -4.48, -58.64 -4.48 M-58.64 -4.48 C-58.64 2.57, -58.64 9.62, -58.64 18.58 M-58.64 -4.48 C-58.64 1.78, -58.64 8.04, -58.64 18.58 M-58.64 18.58 C-50.78 18.58, -42.92 18.58, -26.92 18.58 M-58.64 18.58 C-49.29 18.58, -39.94 18.58, -26.92 18.58 M-26.92 18.58 C-25.44 18.47, -23.97 18.35, -22.4 18.23 M-26.92 18.58 C-25.54 18.48, -24.15 18.37, -22.4 18.23 M-22.4 18.23 C-20.93 17.88, -19.46 17.53, -18.1 17.21 M-22.4 18.23 C-21.43 18, -20.46 17.77, -18.1 17.21 M-18.1 17.21 C-17.15 16.82, -16.19 16.43, -14.08 15.57 M-18.1 17.21 C-16.78 16.67, -15.46 16.13, -14.08 15.57 M-14.08 15.57 C-12.71 14.75, -11.34 13.93, -10.4 13.36 M-14.08 15.57 C-13.24 15.06, -12.39 14.55, -10.4 13.36 M-10.4 13.36 C-9.45 12.58, -8.49 11.8, -7.09 10.65 M-10.4 13.36 C-9.21 12.39, -8.03 11.42, -7.09 10.65 M-7.09 10.65 C-5.97 9.42, -4.85 8.18, -4.22 7.48 M-7.09 10.65 C-6.14 9.6, -5.18 8.55, -4.22 7.48 M-4.22 7.48 C-3.47 6.36, -2.72 5.24, -1.84 3.92 M-4.22 7.48 C-3.63 6.61, -3.05 5.73, -1.84 3.92 M-1.84 3.92 C-1.11 2.36, -0.38 0.8, 0 0 M-1.84 3.92 C-1.4 2.98, -0.96 2.04, 0 0 M0 0 C0 0, 0 0, 0 0 M0 0 C0 0, 0 0, 0 0" stroke="#00000000" stroke-width="1" fill="none"></path></g></g><mask></mask><g stroke-linecap="round"><g transform="translate(552.688502911989 241.01161896262306) rotate(0 41.59127124466545 -0.9752540079037999)"><path d="M2.54 -3.74 C19.55 4.35, 39.18 -3.41, 82.4 1.79 M0.78 1.51 C20.17 -1.33, 41.8 -1.41, 82.38 -0.46" stroke="#000000" stroke-width="1" fill="none"></path></g><g transform="translate(552.688502911989 241.01161896262306) rotate(0 41.59127124466545 -0.9752540079037999)"><path d="M56.57 5.59 C62.07 11.14, 70.07 1.66, 83.47 3.26 M54.81 10.84 C60.04 6.3, 67.63 4.13, 83.46 1.01" stroke="#000000" stroke-width="1" fill="none"></path></g><g transform="translate(552.688502911989 241.01161896262306) rotate(0 41.59127124466545 -0.9752540079037999)"><path d="M56.91 -14.93 C62.03 -4.87, 69.96 -9.85, 83.47 3.26 M55.15 -9.67 C60.6 -8.77, 68.09 -5.5, 83.46 1.01" stroke="#000000" stroke-width="1" fill="none"></path></g></g><mask></mask><g stroke-linecap="round" transform="translate(20 218.07999854860827) rotate(0 88 30)"><path d="M-1.26 1.06 C41.96 1.69, 90.4 -0.74, 178.09 -2.66 M-0.74 -0.3 C34.69 0.04, 71.46 -1.29, 174.81 -1.64 M178.34 0.03 C171.47 22.81, 175.12 41.69, 172.43 56.97 M175.47 -0.8 C175.52 14.27, 175.03 29.74, 174.43 60.6 M176.09 60.31 C136.14 59.08, 91.06 63.5, 1.69 61.19 M175.26 61.76 C113.23 60.01, 54.21 61.33, -0.44 58.64 M-3.1 62.11 C-3.3 37.84, -1.26 22.56, 3.49 -1.79 M1.04 58.97 C-0.1 43.3, -0.09 27.45, -0.47 1.29" stroke="#000000" stroke-width="1" fill="none"></path></g><g transform="translate(41.30999755859375 235.57999854860827) rotate(0 66.69000244140625 12.5)"><text x="66.69000244140625" y="0" font-family="Virgil, Segoe UI Emoji" font-size="20px" fill="#000000" text-anchor="middle" style="white-space: pre;" direction="ltr" dominant-baseline="text-before-edge">Elastic Agent</text></g><g stroke-linecap="round" transform="translate(299.2500211237051 207.0060242211439) rotate(0 13.393480480766186 33.664694181385244)"><path d="M17.18 2.26 C19.67 3.71, 22.63 9.24, 24.35 15.03 C26.07 20.82, 27.68 29.71, 27.49 37.02 C27.31 44.32, 25.32 53.7, 23.24 58.85 C21.16 64, 17.9 67.64, 15.01 67.91 C12.13 68.18, 8.47 65.07, 5.95 60.46 C3.42 55.85, 0.66 47.21, -0.11 40.25 C-0.88 33.29, -0.21 24.85, 1.33 18.7 C2.88 12.54, 6.28 5.73, 9.17 3.33 C12.06 0.92, 16.78 3.62, 18.68 4.27 C20.57 4.92, 20.54 6.83, 20.54 7.23 M8.36 1.23 C10.47 -1.84, 14.03 -0.29, 16.55 2.18 C19.07 4.65, 21.93 9.95, 23.47 16.03 C25.01 22.12, 26.09 31.84, 25.79 38.71 C25.49 45.57, 23.44 52.61, 21.68 57.23 C19.93 61.85, 17.86 66.03, 15.25 66.44 C12.65 66.86, 8.56 64.19, 6.07 59.72 C3.58 55.25, 0.93 46.64, 0.3 39.64 C-0.33 32.63, 0.92 23.66, 2.28 17.69 C3.63 11.72, 7.14 6.07, 8.42 3.79 C9.69 1.52, 9.72 3.76, 9.94 4.04" stroke="none" stroke-width="0" fill="#ffffff"></path><path d="M9.04 1.43 C11.5 -1.24, 14.93 -0.1, 17.67 2.67 C20.41 5.43, 23.96 11.66, 25.48 18.01 C26.99 24.37, 27.56 33.75, 26.77 40.81 C25.97 47.87, 22.92 56.07, 20.69 60.37 C18.46 64.67, 16.21 66.85, 13.38 66.63 C10.55 66.41, 6.07 63.84, 3.72 59.06 C1.36 54.28, -0.33 45.27, -0.74 37.94 C-1.15 30.61, -1.01 21.5, 1.26 15.09 C3.54 8.69, 10.58 1.68, 12.92 -0.49 C15.27 -2.66, 15.46 1.49, 15.34 2.08 M8.54 3.52 C10.97 -0.28, 12.91 -0.91, 15.53 0.71 C18.15 2.33, 22.53 7.74, 24.26 13.23 C25.98 18.71, 25.87 26.23, 25.9 33.62 C25.93 41, 26.39 51.91, 24.44 57.51 C22.5 63.11, 17.35 66.52, 14.24 67.19 C11.13 67.86, 8 65.54, 5.76 61.52 C3.53 57.5, 1.43 49.77, 0.81 43.06 C0.18 36.35, 1.04 27.57, 2.01 21.27 C2.98 14.98, 5.93 8.2, 6.6 5.31 C7.27 2.42, 5.82 3.85, 6.03 3.94" stroke="#000000" stroke-width="1" fill="none"></path></g><g stroke-linecap="round" transform="translate(524.6661601467415 207.0060242211439) rotate(0 13.39348048076613 33.664694181385244)"><path d="M16.9 1.03 C19.72 2.3, 23.61 8.1, 25.37 14.26 C27.12 20.41, 27.74 30.58, 27.44 37.98 C27.14 45.39, 25.66 53.83, 23.56 58.7 C21.47 63.58, 17.95 67.03, 14.85 67.22 C11.75 67.4, 7.42 64.03, 4.98 59.81 C2.54 55.59, 0.66 48.66, 0.23 41.91 C-0.2 35.16, 1.18 25.7, 2.39 19.33 C3.6 12.96, 4.55 5.97, 7.5 3.7 C10.45 1.43, 17.52 4.44, 20.09 5.69 C22.66 6.95, 23.11 10.75, 22.91 11.23 M17.18 2.73 C19.58 5.01, 22.4 11.21, 23.82 17.48 C25.23 23.75, 26.12 33.56, 25.68 40.37 C25.24 47.18, 23.03 53.98, 21.18 58.33 C19.33 62.68, 17.19 66.41, 14.58 66.47 C11.98 66.52, 7.96 63.4, 5.55 58.65 C3.15 53.91, 0.67 45.05, 0.18 37.98 C-0.32 30.91, 1.13 22.02, 2.6 16.22 C4.08 10.42, 6.21 5.38, 9.04 3.2 C11.88 1.01, 17.98 3.19, 19.63 3.11 C21.27 3.03, 19.06 2.56, 18.89 2.7" stroke="none" stroke-width="0" fill="#868e96"></path><path d="M19.04 4.27 C21.6 7.22, 24.89 14.74, 26.11 21.44 C27.34 28.14, 27.48 37.61, 26.38 44.46 C25.27 51.31, 21.88 58.9, 19.46 62.54 C17.05 66.18, 14.69 67.32, 11.89 66.29 C9.08 65.27, 4.78 61.74, 2.65 56.38 C0.53 51.03, -0.78 41.57, -0.87 34.17 C-0.96 26.77, 0.15 17.66, 2.13 11.99 C4.11 6.33, 8 1.11, 11 0.16 C13.99 -0.79, 18.43 5.09, 20.12 6.29 C21.8 7.5, 21.26 7.2, 21.08 7.39 M18.3 3.03 C20.66 5.59, 24.59 13.16, 25.78 19.46 C26.98 25.77, 26.06 33.71, 25.47 40.86 C24.89 48.01, 24.62 57.95, 22.26 62.37 C19.9 66.79, 14.46 68.29, 11.33 67.39 C8.2 66.49, 5.33 62.22, 3.48 56.97 C1.63 51.72, 0.24 42.91, 0.23 35.89 C0.21 28.86, 1.88 20.38, 3.4 14.83 C4.91 9.29, 6.92 4.67, 9.31 2.62 C11.7 0.57, 16.14 2.53, 17.74 2.54 C19.35 2.54, 19.01 1.86, 18.93 2.67" stroke="#000000" stroke-width="1" fill="none"></path></g><g stroke-linecap="round"><g transform="translate(313.1416993957564 208.45690802874537) rotate(0 112.51613724930934 -0.5542380287312199)"><path d="M1.18 -0.21 C38.76 -0.3, 187.33 -0.93, 224.69 -0.84 M0.35 -1.37 C37.8 -1.3, 186.19 -0.27, 223.58 0.26" stroke="#000000" stroke-width="1" fill="none"></path></g></g><mask></mask><g stroke-linecap="round"><g transform="translate(312.8292952255506 274.3029669467112) rotate(0 115.07253403855862 -0.13955812637061626)"><path d="M-0.3 -0.84 C37.91 -0.75, 191.99 0.14, 230.45 0.33 M1.74 1.34 C39.72 1.07, 191.65 -1.69, 229.66 -1.61" stroke="#000000" stroke-width="1" fill="none"></path></g></g><mask></mask><g stroke-linecap="round" transform="translate(310.4940687119049 209.67595319104748) rotate(0 8.540394326687988 30.813772232010592)"><path d="M4.27 0 L14.68 0.27 L16.81 2.4 L17.08 57.36 L16.01 60.56 L14.68 61.36 L2.4 61.36 L0.27 59.23 L0 4.27 L1.07 1.07 L4.27 0" stroke="none" stroke-width="0" fill="#ffffff"></path><path d="M4.27 0 M4.27 0 C6.48 0, 8.69 0, 12.81 0 M4.27 0 C6.8 0, 9.34 0, 12.81 0 M12.81 0 C15.66 0, 17.08 1.42, 17.08 4.27 M12.81 0 C15.66 0, 17.08 1.42, 17.08 4.27 M17.08 4.27 C17.08 18.27, 17.08 32.27, 17.08 57.36 M17.08 4.27 C17.08 24.6, 17.08 44.92, 17.08 57.36 M17.08 57.36 C17.08 60.2, 15.66 61.63, 12.81 61.63 M17.08 57.36 C17.08 60.2, 15.66 61.63, 12.81 61.63 M12.81 61.63 C10.29 61.63, 7.77 61.63, 4.27 61.63 M12.81 61.63 C10.72 61.63, 8.63 61.63, 4.27 61.63 M4.27 61.63 C1.42 61.63, 0 60.2, 0 57.36 M4.27 61.63 C1.42 61.63, 0 60.2, 0 57.36 M0 57.36 C0 44.51, 0 31.67, 0 4.27 M0 57.36 C0 43.3, 0 29.24, 0 4.27 M0 4.27 C0 1.42, 1.42 0, 4.27 0 M0 4.27 C0 1.42, 1.42 0, 4.27 0" stroke="transparent" stroke-width="1" fill="none"></path></g><g transform="translate(343.99573241128996 228.3948587174848) rotate(0 83.23999786376953 13)"><text x="0" y="0" font-family="Virgil, Segoe UI Emoji" font-size="20px" fill="#000000" text-anchor="start" style="white-space: pre;" direction="ltr" dominant-baseline="text-before-edge">Ingestion Pipeline</text></g><g stroke-linecap="round"><g transform="translate(198 248.4604580589721) rotate(0 54.42665072464729 1.6215994087413037)"><path d="M-1.07 2.48 C31.76 -3.43, 73.8 -1.44, 109.92 4.66 M-0.31 -1.29 C35.67 -1.97, 73.41 0.07, 108.19 4.54" stroke="#000000" stroke-width="1" fill="none"></path></g><g transform="translate(198 248.4604580589721) rotate(0 54.42665072464729 1.6215994087413037)"><path d="M78.02 14.28 C85.22 5.43, 101.53 4.16, 111.09 6.58 M78.77 10.51 C88.14 7.17, 99.42 5.86, 109.36 6.46" stroke="#000000" stroke-width="1" fill="none"></path></g><g transform="translate(198 248.4604580589721) rotate(0 54.42665072464729 1.6215994087413037)"><path d="M80.16 -6.13 C86.46 -8.23, 102.07 -2.76, 111.09 6.58 M80.92 -9.9 C89.84 -6.28, 100.39 -0.66, 109.36 6.46" stroke="#000000" stroke-width="1" fill="none"></path></g></g><mask></mask><g stroke-linecap="round"><g transform="translate(212.05448735360926 351.05928049285467) rotate(0 46.51654501308104 -44.66506569486364)"><path d="M2.47 3.33 C22.4 -27.9, 46.69 -46.84, 94.82 -90.48 M-1.79 1.15 C36.41 -32.15, 68.44 -65.83, 93.5 -92.66" stroke="#000000" stroke-width="1" fill="none"></path></g><g transform="translate(212.05448735360926 351.05928049285467) rotate(0 46.51654501308104 -44.66506569486364)"><path d="M84.05 -61.8 C84.37 -75.24, 87.85 -77.89, 95.25 -92.12 M79.79 -63.98 C87.31 -74.68, 89.61 -85.1, 93.93 -94.31" stroke="#000000" stroke-width="1" fill="none"></path></g><g transform="translate(212.05448735360926 351.05928049285467) rotate(0 46.51654501308104 -44.66506569486364)"><path d="M69.15 -75.9 C73.56 -86, 80.86 -85.03, 95.25 -92.12 M64.88 -78.09 C77.65 -83.5, 85.42 -88.75, 93.93 -94.31" stroke="#000000" stroke-width="1" fill="none"></path></g></g><mask></mask><g transform="translate(139.11999893188477 334.0799985486083) rotate(34.47221388003644 25.880001068115234 12.5)"><text x="25.880001068115234" y="0" font-family="Virgil, Segoe UI Emoji" font-size="20px" fill="#000000" text-anchor="middle" style="white-space: pre;" direction="ltr" dominant-baseline="text-before-edge">audit</text></g><g transform="translate(51.85000038146973 338.0799985486083) rotate(313.6251652194306 15.149999618530273 12.5)"><text x="15.149999618530273" y="0" font-family="Virgil, Segoe UI Emoji" font-size="20px" fill="#000000" text-anchor="middle" style="white-space: pre;" direction="ltr" dominant-baseline="text-before-edge">file</text></g><g transform="translate(143.0399990081787 434.0799985486083) rotate(319.214178522734 28.96000099182129 12.5)"><text x="28.96000099182129" y="0" font-family="Virgil, Segoe UI Emoji" font-size="20px" fill="#000000" text-anchor="middle" style="white-space: pre;" direction="ltr" dominant-baseline="text-before-edge">metric</text></g><g transform="translate(45.38999938964844 446.0799985486083) rotate(27.681061568485273 32.61000061035156 12.5)"><text x="32.61000061035156" y="0" font-family="Virgil, Segoe UI Emoji" font-size="20px" fill="#000000" text-anchor="middle" style="white-space: pre;" direction="ltr" dominant-baseline="text-before-edge">packet</text></g><g stroke-linecap="round" transform="translate(27 132.07999854860827) rotate(0 81.5 24.5)"><path d="M-3.15 2.73 C56.74 1.07, 112.86 -0.89, 165.28 -1.54 M1.01 1.36 C31.55 -2.02, 66.63 0.66, 164.92 -1.39 M164.83 0.33 C160.14 12.58, 160.62 21.75, 162.27 48.37 M164.57 -1.54 C161.47 13.07, 162.17 27.68, 164.14 48.76 M165.72 48.67 C118.78 47.54, 72.19 51.63, 2.04 46.08 M164.51 47.99 C117.46 52.73, 75 49.94, 0.94 47.38 M-1.14 45.42 C2.45 39.14, 0.02 28.42, -2.6 -3.52 M1.35 47.5 C2.43 37.34, -0.63 22.09, -0.63 -1.37" stroke="#000000" stroke-width="1" fill="none"></path></g><g transform="translate(55.77000045776367 144.07999854860827) rotate(0 52.72999954223633 12.5)"><text x="52.72999954223633" y="0" font-family="Virgil, Segoe UI Emoji" font-size="20px" fill="#000000" text-anchor="middle" style="white-space: pre;" direction="ltr" dominant-baseline="text-before-edge">Connectors</text></g><g stroke-linecap="round"><g transform="translate(193 144.44928254333172) rotate(0 54.41100705035137 44.69348482040937)"><path d="M-0.85 -1.14 C18.74 21.53, 47.09 39.04, 109.67 88.55 M-0.2 1.35 C20.82 22.68, 46.53 38.94, 107.3 90.52" stroke="#000000" stroke-width="1" fill="none"></path></g><g transform="translate(193 144.44928254333172) rotate(0 54.41100705035137 44.69348482040937)"><path d="M78.17 79.36 C81.47 85.45, 92.28 85.21, 108.53 87.93 M78.83 81.85 C83.45 84.74, 92.16 83.8, 106.15 89.9" stroke="#000000" stroke-width="1" fill="none"></path></g><g transform="translate(193 144.44928254333172) rotate(0 54.41100705035137 44.69348482040937)"><path d="M91.23 63.53 C91.43 73.27, 99.38 76.5, 108.53 87.93 M91.88 66.02 C93.62 72.06, 99.56 74.48, 106.15 89.9" stroke="#000000" stroke-width="1" fill="none"></path></g></g><mask></mask><g stroke-linecap="round"><g transform="translate(130.26392864771765 59.26336026474746) rotate(0 -21.36383904877823 -24.63168013237373)" fill-rule="evenodd"><path d="M0 0 L-42.73 0 L-42.73 -49.26 L-29.83 -49.26 L-23.81 -48.66 L-18.21 -46.93 L-13.14 -44.18 L-8.72 -40.54 L-5.08 -36.12 L-2.33 -31.05 L-0.6 -25.45 L0 -19.44 L0 0" stroke="none" stroke-width="0" fill="#F3BD19" fill-rule="evenodd"></path><path d="M0 0 C-16.04 0, -32.09 0, -42.73 0 M0 0 C-16.69 0, -33.39 0, -42.73 0 M-42.73 0 C-42.73 -15.89, -42.73 -31.78, -42.73 -49.26 M-42.73 0 C-42.73 -9.92, -42.73 -19.84, -42.73 -49.26 M-42.73 -49.26 C-38.28 -49.26, -33.83 -49.26, -29.83 -49.26 M-42.73 -49.26 C-39.43 -49.26, -36.12 -49.26, -29.83 -49.26 M-29.83 -49.26 C-27.71 -49.05, -25.59 -48.84, -23.81 -48.66 M-29.83 -49.26 C-27.8 -49.06, -25.78 -48.86, -23.81 -48.66 M-23.81 -48.66 C-21.69 -48.01, -19.58 -47.35, -18.21 -46.93 M-23.81 -48.66 C-22.56 -48.28, -21.31 -47.89, -18.21 -46.93 M-18.21 -46.93 C-16.9 -46.22, -15.6 -45.52, -13.14 -44.18 M-18.21 -46.93 C-16.33 -45.91, -14.45 -44.89, -13.14 -44.18 M-13.14 -44.18 C-12.22 -43.43, -11.31 -42.67, -8.72 -40.54 M-13.14 -44.18 C-11.93 -43.19, -10.72 -42.19, -8.72 -40.54 M-8.72 -40.54 C-7.63 -39.21, -6.53 -37.88, -5.08 -36.12 M-8.72 -40.54 C-7.47 -39.02, -6.22 -37.5, -5.08 -36.12 M-5.08 -36.12 C-4.4 -34.86, -3.71 -33.59, -2.33 -31.05 M-5.08 -36.12 C-4.31 -34.71, -3.54 -33.29, -2.33 -31.05 M-2.33 -31.05 C-1.85 -29.5, -1.37 -27.94, -0.6 -25.45 M-2.33 -31.05 C-1.75 -29.16, -1.16 -27.27, -0.6 -25.45 M-0.6 -25.45 C-0.42 -23.63, -0.24 -21.8, 0 -19.44 M-0.6 -25.45 C-0.42 -23.61, -0.23 -21.78, 0 -19.44 M0 -19.44 C0 -15.25, 0 -11.07, 0 0 M0 -19.44 C0 -12.16, 0 -4.88, 0 0 M0 0 C0 0, 0 0, 0 0 M0 0 C0 0, 0 0, 0 0" stroke="#00000000" stroke-width="1" fill="none"></path></g></g><mask></mask><g stroke-linecap="round"><g transform="translate(130.26392864771765 102.15999709721655) rotate(0 -21.44831910288002 -21.448318416234542)" fill-rule="evenodd"><path d="M0 0 L-8.63 -0.87 L-16.67 -3.36 L-23.96 -7.3 L-30.31 -12.53 L-35.55 -18.87 L-39.52 -26.16 L-42.02 -34.22 L-42.9 -42.9 L0 -42.9 L0 0" stroke="none" stroke-width="0" fill="#231F20" fill-rule="evenodd"></path><path d="M0 0 C-2.94 -0.3, -5.88 -0.59, -8.63 -0.87 M0 0 C-3.36 -0.34, -6.71 -0.67, -8.63 -0.87 M-8.63 -0.87 C-10.94 -1.58, -13.25 -2.3, -16.67 -3.36 M-8.63 -0.87 C-11.13 -1.64, -13.64 -2.42, -16.67 -3.36 M-16.67 -3.36 C-18.69 -4.45, -20.7 -5.54, -23.96 -7.3 M-16.67 -3.36 C-19.16 -4.7, -21.64 -6.05, -23.96 -7.3 M-23.96 -7.3 C-26.36 -9.27, -28.76 -11.25, -30.31 -12.53 M-23.96 -7.3 C-25.68 -8.71, -27.4 -10.13, -30.31 -12.53 M-30.31 -12.53 C-31.45 -13.91, -32.6 -15.29, -35.55 -18.87 M-30.31 -12.53 C-31.93 -14.48, -33.54 -16.44, -35.55 -18.87 M-35.55 -18.87 C-36.99 -21.5, -38.42 -24.14, -39.52 -26.16 M-35.55 -18.87 C-36.54 -20.68, -37.53 -22.5, -39.52 -26.16 M-39.52 -26.16 C-40.48 -29.27, -41.45 -32.37, -42.02 -34.22 M-39.52 -26.16 C-40.39 -28.95, -41.25 -31.75, -42.02 -34.22 M-42.02 -34.22 C-42.25 -36.49, -42.48 -38.76, -42.9 -42.9 M-42.02 -34.22 C-42.27 -36.71, -42.52 -39.19, -42.9 -42.9 M-42.9 -42.9 C-32.98 -42.9, -23.07 -42.9, 0 -42.9 M-42.9 -42.9 C-31.96 -42.9, -21.03 -42.9, 0 -42.9 M0 -42.9 C0 -26.39, 0 -9.87, 0 0 M0 -42.9 C0 -29.41, 0 -15.91, 0 0 M0 0 C0 0, 0 0, 0 0 M0 0 C0 0, 0 0, 0 0" stroke="#00000000" stroke-width="1" fill="none"></path></g></g><mask></mask><g stroke-linecap="round"><g transform="translate(130.26392864771765 59.26336026474746) rotate(0 19.52064086464634 21.448318416234542)" fill-rule="evenodd"><path d="M0 0 L39.04 0 L39.04 42.9 L0 42.9 L0 0" stroke="none" stroke-width="0" fill="#3EBEB0" fill-rule="evenodd"></path><path d="M0 0 C9.12 0, 18.24 0, 39.04 0 M0 0 C9.03 0, 18.07 0, 39.04 0 M39.04 0 C39.04 10.66, 39.04 21.32, 39.04 42.9 M39.04 0 C39.04 15.37, 39.04 30.73, 39.04 42.9 M39.04 42.9 C26.77 42.9, 14.5 42.9, 0 42.9 M39.04 42.9 C26.32 42.9, 13.59 42.9, 0 42.9 M0 42.9 C0 27.35, 0 11.81, 0 0 M0 42.9 C0 26.37, 0 9.84, 0 0 M0 0 C0 0, 0 0, 0 0 M0 0 C0 0, 0 0, 0 0" stroke="#00000000" stroke-width="1" fill="none"></path></g></g><mask></mask><g stroke-linecap="round"><g transform="translate(130.26392864771765 59.26336026474746) rotate(0 4.523519754982658 21.448318416234542)" fill-rule="evenodd"><path d="M0 0 L9.05 0 L9.05 42.9 L0 42.9 L0 0" stroke="none" stroke-width="0" fill="#37A595" fill-rule="evenodd"></path><path d="M0 0 C2.79 0, 5.58 0, 9.05 0 M0 0 C3.19 0, 6.39 0, 9.05 0 M9.05 0 C9.05 11.56, 9.05 23.12, 9.05 42.9 M9.05 0 C9.05 12.91, 9.05 25.82, 9.05 42.9 M9.05 42.9 C6.88 42.9, 4.72 42.9, 0 42.9 M9.05 42.9 C6.92 42.9, 4.8 42.9, 0 42.9 M0 42.9 C0 33.71, 0 24.52, 0 0 M0 42.9 C0 33.89, 0 24.88, 0 0 M0 0 C0 0, 0 0, 0 0 M0 0 C0 0, 0 0, 0 0" stroke="#00000000" stroke-width="1" fill="none"></path></g></g><mask></mask><g stroke-linecap="round"><g transform="translate(179 65.07999854860827) rotate(0 58.16512716181683 77.14994609080895)"><path d="M-0.91 -3.44 C41.16 59.4, 84.75 116.71, 117.24 156.29 M-0.64 0.09 C45.3 60.7, 88.34 115.82, 116.57 157.74" stroke="#000000" stroke-width="1" fill="none"></path></g><g transform="translate(179 65.07999854860827) rotate(0 58.16512716181683 77.14994609080895)"><path d="M90.99 137.22 C97.18 147.81, 106.35 154.02, 115.37 157.7 M91.26 140.74 C101.26 148.84, 109.6 152.43, 114.7 159.15" stroke="#000000" stroke-width="1" fill="none"></path></g><g transform="translate(179 65.07999854860827) rotate(0 58.16512716181683 77.14994609080895)"><path d="M107.74 125.36 C107.9 140.1, 110.94 150.66, 115.37 157.7 M108.01 128.88 C111.92 141.2, 114.05 149.17, 114.7 159.15" stroke="#000000" stroke-width="1" fill="none"></path></g></g><mask></mask><g stroke-linecap="round" transform="translate(598 14.079998548608273) rotate(0 87 28)"><path d="M0.17 1.73 C56.55 0.89, 114.3 4.73, 170.89 -3.34 M-0.77 0.53 C59.39 3.28, 116.45 3.89, 172.61 -0.14 M177.37 -2.3 C170.28 24.14, 176.01 39.35, 170.65 58.49 M175.68 0.2 C173.46 18.65, 172.91 40.81, 173.57 54.21 M171.65 56.16 C126.9 56.12, 85.18 58.87, -1.64 59.64 M174.66 54.14 C131.29 51.82, 89.4 52.04, -0.48 57.09 M0.29 57.68 C-2.33 41.93, -2.31 17.81, 1.26 -3.04 M0.72 55.56 C-0.89 41.4, -2.53 27.24, -0.76 -0.17" stroke="#000000" stroke-width="1" fill="none"></path></g><g transform="translate(606.5500030517578 29.579998548608273) rotate(0 78.44999694824219 12.5)"><text x="78.44999694824219" y="0" font-family="Virgil, Segoe UI Emoji" font-size="20px" fill="#000000" text-anchor="middle" style="white-space: pre;" direction="ltr" dominant-baseline="text-before-edge">Detection Rules</text></g><g stroke-linecap="round"><g transform="translate(691 76.07999854860827) rotate(0 0.026192999933073224 50.34467505477369)"><path d="M-1.93 2.93 C-1.12 21.23, 2.02 41.27, 0.3 98.86 M-0.78 -0.65 C0.91 22.75, 2.87 41.82, 1.56 101.34" stroke="#000000" stroke-width="1" fill="none"></path></g><g transform="translate(691 76.07999854860827) rotate(0 0.026192999933073224 50.34467505477369)"><path d="M-10.38 75.99 C-7.96 78.8, -2.89 83.5, 0.85 100.2 M-9.22 72.41 C-7 80.82, -3.16 84.83, 2.12 102.68" stroke="#000000" stroke-width="1" fill="none"></path></g><g transform="translate(691 76.07999854860827) rotate(0 0.026192999933073224 50.34467505477369)"><path d="M10.14 76.17 C8.17 79.28, 8.85 83.94, 0.85 100.2 M11.3 72.59 C9.2 80.78, 8.74 84.75, 2.12 102.68" stroke="#000000" stroke-width="1" fill="none"></path></g></g><mask></mask><g stroke-linecap="round" transform="translate(393 17.079998548608273) rotate(0 87 28)"><path d="M3.97 -4 C40.37 -0.31, 75.21 -0.48, 175.3 -0.38 M-1.46 -1.94 C58 3.05, 117.25 3.22, 174.12 0.8 M174.98 -1.26 C170.69 13.33, 173.63 31.9, 170.64 59.42 M172.54 0.6 C174.53 11.87, 172.58 23.61, 175.42 54.63 M174.43 53.41 C118.45 52.16, 71.83 51.89, 0.07 57.79 M173.3 56.48 C123.66 59.28, 75.57 60.27, -1.65 55.49 M-3.5 57.21 C-2.68 42.71, 0.43 27.3, 0.97 1.44 M1 54.43 C-1.43 44.24, -0.6 28.07, -1.25 0.57" stroke="#000000" stroke-width="1" fill="none"></path></g><g transform="translate(415.5199966430664 32.57999854860827) rotate(0 64.4800033569336 12.5)"><text x="64.4800033569336" y="0" font-family="Virgil, Segoe UI Emoji" font-size="20px" fill="#000000" text-anchor="middle" style="white-space: pre;" direction="ltr" dominant-baseline="text-before-edge">Anomaly Jobs</text></g><g stroke-linecap="round"><g transform="translate(476 76.07999854860827) rotate(0 89.11862895565343 56.22953956156334)"><path d="M-2.76 -3.16 C52.17 26.96, 95.06 56.7, 181 115.62 M1.01 -0.86 C51.53 34.29, 98.74 64.83, 180.05 113.39" stroke="#000000" stroke-width="1" fill="none"></path></g><g transform="translate(476 76.07999854860827) rotate(0 89.11862895565343 56.22953956156334)"><path d="M147.49 103.95 C161.42 106.88, 163.29 107.88, 181.19 116.37 M151.78 106.56 C160.75 110.78, 165.9 111.56, 180.12 113.84" stroke="#000000" stroke-width="1" fill="none"></path></g><g transform="translate(476 76.07999854860827) rotate(0 89.11862895565343 56.22953956156334)"><path d="M158.14 86.4 C169.49 94.14, 168.51 99.83, 181.19 116.37 M162.43 89.02 C168.44 97.97, 170.65 103.61, 180.12 113.84" stroke="#000000" stroke-width="1" fill="none"></path></g></g><mask></mask><g stroke-linecap="round" transform="translate(834 207.07999854860827) rotate(0 57 22)"><path d="M0.84 0.72 C27.05 0.47, 54.67 4.75, 111.18 3.21 M-1.64 0.79 C41.3 0.2, 81.73 0.98, 112.17 0.32 M112.17 2.97 C112.69 13.55, 116.49 30.8, 117.8 45.77 M114.81 1.31 C114.41 15.43, 115.36 27.77, 114.33 44.91 M115.15 41.22 C89.56 39.01, 64.73 44.72, 1.13 41.3 M114.3 43.49 C87.89 41.41, 58.85 41.93, 0.95 44.26 M-1.16 47.61 C-1 32.84, 2.2 19.16, -2.03 -3.49 M-0.94 44.13 C1.87 29.4, 1.61 13.28, 1.6 0.19" stroke="#000000" stroke-width="1" fill="none"></path></g><g transform="translate(862.9600009918213 218.07999854860827) rotate(0 30.03999900817871 12.5)"><text x="30.03999900817871" y="0" font-family="Virgil, Segoe UI Emoji" font-size="20px" fill="#000000" text-anchor="middle" style="white-space: pre;" direction="ltr" dominant-baseline="text-before-edge">Alerts</text></g><g stroke-linecap="round"><g transform="translate(733 232.07999854860827) rotate(0 47.96267419029027 -0.9019190713008811)"><path d="M0.49 -2.79 C20.16 4.45, 40.27 -0.95, 93.84 -0.85 M1.95 -1.35 C24.57 -0.09, 48.15 1.25, 95.43 0.3" stroke="#000000" stroke-width="1" fill="none"></path></g><g transform="translate(733 232.07999854860827) rotate(0 47.96267419029027 -0.9019190713008811)"><path d="M67.82 8 C73.58 11.95, 79.86 4.2, 93.28 -1.56 M69.28 9.44 C75.18 7.52, 82.06 6.04, 94.87 -0.41" stroke="#000000" stroke-width="1" fill="none"></path></g><g transform="translate(733 232.07999854860827) rotate(0 47.96267419029027 -0.9019190713008811)"><path d="M67.65 -12.52 C73.57 -4.38, 79.88 -7.95, 93.28 -1.56 M69.11 -11.08 C75.11 -7.96, 82.04 -4.39, 94.87 -0.41" stroke="#000000" stroke-width="1" fill="none"></path></g></g><mask></mask></svg>