<svg version="1.1" xmlns="http://www.w3.org/2000/svg" viewBox="0 0 926.8196452026286 578.5572495756722" width="1853.6392904052573" height="1157.1144991513445">
  <!-- svg-source:excalidraw -->
  
  <defs>
    <style class="style-fonts">
      @font-face {
        font-family: "Virgil";
        src: url("https://excalidraw.com/Virgil.woff2");
      }
      @font-face {
        font-family: "Cascadia";
        src: url("https://excalidraw.com/Cascadia.woff2");
      }
    </style>
    
  </defs>
  <rect x="0" y="0" width="926.8196452026286" height="578.5572495756722" fill="#ffffff"></rect><g stroke-linecap="round"><g transform="translate(582.4708961540673 441.8832767752107) rotate(0 52.54859667738299 -17.46898911697167)" fill-rule="evenodd"><path d="M0 0 L82.45 0 L84.14 -0.05 L85.81 -0.19 L87.45 -0.43 L89.06 -0.75 L90.63 -1.16 L92.18 -1.66 L93.68 -2.24 L95.14 -2.9 L96.56 -3.63 L97.94 -4.44 L99.26 -5.31 L100.54 -6.26 L101.76 -7.27 L102.93 -8.34 L105.1 -10.67 L102.89 -13.37 L100.54 -15.95 L98.05 -18.39 L95.43 -20.69 L92.68 -22.84 L89.82 -24.83 L86.83 -26.67 L83.74 -28.34 L80.55 -29.83 L77.26 -31.15 L73.88 -32.28 L70.42 -33.22 L66.88 -33.96 L63.27 -34.5 L59.59 -34.83 L55.86 -34.94 L53.57 -34.9 L51.3 -34.77 L46.82 -34.29 L42.45 -33.49 L38.19 -32.39 L34.05 -31 L30.05 -29.34 L26.2 -27.41 L22.5 -25.23 L18.98 -22.8 L15.63 -20.14 L12.48 -17.27 L9.53 -14.18 L6.79 -10.9 L4.29 -7.44 L2.02 -3.8 L0 0" stroke="none" stroke-width="0" fill="#F0BF1A" fill-rule="evenodd"></path><path d="M0 0 C21.64 0, 43.29 0, 82.45 0 M0 0 C28.61 0, 57.22 0, 82.45 0 M82.45 0 C82.84 -0.01, 83.23 -0.02, 84.14 -0.05 M82.45 0 C83.05 -0.02, 83.64 -0.03, 84.14 -0.05 M84.14 -0.05 C84.56 -0.08, 84.98 -0.12, 85.81 -0.19 M84.14 -0.05 C84.49 -0.08, 84.83 -0.11, 85.81 -0.19 M85.81 -0.19 C86.25 -0.25, 86.68 -0.32, 87.45 -0.43 M85.81 -0.19 C86.35 -0.27, 86.88 -0.35, 87.45 -0.43 M87.45 -0.43 C88.08 -0.55, 88.7 -0.68, 89.06 -0.75 M87.45 -0.43 C87.94 -0.53, 88.43 -0.62, 89.06 -0.75 M89.06 -0.75 C89.61 -0.9, 90.16 -1.04, 90.63 -1.16 M89.06 -0.75 C89.4 -0.84, 89.74 -0.93, 90.63 -1.16 M90.63 -1.16 C90.94 -1.26, 91.25 -1.36, 92.18 -1.66 M90.63 -1.16 C91.04 -1.29, 91.44 -1.42, 92.18 -1.66 M92.18 -1.66 C92.73 -1.87, 93.28 -2.09, 93.68 -2.24 M92.18 -1.66 C92.58 -1.82, 92.98 -1.97, 93.68 -2.24 M93.68 -2.24 C94.21 -2.48, 94.74 -2.72, 95.14 -2.9 M93.68 -2.24 C94.14 -2.45, 94.61 -2.66, 95.14 -2.9 M95.14 -2.9 C95.46 -3.06, 95.77 -3.22, 96.56 -3.63 M95.14 -2.9 C95.55 -3.11, 95.95 -3.31, 96.56 -3.63 M96.56 -3.63 C96.86 -3.81, 97.17 -3.99, 97.94 -4.44 M96.56 -3.63 C96.88 -3.82, 97.2 -4, 97.94 -4.44 M97.94 -4.44 C98.36 -4.71, 98.78 -4.99, 99.26 -5.31 M97.94 -4.44 C98.4 -4.74, 98.86 -5.05, 99.26 -5.31 M99.26 -5.31 C99.6 -5.57, 99.95 -5.82, 100.54 -6.26 M99.26 -5.31 C99.74 -5.67, 100.21 -6.02, 100.54 -6.26 M100.54 -6.26 C100.86 -6.53, 101.19 -6.79, 101.76 -7.27 M100.54 -6.26 C100.91 -6.56, 101.28 -6.87, 101.76 -7.27 M101.76 -7.27 C102.07 -7.55, 102.37 -7.82, 102.93 -8.34 M101.76 -7.27 C102.03 -7.52, 102.3 -7.76, 102.93 -8.34 M102.93 -8.34 C103.77 -9.24, 104.6 -10.14, 105.1 -10.67 M102.93 -8.34 C103.49 -8.94, 104.04 -9.54, 105.1 -10.67 M105.1 -10.67 C104.43 -11.49, 103.75 -12.32, 102.89 -13.37 M105.1 -10.67 C104.41 -11.52, 103.71 -12.37, 102.89 -13.37 M102.89 -13.37 C102.4 -13.92, 101.9 -14.47, 100.54 -15.95 M102.89 -13.37 C102.21 -14.12, 101.53 -14.87, 100.54 -15.95 M100.54 -15.95 C99.6 -16.87, 98.66 -17.8, 98.05 -18.39 M100.54 -15.95 C99.93 -16.55, 99.31 -17.16, 98.05 -18.39 M98.05 -18.39 C97.06 -19.26, 96.07 -20.12, 95.43 -20.69 M98.05 -18.39 C97.14 -19.19, 96.22 -19.99, 95.43 -20.69 M95.43 -20.69 C94.86 -21.13, 94.29 -21.58, 92.68 -22.84 M95.43 -20.69 C94.68 -21.28, 93.93 -21.87, 92.68 -22.84 M92.68 -22.84 C91.74 -23.49, 90.8 -24.15, 89.82 -24.83 M92.68 -22.84 C91.69 -23.53, 90.7 -24.22, 89.82 -24.83 M89.82 -24.83 C88.68 -25.53, 87.55 -26.22, 86.83 -26.67 M89.82 -24.83 C88.77 -25.48, 87.72 -26.12, 86.83 -26.67 M86.83 -26.67 C86.16 -27.03, 85.5 -27.39, 83.74 -28.34 M86.83 -26.67 C86.02 -27.1, 85.22 -27.54, 83.74 -28.34 M83.74 -28.34 C82.99 -28.69, 82.24 -29.04, 80.55 -29.83 M83.74 -28.34 C82.93 -28.72, 82.11 -29.1, 80.55 -29.83 M80.55 -29.83 C79.89 -30.1, 79.22 -30.36, 77.26 -31.15 M80.55 -29.83 C79.75 -30.15, 78.96 -30.47, 77.26 -31.15 M77.26 -31.15 C75.98 -31.58, 74.71 -32, 73.88 -32.28 M77.26 -31.15 C76.31 -31.47, 75.37 -31.78, 73.88 -32.28 M73.88 -32.28 C72.66 -32.61, 71.44 -32.94, 70.42 -33.22 M73.88 -32.28 C72.83 -32.56, 71.79 -32.85, 70.42 -33.22 M70.42 -33.22 C69.12 -33.49, 67.83 -33.76, 66.88 -33.96 M70.42 -33.22 C69.23 -33.47, 68.04 -33.72, 66.88 -33.96 M66.88 -33.96 C65.64 -34.15, 64.4 -34.33, 63.27 -34.5 M66.88 -33.96 C66.07 -34.08, 65.26 -34.2, 63.27 -34.5 M63.27 -34.5 C62.47 -34.57, 61.67 -34.64, 59.59 -34.83 M63.27 -34.5 C62.35 -34.58, 61.44 -34.66, 59.59 -34.83 M59.59 -34.83 C58.25 -34.87, 56.91 -34.91, 55.86 -34.94 M59.59 -34.83 C58.64 -34.86, 57.69 -34.88, 55.86 -34.94 M55.86 -34.94 C55.16 -34.93, 54.45 -34.91, 53.57 -34.9 M55.86 -34.94 C55.25 -34.93, 54.64 -34.92, 53.57 -34.9 M53.57 -34.9 C52.68 -34.85, 51.79 -34.8, 51.3 -34.77 M53.57 -34.9 C53.08 -34.87, 52.6 -34.84, 51.3 -34.77 M51.3 -34.77 C50.1 -34.64, 48.9 -34.51, 46.82 -34.29 M51.3 -34.77 C49.73 -34.6, 48.17 -34.43, 46.82 -34.29 M46.82 -34.29 C45.34 -34.01, 43.85 -33.74, 42.45 -33.49 M46.82 -34.29 C45.16 -33.98, 43.5 -33.68, 42.45 -33.49 M42.45 -33.49 C41.21 -33.17, 39.97 -32.85, 38.19 -32.39 M42.45 -33.49 C41.27 -33.18, 40.08 -32.88, 38.19 -32.39 M38.19 -32.39 C36.91 -31.96, 35.62 -31.53, 34.05 -31 M38.19 -32.39 C37.33 -32.1, 36.47 -31.81, 34.05 -31 M34.05 -31 C33.16 -30.63, 32.27 -30.26, 30.05 -29.34 M34.05 -31 C32.66 -30.42, 31.27 -29.84, 30.05 -29.34 M30.05 -29.34 C28.83 -28.72, 27.6 -28.11, 26.2 -27.41 M30.05 -29.34 C29.24 -28.93, 28.42 -28.52, 26.2 -27.41 M26.2 -27.41 C25.19 -26.81, 24.18 -26.22, 22.5 -25.23 M26.2 -27.41 C25.19 -26.81, 24.19 -26.22, 22.5 -25.23 M22.5 -25.23 C21.14 -24.29, 19.78 -23.35, 18.98 -22.8 M22.5 -25.23 C21.52 -24.55, 20.54 -23.88, 18.98 -22.8 M18.98 -22.8 C17.96 -22, 16.95 -21.19, 15.63 -20.14 M18.98 -22.8 C18.03 -22.05, 17.09 -21.3, 15.63 -20.14 M15.63 -20.14 C14.86 -19.44, 14.09 -18.74, 12.48 -17.27 M15.63 -20.14 C14.5 -19.11, 13.37 -18.08, 12.48 -17.27 M12.48 -17.27 C11.49 -16.24, 10.5 -15.2, 9.53 -14.18 M12.48 -17.27 C11.81 -16.57, 11.14 -15.88, 9.53 -14.18 M9.53 -14.18 C8.9 -13.43, 8.27 -12.67, 6.79 -10.9 M9.53 -14.18 C8.51 -12.97, 7.5 -11.75, 6.79 -10.9 M6.79 -10.9 C6.17 -10.04, 5.55 -9.18, 4.29 -7.44 M6.79 -10.9 C6.12 -9.97, 5.45 -9.04, 4.29 -7.44 M4.29 -7.44 C3.4 -6.01, 2.5 -4.58, 2.02 -3.8 M4.29 -7.44 C3.6 -6.33, 2.91 -5.23, 2.02 -3.8 M2.02 -3.8 C1.45 -2.73, 0.88 -1.65, 0 0 M2.02 -3.8 C1.22 -2.31, 0.43 -0.81, 0 0 M0 0 C0 0, 0 0, 0 0 M0 0 C0 0, 0 0, 0 0" stroke="#00000000" stroke-width="1" fill="none"></path></g></g><mask></mask><g stroke-linecap="round"><g transform="translate(657.9357149708312 451.58836744400344) rotate(0 -32.12325765160301 17.46898965159545)" fill-rule="evenodd"><path d="M0 0 L-79.21 0 L-80.28 4.21 L-81.07 8.54 L-81.55 12.96 L-81.67 15.2 L-81.72 17.47 L-81.67 19.73 L-81.55 21.98 L-81.07 26.4 L-80.28 30.72 L-79.21 34.94 L0 34.94 L1.76 34.85 L3.48 34.59 L5.14 34.16 L6.74 33.57 L8.27 32.84 L9.71 31.97 L11.06 30.97 L12.3 29.84 L13.44 28.6 L14.45 27.26 L15.33 25.82 L16.08 24.29 L16.67 22.68 L17.11 21.01 L17.38 19.26 L17.47 17.47 L17.38 15.67 L17.12 13.93 L16.69 12.25 L16.1 10.65 L15.37 9.12 L14.5 7.68 L13.5 6.33 L12.37 5.1 L11.14 3.97 L9.79 2.97 L8.35 2.1 L6.82 1.36 L5.22 0.78 L3.54 0.35 L1.8 0.09 L0 0" stroke="none" stroke-width="0" fill="#07A5DE" fill-rule="evenodd"></path><path d="M0 0 C-24.78 0, -49.56 0, -79.21 0 M0 0 C-23.71 0, -47.41 0, -79.21 0 M-79.21 0 C-79.44 0.9, -79.66 1.79, -80.28 4.21 M-79.21 0 C-79.47 1.02, -79.73 2.04, -80.28 4.21 M-80.28 4.21 C-80.48 5.31, -80.68 6.4, -81.07 8.54 M-80.28 4.21 C-80.5 5.41, -80.72 6.6, -81.07 8.54 M-81.07 8.54 C-81.21 9.84, -81.35 11.14, -81.55 12.96 M-81.07 8.54 C-81.24 10.06, -81.4 11.58, -81.55 12.96 M-81.55 12.96 C-81.58 13.55, -81.62 14.15, -81.67 15.2 M-81.55 12.96 C-81.59 13.68, -81.63 14.39, -81.67 15.2 M-81.67 15.2 C-81.69 15.84, -81.7 16.47, -81.72 17.47 M-81.67 15.2 C-81.68 15.75, -81.69 16.29, -81.72 17.47 M-81.72 17.47 C-81.7 18.09, -81.69 18.71, -81.67 19.73 M-81.72 17.47 C-81.71 17.95, -81.7 18.44, -81.67 19.73 M-81.67 19.73 C-81.63 20.48, -81.59 21.22, -81.55 21.98 M-81.67 19.73 C-81.64 20.32, -81.61 20.9, -81.55 21.98 M-81.55 21.98 C-81.4 23.34, -81.25 24.71, -81.07 26.4 M-81.55 21.98 C-81.45 22.91, -81.35 23.85, -81.07 26.4 M-81.07 26.4 C-80.78 28, -80.49 29.6, -80.28 30.72 M-81.07 26.4 C-80.79 27.93, -80.52 29.45, -80.28 30.72 M-80.28 30.72 C-80.06 31.6, -79.84 32.48, -79.21 34.94 M-80.28 30.72 C-79.93 32.12, -79.57 33.52, -79.21 34.94 M-79.21 34.94 C-49.32 34.94, -19.43 34.94, 0 34.94 M-79.21 34.94 C-48.77 34.94, -18.34 34.94, 0 34.94 M0 34.94 C0.56 34.91, 1.12 34.88, 1.76 34.85 M0 34.94 C0.46 34.91, 0.91 34.89, 1.76 34.85 M1.76 34.85 C2.26 34.77, 2.76 34.7, 3.48 34.59 M1.76 34.85 C2.17 34.79, 2.57 34.72, 3.48 34.59 M3.48 34.59 C4.14 34.42, 4.79 34.25, 5.14 34.16 M3.48 34.59 C3.9 34.48, 4.31 34.37, 5.14 34.16 M5.14 34.16 C5.63 33.98, 6.12 33.8, 6.74 33.57 M5.14 34.16 C5.64 33.98, 6.13 33.8, 6.74 33.57 M6.74 33.57 C7.19 33.36, 7.65 33.14, 8.27 32.84 M6.74 33.57 C7.08 33.41, 7.42 33.25, 8.27 32.84 M8.27 32.84 C8.8 32.52, 9.34 32.19, 9.71 31.97 M8.27 32.84 C8.58 32.65, 8.89 32.46, 9.71 31.97 M9.71 31.97 C10.1 31.67, 10.5 31.38, 11.06 30.97 M9.71 31.97 C10.06 31.7, 10.42 31.44, 11.06 30.97 M11.06 30.97 C11.44 30.62, 11.82 30.28, 12.3 29.84 M11.06 30.97 C11.43 30.63, 11.79 30.3, 12.3 29.84 M12.3 29.84 C12.72 29.39, 13.13 28.94, 13.44 28.6 M12.3 29.84 C12.68 29.43, 13.06 29.02, 13.44 28.6 M13.44 28.6 C13.71 28.24, 13.99 27.87, 14.45 27.26 M13.44 28.6 C13.74 28.2, 14.04 27.8, 14.45 27.26 M14.45 27.26 C14.71 26.83, 14.97 26.41, 15.33 25.82 M14.45 27.26 C14.76 26.76, 15.07 26.26, 15.33 25.82 M15.33 25.82 C15.56 25.36, 15.78 24.9, 16.08 24.29 M15.33 25.82 C15.55 25.38, 15.77 24.93, 16.08 24.29 M16.08 24.29 C16.3 23.68, 16.53 23.08, 16.67 22.68 M16.08 24.29 C16.26 23.81, 16.44 23.32, 16.67 22.68 M16.67 22.68 C16.83 22.06, 17 21.43, 17.11 21.01 M16.67 22.68 C16.83 22.08, 16.99 21.48, 17.11 21.01 M17.11 21.01 C17.19 20.46, 17.28 19.92, 17.38 19.26 M17.11 21.01 C17.2 20.4, 17.3 19.79, 17.38 19.26 M17.38 19.26 C17.41 18.67, 17.44 18.07, 17.47 17.47 M17.38 19.26 C17.41 18.72, 17.43 18.17, 17.47 17.47 M17.47 17.47 C17.44 16.92, 17.41 16.36, 17.38 15.67 M17.47 17.47 C17.44 16.9, 17.41 16.34, 17.38 15.67 M17.38 15.67 C17.28 15.01, 17.18 14.35, 17.12 13.93 M17.38 15.67 C17.29 15.06, 17.2 14.46, 17.12 13.93 M17.12 13.93 C16.95 13.29, 16.79 12.65, 16.69 12.25 M17.12 13.93 C16.95 13.28, 16.79 12.63, 16.69 12.25 M16.69 12.25 C16.47 11.66, 16.26 11.06, 16.1 10.65 M16.69 12.25 C16.55 11.88, 16.42 11.51, 16.1 10.65 M16.1 10.65 C15.92 10.26, 15.73 9.87, 15.37 9.12 M16.1 10.65 C15.94 10.3, 15.77 9.95, 15.37 9.12 M15.37 9.12 C15.09 8.65, 14.81 8.19, 14.5 7.68 M15.37 9.12 C15.11 8.68, 14.85 8.25, 14.5 7.68 M14.5 7.68 C14.24 7.32, 13.97 6.97, 13.5 6.33 M14.5 7.68 C14.24 7.33, 13.98 6.98, 13.5 6.33 M13.5 6.33 C13.15 5.95, 12.81 5.57, 12.37 5.1 M13.5 6.33 C13.24 6.05, 12.98 5.76, 12.37 5.1 M12.37 5.1 C12.07 4.82, 11.77 4.54, 11.14 3.97 M12.37 5.1 C11.91 4.67, 11.44 4.25, 11.14 3.97 M11.14 3.97 C10.65 3.61, 10.17 3.25, 9.79 2.97 M11.14 3.97 C10.72 3.66, 10.3 3.34, 9.79 2.97 M9.79 2.97 C9.43 2.75, 9.08 2.53, 8.35 2.1 M9.79 2.97 C9.45 2.76, 9.11 2.55, 8.35 2.1 M8.35 2.1 C7.8 1.83, 7.24 1.56, 6.82 1.36 M8.35 2.1 C7.82 1.84, 7.28 1.58, 6.82 1.36 M6.82 1.36 C6.46 1.23, 6.09 1.1, 5.22 0.78 M6.82 1.36 C6.23 1.15, 5.63 0.93, 5.22 0.78 M5.22 0.78 C4.59 0.62, 3.97 0.46, 3.54 0.35 M5.22 0.78 C4.6 0.62, 3.99 0.47, 3.54 0.35 M3.54 0.35 C2.93 0.26, 2.32 0.17, 1.8 0.09 M3.54 0.35 C3.07 0.28, 2.6 0.21, 1.8 0.09 M1.8 0.09 C1.29 0.06, 0.78 0.04, 0 0 M1.8 0.09 C1.26 0.06, 0.72 0.04, 0 0 M0 0 C0 0, 0 0, 0 0 M0 0 C0 0, 0 0, 0 0" stroke="#00000000" stroke-width="1" fill="none"></path></g></g><mask></mask><g stroke-linecap="round"><g transform="translate(687.7800094178265 506.6324725339542) rotate(0 -52.65449138355518 7.067735099772165)" fill-rule="evenodd"><path d="M0 0 L-2.15 -2.27 L-4.53 -4.31 L-5.79 -5.23 L-7.11 -6.09 L-8.48 -6.87 L-9.88 -7.59 L-11.34 -8.22 L-12.83 -8.79 L-14.35 -9.27 L-15.92 -9.67 L-17.51 -9.99 L-19.14 -10.22 L-20.79 -10.35 L-22.47 -10.4 L-105.31 -10.4 L-103.29 -6.6 L-101.02 -2.96 L-98.51 0.5 L-95.78 3.78 L-92.83 6.87 L-89.68 9.74 L-86.33 12.4 L-82.81 14.82 L-79.11 17.01 L-75.26 18.94 L-71.26 20.6 L-67.12 21.99 L-62.86 23.08 L-58.49 23.88 L-54.01 24.37 L-51.74 24.5 L-49.45 24.54 L-45.69 24.42 L-42 24.09 L-38.36 23.55 L-34.8 22.8 L-31.32 21.85 L-27.93 20.7 L-24.62 19.37 L-21.41 17.86 L-18.31 16.17 L-15.31 14.31 L-12.43 12.3 L-9.67 10.12 L-7.05 7.8 L-4.55 5.33 L-2.2 2.73 L0 0" stroke="none" stroke-width="0" fill="#3EBEB0" fill-rule="evenodd"></path><path d="M0 0 C-0.76 -0.8, -1.52 -1.61, -2.15 -2.27 M0 0 C-0.72 -0.76, -1.44 -1.52, -2.15 -2.27 M-2.15 -2.27 C-2.87 -2.89, -3.6 -3.51, -4.53 -4.31 M-2.15 -2.27 C-2.75 -2.79, -3.36 -3.31, -4.53 -4.31 M-4.53 -4.31 C-4.8 -4.51, -5.07 -4.7, -5.79 -5.23 M-4.53 -4.31 C-4.92 -4.6, -5.32 -4.88, -5.79 -5.23 M-5.79 -5.23 C-6.22 -5.51, -6.65 -5.78, -7.11 -6.09 M-5.79 -5.23 C-6.15 -5.46, -6.5 -5.69, -7.11 -6.09 M-7.11 -6.09 C-7.54 -6.33, -7.98 -6.58, -8.48 -6.87 M-7.11 -6.09 C-7.5 -6.31, -7.89 -6.53, -8.48 -6.87 M-8.48 -6.87 C-8.98 -7.13, -9.48 -7.38, -9.88 -7.59 M-8.48 -6.87 C-8.82 -7.04, -9.16 -7.22, -9.88 -7.59 M-9.88 -7.59 C-10.18 -7.72, -10.48 -7.85, -11.34 -8.22 M-9.88 -7.59 C-10.43 -7.82, -10.97 -8.06, -11.34 -8.22 M-11.34 -8.22 C-11.73 -8.37, -12.12 -8.52, -12.83 -8.79 M-11.34 -8.22 C-11.89 -8.43, -12.45 -8.64, -12.83 -8.79 M-12.83 -8.79 C-13.26 -8.93, -13.7 -9.06, -14.35 -9.27 M-12.83 -8.79 C-13.17 -8.89, -13.51 -9, -14.35 -9.27 M-14.35 -9.27 C-14.7 -9.36, -15.04 -9.45, -15.92 -9.67 M-14.35 -9.27 C-14.85 -9.4, -15.35 -9.52, -15.92 -9.67 M-15.92 -9.67 C-16.43 -9.77, -16.95 -9.87, -17.51 -9.99 M-15.92 -9.67 C-16.37 -9.76, -16.83 -9.85, -17.51 -9.99 M-17.51 -9.99 C-17.84 -10.03, -18.17 -10.08, -19.14 -10.22 M-17.51 -9.99 C-18.01 -10.06, -18.51 -10.13, -19.14 -10.22 M-19.14 -10.22 C-19.69 -10.26, -20.24 -10.31, -20.79 -10.35 M-19.14 -10.22 C-19.7 -10.26, -20.26 -10.31, -20.79 -10.35 M-20.79 -10.35 C-21.29 -10.37, -21.78 -10.38, -22.47 -10.4 M-20.79 -10.35 C-21.19 -10.37, -21.59 -10.38, -22.47 -10.4 M-22.47 -10.4 C-46.94 -10.4, -71.42 -10.4, -105.31 -10.4 M-22.47 -10.4 C-53.54 -10.4, -84.61 -10.4, -105.31 -10.4 M-105.31 -10.4 C-104.51 -8.89, -103.71 -7.38, -103.29 -6.6 M-105.31 -10.4 C-104.56 -9, -103.82 -7.59, -103.29 -6.6 M-103.29 -6.6 C-102.73 -5.7, -102.17 -4.8, -101.02 -2.96 M-103.29 -6.6 C-102.61 -5.5, -101.92 -4.41, -101.02 -2.96 M-101.02 -2.96 C-100.25 -1.89, -99.48 -0.82, -98.51 0.5 M-101.02 -2.96 C-100.43 -2.15, -99.84 -1.33, -98.51 0.5 M-98.51 0.5 C-97.47 1.76, -96.43 3.01, -95.78 3.78 M-98.51 0.5 C-97.85 1.3, -97.18 2.11, -95.78 3.78 M-95.78 3.78 C-95.07 4.52, -94.37 5.26, -92.83 6.87 M-95.78 3.78 C-94.81 4.8, -93.83 5.82, -92.83 6.87 M-92.83 6.87 C-91.73 7.88, -90.62 8.89, -89.68 9.74 M-92.83 6.87 C-92.05 7.58, -91.27 8.29, -89.68 9.74 M-89.68 9.74 C-88.64 10.56, -87.61 11.39, -86.33 12.4 M-89.68 9.74 C-88.94 10.33, -88.2 10.92, -86.33 12.4 M-86.33 12.4 C-85.05 13.28, -83.77 14.16, -82.81 14.82 M-86.33 12.4 C-85.02 13.3, -83.71 14.2, -82.81 14.82 M-82.81 14.82 C-81.91 15.35, -81.01 15.88, -79.11 17.01 M-82.81 14.82 C-81.93 15.34, -81.05 15.86, -79.11 17.01 M-79.11 17.01 C-78.01 17.56, -76.9 18.11, -75.26 18.94 M-79.11 17.01 C-77.59 17.77, -76.07 18.53, -75.26 18.94 M-75.26 18.94 C-74.16 19.39, -73.07 19.85, -71.26 20.6 M-75.26 18.94 C-73.74 19.57, -72.23 20.2, -71.26 20.6 M-71.26 20.6 C-69.82 21.08, -68.39 21.56, -67.12 21.99 M-71.26 20.6 C-69.97 21.03, -68.69 21.46, -67.12 21.99 M-67.12 21.99 C-66.08 22.25, -65.05 22.52, -62.86 23.08 M-67.12 21.99 C-66.22 22.22, -65.32 22.45, -62.86 23.08 M-62.86 23.08 C-61.88 23.26, -60.9 23.44, -58.49 23.88 M-62.86 23.08 C-61.85 23.27, -60.84 23.45, -58.49 23.88 M-58.49 23.88 C-57.14 24.03, -55.8 24.18, -54.01 24.37 M-58.49 23.88 C-56.84 24.06, -55.2 24.24, -54.01 24.37 M-54.01 24.37 C-53.19 24.42, -52.37 24.46, -51.74 24.5 M-54.01 24.37 C-53.36 24.41, -52.71 24.44, -51.74 24.5 M-51.74 24.5 C-51.27 24.5, -50.81 24.51, -49.45 24.54 M-51.74 24.5 C-51.17 24.51, -50.6 24.52, -49.45 24.54 M-49.45 24.54 C-48.48 24.51, -47.52 24.48, -45.69 24.42 M-49.45 24.54 C-48.23 24.5, -47.01 24.46, -45.69 24.42 M-45.69 24.42 C-44.89 24.35, -44.1 24.28, -42 24.09 M-45.69 24.42 C-44.5 24.32, -43.31 24.21, -42 24.09 M-42 24.09 C-40.67 23.89, -39.34 23.7, -38.36 23.55 M-42 24.09 C-41.24 23.98, -40.49 23.87, -38.36 23.55 M-38.36 23.55 C-37.61 23.39, -36.86 23.23, -34.8 22.8 M-38.36 23.55 C-37.57 23.38, -36.78 23.22, -34.8 22.8 M-34.8 22.8 C-34.1 22.61, -33.39 22.41, -31.32 21.85 M-34.8 22.8 C-33.71 22.5, -32.62 22.2, -31.32 21.85 M-31.32 21.85 C-30.07 21.43, -28.81 21, -27.93 20.7 M-31.32 21.85 C-30.47 21.56, -29.62 21.27, -27.93 20.7 M-27.93 20.7 C-27.13 20.38, -26.33 20.06, -24.62 19.37 M-27.93 20.7 C-27.11 20.38, -26.3 20.05, -24.62 19.37 M-24.62 19.37 C-23.72 18.95, -22.83 18.53, -21.41 17.86 M-24.62 19.37 C-23.73 18.95, -22.84 18.53, -21.41 17.86 M-21.41 17.86 C-20.76 17.51, -20.12 17.16, -18.31 16.17 M-21.41 17.86 C-20.43 17.33, -19.45 16.79, -18.31 16.17 M-18.31 16.17 C-17.6 15.73, -16.89 15.29, -15.31 14.31 M-18.31 16.17 C-17.59 15.73, -16.88 15.28, -15.31 14.31 M-15.31 14.31 C-14.18 13.52, -13.05 12.73, -12.43 12.3 M-15.31 14.31 C-14.57 13.79, -13.83 13.28, -12.43 12.3 M-12.43 12.3 C-11.48 11.54, -10.52 10.79, -9.67 10.12 M-12.43 12.3 C-11.78 11.78, -11.12 11.26, -9.67 10.12 M-9.67 10.12 C-8.78 9.33, -7.89 8.54, -7.05 7.8 M-9.67 10.12 C-8.83 9.38, -7.99 8.64, -7.05 7.8 M-7.05 7.8 C-6.5 7.26, -5.96 6.72, -4.55 5.33 M-7.05 7.8 C-6.44 7.2, -5.83 6.59, -4.55 5.33 M-4.55 5.33 C-3.72 4.41, -2.89 3.5, -2.2 2.73 M-4.55 5.33 C-3.68 4.37, -2.81 3.41, -2.2 2.73 M-2.2 2.73 C-1.6 1.98, -1 1.24, 0 0 M-2.2 2.73 C-1.33 1.65, -0.45 0.56, 0 0 M0 0 C0 0, 0 0, 0 0 M0 0 C0 0, 0 0, 0 0" stroke="#00000000" stroke-width="1" fill="none"></path></g></g><mask></mask><g stroke-linecap="round"><g transform="translate(578.7280486101472 451.58836744400344) rotate(0 25.733383657070817 17.46898965159545)" fill-rule="evenodd"><path d="M0 0 L-1.08 4.21 L-1.86 8.54 L-2.34 12.96 L-2.47 15.2 L-2.51 17.47 L-2.47 19.73 L-2.34 21.98 L-1.86 26.4 L-1.08 30.72 L0 34.94 L51.84 34.94 L52.75 30.9 L53.42 26.64 L53.66 24.43 L53.83 22.16 L53.94 19.84 L53.97 17.47 L53.94 15.09 L53.83 12.77 L53.66 10.51 L53.42 8.3 L52.75 4.04 L51.84 0 L0 0" stroke="none" stroke-width="0" fill="#231F20" fill-rule="evenodd"></path><path d="M0 0 C-0.29 1.15, -0.59 2.3, -1.08 4.21 M0 0 C-0.37 1.46, -0.75 2.92, -1.08 4.21 M-1.08 4.21 C-1.3 5.43, -1.52 6.64, -1.86 8.54 M-1.08 4.21 C-1.24 5.1, -1.4 5.99, -1.86 8.54 M-1.86 8.54 C-2.04 10.12, -2.21 11.71, -2.34 12.96 M-1.86 8.54 C-2.03 10.05, -2.19 11.57, -2.34 12.96 M-2.34 12.96 C-2.38 13.58, -2.41 14.19, -2.47 15.2 M-2.34 12.96 C-2.39 13.71, -2.43 14.47, -2.47 15.2 M-2.47 15.2 C-2.48 15.95, -2.49 16.7, -2.51 17.47 M-2.47 15.2 C-2.48 15.94, -2.49 16.68, -2.51 17.47 M-2.51 17.47 C-2.5 18.12, -2.48 18.76, -2.47 19.73 M-2.51 17.47 C-2.5 18.02, -2.49 18.58, -2.47 19.73 M-2.47 19.73 C-2.42 20.6, -2.37 21.47, -2.34 21.98 M-2.47 19.73 C-2.43 20.48, -2.39 21.23, -2.34 21.98 M-2.34 21.98 C-2.2 23.3, -2.06 24.63, -1.86 26.4 M-2.34 21.98 C-2.17 23.59, -1.99 25.19, -1.86 26.4 M-1.86 26.4 C-1.6 27.83, -1.34 29.26, -1.08 30.72 M-1.86 26.4 C-1.57 27.98, -1.29 29.56, -1.08 30.72 M-1.08 30.72 C-0.69 32.25, -0.3 33.78, 0 34.94 M-1.08 30.72 C-0.82 31.75, -0.55 32.77, 0 34.94 M0 34.94 C14.2 34.94, 28.41 34.94, 51.84 34.94 M0 34.94 C15.35 34.94, 30.71 34.94, 51.84 34.94 M51.84 34.94 C52.09 33.82, 52.34 32.71, 52.75 30.9 M51.84 34.94 C52.06 33.94, 52.29 32.93, 52.75 30.9 M52.75 30.9 C52.97 29.47, 53.2 28.04, 53.42 26.64 M52.75 30.9 C52.99 29.36, 53.23 27.82, 53.42 26.64 M53.42 26.64 C53.49 25.97, 53.56 25.3, 53.66 24.43 M53.42 26.64 C53.48 26.06, 53.54 25.47, 53.66 24.43 M53.66 24.43 C53.72 23.65, 53.78 22.87, 53.83 22.16 M53.66 24.43 C53.7 23.82, 53.75 23.21, 53.83 22.16 M53.83 22.16 C53.86 21.56, 53.89 20.95, 53.94 19.84 M53.83 22.16 C53.87 21.25, 53.92 20.34, 53.94 19.84 M53.94 19.84 C53.95 19.05, 53.96 18.26, 53.97 17.47 M53.94 19.84 C53.95 19.16, 53.96 18.48, 53.97 17.47 M53.97 17.47 C53.97 16.93, 53.96 16.39, 53.94 15.09 M53.97 17.47 C53.97 16.87, 53.96 16.28, 53.94 15.09 M53.94 15.09 C53.91 14.52, 53.89 13.95, 53.83 12.77 M53.94 15.09 C53.9 14.26, 53.86 13.43, 53.83 12.77 M53.83 12.77 C53.79 12.24, 53.75 11.7, 53.66 10.51 M53.83 12.77 C53.78 12.15, 53.74 11.53, 53.66 10.51 M53.66 10.51 C53.6 9.99, 53.54 9.47, 53.42 8.3 M53.66 10.51 C53.56 9.65, 53.47 8.8, 53.42 8.3 M53.42 8.3 C53.16 6.68, 52.91 5.06, 52.75 4.04 M53.42 8.3 C53.27 7.37, 53.13 6.45, 52.75 4.04 M52.75 4.04 C52.42 2.6, 52.1 1.16, 51.84 0 M52.75 4.04 C52.43 2.63, 52.11 1.22, 51.84 0 M51.84 0 C35.82 0, 19.79 0, 0 0 M51.84 0 C38.98 0, 26.13 0, 0 0 M0 0 C0 0, 0 0, 0 0 M0 0 C0 0, 0 0, 0 0" stroke="#00000000" stroke-width="1" fill="none"></path></g></g><mask></mask><g stroke-linecap="round"><g transform="translate(607.081965345269 415.2916196245384) rotate(0 -1.7470523610616056 13.295936629886455)" fill-rule="evenodd"><path d="M0 0 L-3.85 2.47 L-7.51 5.22 L-10.97 8.23 L-14.22 11.48 L-17.23 14.95 L-19.98 18.64 L-21.26 20.56 L-22.46 22.53 L-23.59 24.54 L-24.65 26.59 L21.16 26.59 L19.28 22.67 L17.17 18.92 L14.82 15.33 L12.25 11.91 L9.47 8.67 L6.5 5.6 L3.34 2.71 L0 0" stroke="none" stroke-width="0" fill="#D7A229" fill-rule="evenodd"></path><path d="M0 0 C-1.07 0.69, -2.14 1.37, -3.85 2.47 M0 0 C-1.3 0.83, -2.6 1.67, -3.85 2.47 M-3.85 2.47 C-4.98 3.32, -6.11 4.17, -7.51 5.22 M-3.85 2.47 C-4.91 3.27, -5.98 4.07, -7.51 5.22 M-7.51 5.22 C-8.46 6.04, -9.41 6.87, -10.97 8.23 M-7.51 5.22 C-8.72 6.27, -9.94 7.33, -10.97 8.23 M-10.97 8.23 C-12.02 9.28, -13.07 10.33, -14.22 11.48 M-10.97 8.23 C-11.63 8.88, -12.29 9.54, -14.22 11.48 M-14.22 11.48 C-15.19 12.6, -16.16 13.72, -17.23 14.95 M-14.22 11.48 C-15.33 12.76, -16.44 14.04, -17.23 14.95 M-17.23 14.95 C-18.01 16.01, -18.8 17.06, -19.98 18.64 M-17.23 14.95 C-18.12 16.15, -19.01 17.34, -19.98 18.64 M-19.98 18.64 C-20.36 19.21, -20.73 19.77, -21.26 20.56 M-19.98 18.64 C-20.38 19.25, -20.79 19.86, -21.26 20.56 M-21.26 20.56 C-21.66 21.22, -22.06 21.87, -22.46 22.53 M-21.26 20.56 C-21.62 21.15, -21.98 21.73, -22.46 22.53 M-22.46 22.53 C-22.71 22.96, -22.95 23.39, -23.59 24.54 M-22.46 22.53 C-22.84 23.2, -23.22 23.88, -23.59 24.54 M-23.59 24.54 C-23.82 24.97, -24.04 25.4, -24.65 26.59 M-23.59 24.54 C-23.95 25.24, -24.32 25.94, -24.65 26.59 M-24.65 26.59 C-7.53 26.59, 9.58 26.59, 21.16 26.59 M-24.65 26.59 C-11.52 26.59, 1.61 26.59, 21.16 26.59 M21.16 26.59 C20.46 25.14, 19.77 23.68, 19.28 22.67 M21.16 26.59 C20.54 25.29, 19.91 23.99, 19.28 22.67 M19.28 22.67 C18.84 21.87, 18.39 21.08, 17.17 18.92 M19.28 22.67 C18.77 21.76, 18.25 20.84, 17.17 18.92 M17.17 18.92 C16.52 17.93, 15.88 16.95, 14.82 15.33 M17.17 18.92 C16.42 17.78, 15.68 16.64, 14.82 15.33 M14.82 15.33 C14.22 14.53, 13.63 13.74, 12.25 11.91 M14.82 15.33 C14.31 14.64, 13.79 13.96, 12.25 11.91 M12.25 11.91 C11.45 10.98, 10.65 10.05, 9.47 8.67 M12.25 11.91 C11.66 11.22, 11.07 10.53, 9.47 8.67 M9.47 8.67 C8.6 7.77, 7.72 6.86, 6.5 5.6 M9.47 8.67 C8.38 7.54, 7.28 6.41, 6.5 5.6 M6.5 5.6 C5.27 4.48, 4.05 3.36, 3.34 2.71 M6.5 5.6 C5.55 4.74, 4.61 3.87, 3.34 2.71 M3.34 2.71 C2.29 1.86, 1.24 1.01, 0 0 M3.34 2.71 C2.42 1.97, 1.51 1.22, 0 0 M0 0 C0 0, 0 0, 0 0 M0 0 C0 0, 0 0, 0 0" stroke="#00000000" stroke-width="1" fill="none"></path></g></g><mask></mask><g stroke-linecap="round"><g transform="translate(609.0229841439786 523.7935366397174) rotate(0 -3.0086422252335865 -13.781180939703233)" fill-rule="evenodd"><path d="M0 0 L3.26 -2.8 L6.35 -5.81 L9.26 -9.01 L11.96 -12.4 L14.46 -15.96 L16.73 -19.68 L18.77 -23.55 L20.57 -27.56 L-26.59 -27.56 L-25.46 -25.4 L-24.25 -23.29 L-22.96 -21.23 L-21.59 -19.22 L-20.15 -17.26 L-18.64 -15.36 L-17.06 -13.52 L-15.41 -11.74 L-13.69 -10.03 L-11.91 -8.38 L-10.07 -6.8 L-8.17 -5.29 L-6.21 -3.85 L-4.19 -2.49 L-2.12 -1.21 L0 0" stroke="none" stroke-width="0" fill="#019B8F" fill-rule="evenodd"></path><path d="M0 0 C1.07 -0.91, 2.13 -1.83, 3.26 -2.8 M0 0 C0.75 -0.64, 1.49 -1.28, 3.26 -2.8 M3.26 -2.8 C4.17 -3.68, 5.07 -4.56, 6.35 -5.81 M3.26 -2.8 C3.89 -3.41, 4.51 -4.01, 6.35 -5.81 M6.35 -5.81 C7.41 -6.97, 8.46 -8.14, 9.26 -9.01 M6.35 -5.81 C7.17 -6.71, 7.98 -7.6, 9.26 -9.01 M9.26 -9.01 C9.87 -9.78, 10.49 -10.55, 11.96 -12.4 M9.26 -9.01 C9.97 -9.9, 10.68 -10.79, 11.96 -12.4 M11.96 -12.4 C12.89 -13.72, 13.82 -15.05, 14.46 -15.96 M11.96 -12.4 C12.82 -13.62, 13.68 -14.85, 14.46 -15.96 M14.46 -15.96 C14.94 -16.75, 15.43 -17.54, 16.73 -19.68 M14.46 -15.96 C15.23 -17.22, 16 -18.49, 16.73 -19.68 M16.73 -19.68 C17.39 -20.93, 18.05 -22.18, 18.77 -23.55 M16.73 -19.68 C17.16 -20.48, 17.58 -21.29, 18.77 -23.55 M18.77 -23.55 C19.42 -24.99, 20.07 -26.43, 20.57 -27.56 M18.77 -23.55 C19.26 -24.63, 19.74 -25.7, 20.57 -27.56 M20.57 -27.56 C6.82 -27.56, -6.94 -27.56, -26.59 -27.56 M20.57 -27.56 C5.17 -27.56, -10.23 -27.56, -26.59 -27.56 M-26.59 -27.56 C-26.21 -26.84, -25.84 -26.12, -25.46 -25.4 M-26.59 -27.56 C-26.26 -26.92, -25.92 -26.28, -25.46 -25.4 M-25.46 -25.4 C-25.02 -24.63, -24.58 -23.86, -24.25 -23.29 M-25.46 -25.4 C-25.07 -24.72, -24.68 -24.04, -24.25 -23.29 M-24.25 -23.29 C-23.91 -22.74, -23.57 -22.2, -22.96 -21.23 M-24.25 -23.29 C-23.73 -22.47, -23.22 -21.65, -22.96 -21.23 M-22.96 -21.23 C-22.5 -20.55, -22.04 -19.88, -21.59 -19.22 M-22.96 -21.23 C-22.57 -20.65, -22.17 -20.08, -21.59 -19.22 M-21.59 -19.22 C-21.25 -18.76, -20.92 -18.3, -20.15 -17.26 M-21.59 -19.22 C-21.08 -18.53, -20.58 -17.84, -20.15 -17.26 M-20.15 -17.26 C-19.84 -16.88, -19.54 -16.49, -18.64 -15.36 M-20.15 -17.26 C-19.74 -16.74, -19.33 -16.22, -18.64 -15.36 M-18.64 -15.36 C-18.03 -14.65, -17.41 -13.94, -17.06 -13.52 M-18.64 -15.36 C-18.22 -14.87, -17.8 -14.38, -17.06 -13.52 M-17.06 -13.52 C-16.6 -13.03, -16.14 -12.54, -15.41 -11.74 M-17.06 -13.52 C-16.72 -13.15, -16.37 -12.79, -15.41 -11.74 M-15.41 -11.74 C-15.02 -11.36, -14.64 -10.98, -13.69 -10.03 M-15.41 -11.74 C-14.97 -11.3, -14.53 -10.86, -13.69 -10.03 M-13.69 -10.03 C-13.2 -9.58, -12.72 -9.13, -11.91 -8.38 M-13.69 -10.03 C-13.02 -9.4, -12.34 -8.78, -11.91 -8.38 M-11.91 -8.38 C-11.36 -7.91, -10.81 -7.44, -10.07 -6.8 M-11.91 -8.38 C-11.24 -7.8, -10.57 -7.23, -10.07 -6.8 M-10.07 -6.8 C-9.66 -6.47, -9.24 -6.14, -8.17 -5.29 M-10.07 -6.8 C-9.41 -6.27, -8.75 -5.75, -8.17 -5.29 M-8.17 -5.29 C-7.52 -4.82, -6.88 -4.34, -6.21 -3.85 M-8.17 -5.29 C-7.7 -4.94, -7.23 -4.6, -6.21 -3.85 M-6.21 -3.85 C-5.52 -3.39, -4.84 -2.92, -4.19 -2.49 M-6.21 -3.85 C-5.73 -3.53, -5.25 -3.2, -4.19 -2.49 M-4.19 -2.49 C-3.59 -2.12, -2.99 -1.74, -2.12 -1.21 M-4.19 -2.49 C-3.66 -2.16, -3.13 -1.83, -2.12 -1.21 M-2.12 -1.21 C-1.31 -0.74, -0.5 -0.28, 0 0 M-2.12 -1.21 C-1.61 -0.91, -1.09 -0.62, 0 0 M0 0 C0 0, 0 0, 0 0 M0 0 C0 0, 0 0, 0 0" stroke="#00000000" stroke-width="1" fill="none"></path></g></g><mask></mask><g stroke-linecap="round" transform="translate(92.13197081509907 252.06883794647467) rotate(0 35.339290345615666 53.6254093970546)"><path d="M0.09 -0.06 L69.26 1.96 L72.29 107.02 L-0.12 108.83" stroke="none" stroke-width="0" fill="#fff"></path><path d="M0.44 -0.54 C27.12 1.04, 55.56 0.7, 72.45 1.95 M0.63 -0.04 C28.62 0, 56.56 0.22, 69.78 -0.89 M71.86 1.85 C70.15 30.68, 71.25 56.62, 68.69 107.36 M70.59 0.84 C70.6 42.98, 70.62 85.6, 69.99 106.47 M70.44 108.4 C51.67 108.26, 30.4 104.89, 1.99 108.02 M71.23 107.75 C49.98 107.29, 31.18 107.25, 0.27 106.69 M-1.2 109.15 C1.59 83.14, -0.13 55.18, 0.62 -0.05 M-0.95 107.52 C0.63 78.38, -0.12 49.79, 0.24 -0.29" stroke="#000000" stroke-width="2" fill="none"></path></g><g stroke-linecap="round" transform="translate(84.58453777938485 245.04874866076034) rotate(0 35.339290345615666 53.6254093970546)"><path d="M-1.42 1.96 L72.29 -0.23 L70.55 108.83 L1.7 107.08" stroke="none" stroke-width="0" fill="#fff"></path><path d="M-0.05 1.57 C27.72 1.42, 54.76 2.14, 72.56 -1.97 M0.79 -0.36 C18.48 -0.11, 34.29 -0.86, 70.4 -0.76 M70.96 1.48 C72.7 24.82, 69.32 53.3, 72.59 108.76 M69.79 0.54 C69.72 29.74, 69.89 57.25, 70.54 108.16 M71.91 108.78 C54.83 105.81, 40.59 108.42, -0.34 106.25 M69.98 107.21 C49.2 107.52, 26.97 107.04, -0.66 106.6 M0.89 108.24 C-0.19 78.38, 1.26 53.19, -0.65 0.52 M0.91 107.05 C1.17 70.17, 1.25 33.03, 0.05 -0.03" stroke="#000000" stroke-width="2" fill="none"></path></g><g stroke-linecap="round" transform="translate(75.18944849366949 236.79484241076057) rotate(0 35.339290345615666 53.6254093970546)"><path d="M1.61 -0.23 L70.55 1.58 L72.38 107.08 L-0.23 106.79" stroke="none" stroke-width="0" fill="#fff"></path><path d="M1.23 1.23 C21.06 1.39, 40.47 -2.52, 69.66 1.26 M0.89 -0.14 C20.01 -0.64, 41.54 -0.5, 70.16 0.59 M72.06 -1.77 C68.84 42.19, 72.74 85.65, 70.09 107.08 M69.81 0.72 C69.04 40.4, 69.59 83.28, 69.95 107.13 M70.86 105.41 C47.39 108.56, 19.79 106.79, 0.22 108.35 M71.19 107.17 C46.23 106.66, 20.58 106.57, -0.48 106.65 M-0.83 105.39 C0.14 64.84, -1.13 23.05, 0.89 -1.9 M0.16 107.13 C-0.74 71.93, -0.93 37.16, -0.71 0.98" stroke="#000000" stroke-width="2" fill="none"></path></g><g stroke-linecap="round"><g transform="translate(87.17587508058045 285.5420794581132) rotate(0 23.667558884955383 -1.0514331324956174)"><path d="M0.74 1.06 C7.51 1.15, 34.15 2.08, 41.59 1.28 C49.04 0.49, 44.44 -2.97, 45.4 -3.71 M-0.34 0.57 C6.3 0.29, 33.26 0.3, 41.26 -0.25 C49.26 -0.79, 46.55 -2.41, 47.67 -2.71" stroke="#000000" stroke-width="1" fill="none"></path></g></g><mask></mask><g stroke-linecap="round"><g transform="translate(89.03112731859483 254.0767921592747) rotate(0 23.32203128485739 -1.1529509167098695)"><path d="M1.17 1.13 C3.65 0.38, 8.13 -3.17, 15.65 -3.42 C23.18 -3.67, 41.18 -0.82, 46.32 -0.38 M0.32 0.67 C3.09 0.59, 10.14 -2.24, 17.74 -2.2 C25.35 -2.16, 41.03 0.53, 45.95 0.91" stroke="#000000" stroke-width="1" fill="none"></path></g></g><mask></mask><g stroke-linecap="round"><g transform="translate(88.95452780222536 321.47116642963186) rotate(0 24.110857685447144 0.44503043539461373)"><path d="M-1.18 -0.61 C3.15 -0.85, 20.54 -0.72, 27.17 -0.31 C33.79 0.11, 34.86 2.19, 38.56 1.88 C42.27 1.58, 47.95 -1.32, 49.4 -2.14 M0.4 1.68 C4.54 2.15, 20.3 0.99, 26.61 1.21 C32.93 1.42, 34.97 3.36, 38.29 2.98 C41.62 2.59, 44.78 -0.09, 46.55 -1.12" stroke="#000000" stroke-width="1" fill="none"></path></g></g><mask></mask><g stroke-linecap="round"><g transform="translate(85.77048062069503 332.71431483791065) rotate(0 27.889072697807137 -1.4455067595162916)"><path d="M0.75 -0.05 C2.8 -0.21, 8.37 -1.44, 11.11 -1.6 C13.85 -1.76, 11.52 -1.2, 17.2 -1.01 C22.88 -0.82, 39.04 -0.09, 45.19 -0.46 C51.33 -0.82, 52.64 -3.02, 54.07 -3.21 M-0.31 -1.12 C1.77 -1.07, 7.77 -0.51, 10.66 -0.29 C13.54 -0.06, 11.29 0.15, 16.99 0.21 C22.69 0.28, 38.36 0.67, 44.87 0.09 C51.39 -0.5, 54.42 -2.9, 56.09 -3.29" stroke="#000000" stroke-width="1" fill="none"></path></g></g><mask></mask><g stroke-linecap="round"><g transform="translate(86.05532351626084 269.13739371253587) rotate(0 24.083505313477076 -0.06467942786443359)"><path d="M0.94 -0.43 C4.03 -0.55, 11.78 -0.97, 19.26 -0.76 C26.75 -0.55, 41.3 0.53, 45.86 0.82 M-0.02 -1.7 C2.93 -1.63, 10.84 0.14, 18.87 0.68 C26.91 1.23, 43.55 1.42, 48.19 1.57" stroke="#000000" stroke-width="1" fill="none"></path></g></g><mask></mask><g stroke-linecap="round"><g transform="translate(86.16281171241121 303.6207227483755) rotate(0 23.235779906722314 0.5222952511035714)"><path d="M1.07 -0.17 C2.08 -0.04, 4.22 0.58, 7.02 0.36 C9.82 0.14, 11.31 -1.87, 17.86 -1.5 C24.41 -1.13, 41.27 2, 46.3 2.59 M0.17 -1.31 C1.46 -1.03, 6.38 1.23, 9.17 1.34 C11.96 1.44, 10.74 -0.51, 16.92 -0.66 C23.09 -0.82, 41.18 -0.13, 46.22 0.41" stroke="#000000" stroke-width="1" fill="none"></path></g></g><mask></mask><g stroke-linecap="round" transform="translate(228 263.55724957567224) rotate(0 62 41.5)"><path d="M20.75 0 M20.75 0 C48.52 -1.06, 76.77 -0.64, 103.25 0 M20.75 0 C51.91 -0.3, 82.82 1.06, 103.25 0 M103.25 0 C116.06 0.54, 123.56 5.26, 124 20.75 M103.25 0 C119.18 0.44, 125.49 8.28, 124 20.75 M124 20.75 C125.78 30.96, 124.71 41.69, 124 62.25 M124 20.75 C124.17 33.07, 123.82 47.64, 124 62.25 M124 62.25 C123.29 77.81, 117.9 83.66, 103.25 83 M124 62.25 C124.88 76.73, 115.16 81.68, 103.25 83 M103.25 83 C71.52 84.4, 37.64 83.17, 20.75 83 M103.25 83 C75.58 82, 47.68 82.9, 20.75 83 M20.75 83 C5.5 82.94, 0.83 74.85, 0 62.25 M20.75 83 C8.5 84.15, -1.31 76.25, 0 62.25 M0 62.25 C0.94 54.44, 1.69 42.49, 0 20.75 M0 62.25 C-0.11 48.21, -0.28 34.92, 0 20.75 M0 20.75 C-0.38 6.63, 7.4 -0.66, 20.75 0 M0 20.75 C-1.62 8.76, 9.06 -0.84, 20.75 0" stroke="#1e1e1e" stroke-width="1" fill="none"></path></g><g transform="translate(252.47999954223633 287.55724957567224) rotate(0 37.52000045776367 17.5)"><text x="37.52000045776367" y="0" font-family="Virgil, Segoe UI Emoji" font-size="28px" fill="#1e1e1e" text-anchor="middle" style="white-space: pre;" direction="ltr" dominant-baseline="text-before-edge">parse</text></g><g stroke-linecap="round" transform="translate(396 261.05724957567224) rotate(0 62 41.5)"><path d="M20.75 0 M20.75 0 C36.8 0.24, 55.23 1.12, 103.25 0 M20.75 0 C46.92 0.16, 73.02 -1.56, 103.25 0 M103.25 0 C115.4 0.49, 124.3 6.59, 124 20.75 M103.25 0 C118.35 2.14, 122.14 5.27, 124 20.75 M124 20.75 C123.09 30.74, 125.65 40.77, 124 62.25 M124 20.75 C124.48 32.7, 123.85 43.01, 124 62.25 M124 62.25 C125.95 75.25, 118.51 84.72, 103.25 83 M124 62.25 C121.91 76.85, 115.68 84.36, 103.25 83 M103.25 83 C85.04 80.37, 64.87 83.92, 20.75 83 M103.25 83 C81.3 82.3, 59.59 82.3, 20.75 83 M20.75 83 C5.94 84.82, -0.65 77.15, 0 62.25 M20.75 83 C7.25 80.78, 1.27 77.03, 0 62.25 M0 62.25 C-1.43 53.04, -1.12 39.64, 0 20.75 M0 62.25 C-0.07 51.74, 0.08 42.66, 0 20.75 M0 20.75 C-0.16 7.77, 8.64 1.02, 20.75 0 M0 20.75 C0.44 6.13, 8.76 2.03, 20.75 0" stroke="#1e1e1e" stroke-width="1" fill="none"></path></g><g transform="translate(418.7439994812012 285.05724957567224) rotate(0 39.25600051879883 17.5)"><text x="39.25600051879883" y="0" font-family="Virgil, Segoe UI Emoji" font-size="28px" fill="#1e1e1e" text-anchor="middle" style="white-space: pre;" direction="ltr" dominant-baseline="text-before-edge">embed</text></g><g stroke-linecap="round" transform="translate(565 256.05724957567224) rotate(0 62 41.5)"><path d="M20.75 0 M20.75 0 C44.39 -0.92, 68.86 1.63, 103.25 0 M20.75 0 C52.18 -0.13, 81.49 0.84, 103.25 0 M103.25 0 C115.8 -1.87, 123.68 7.4, 124 20.75 M103.25 0 C118.18 -1.49, 124.44 7.84, 124 20.75 M124 20.75 C124.39 30.97, 123.09 39.69, 124 62.25 M124 20.75 C123.33 32.05, 124.71 44.9, 124 62.25 M124 62.25 C125.99 75.77, 116.96 82.68, 103.25 83 M124 62.25 C124.11 74.86, 116.25 82.12, 103.25 83 M103.25 83 C77.52 81.94, 51.1 81.83, 20.75 83 M103.25 83 C77.07 82.32, 49.36 82.71, 20.75 83 M20.75 83 C8.86 83.64, -1.54 76.52, 0 62.25 M20.75 83 C7.87 83.25, 0.32 76.92, 0 62.25 M0 62.25 C0.2 49.95, -0.63 38.77, 0 20.75 M0 62.25 C1.26 51.34, 0.44 40.5, 0 20.75 M0 20.75 C1.14 5.09, 5.15 1.94, 20.75 0 M0 20.75 C-2.12 5.57, 7.52 -0.33, 20.75 0" stroke="#1e1e1e" stroke-width="1" fill="none"></path></g><g transform="translate(573.2679977416992 262.55724957567224) rotate(0 53.73200225830078 35)"><text x="53.73200225830078" y="0" font-family="Virgil, Segoe UI Emoji" font-size="28px" fill="#1e1e1e" text-anchor="middle" style="white-space: pre;" direction="ltr" dominant-baseline="text-before-edge">extract</text><text x="53.73200225830078" y="35" font-family="Virgil, Segoe UI Emoji" font-size="28px" fill="#1e1e1e" text-anchor="middle" style="white-space: pre;" direction="ltr" dominant-baseline="text-before-edge">tags</text></g><g transform="translate(10 196.55724957567224) rotate(0 116.87199401855469 17.5)"><text x="0" y="0" font-family="Virgil, Segoe UI Emoji" font-size="28px" fill="#1e1e1e" text-anchor="start" style="white-space: pre;" direction="ltr" dominant-baseline="text-before-edge">Articles dataset</text></g><g stroke-linecap="round"><g transform="translate(167 297.15236202392344) rotate(0 27.751100618634382 0.7094619475204524)"><path d="M0.59 -0.9 C9.84 -0.88, 46.63 0.62, 56.06 0.75 M-0.56 1.25 C8.49 1.42, 45.55 2.4, 55.15 2.31" stroke="#1e1e1e" stroke-width="1" fill="none"></path></g><g transform="translate(167 297.15236202392344) rotate(0 27.751100618634382 0.7094619475204524)"><path d="M27.24 11.71 C37.87 10.25, 45.47 3.79, 55.44 3.88 M28.8 10.82 C37.31 7.25, 48.79 4.88, 55.26 2.49" stroke="#1e1e1e" stroke-width="1" fill="none"></path></g><g transform="translate(167 297.15236202392344) rotate(0 27.751100618634382 0.7094619475204524)"><path d="M27.45 -7.45 C38.11 -2.3, 45.64 -2.16, 55.44 3.88 M29.01 -8.34 C37.59 -4.91, 48.99 -0.29, 55.26 2.49" stroke="#1e1e1e" stroke-width="1" fill="none"></path></g></g><mask></mask><g stroke-linecap="round"><g transform="translate(354 300.55724957567224) rotate(0 16.749277484789502 0.9404585450235743)"><path d="M-0.86 1.01 C5.02 1.23, 28.52 0.31, 34.36 0.14 M0.88 0.5 C6.72 1.04, 28.16 1.62, 33.6 1.74" stroke="#1e1e1e" stroke-width="1" fill="none"></path></g><g transform="translate(354 300.55724957567224) rotate(0 16.749277484789502 0.9404585450235743)"><path d="M18.91 7.65 C21.3 6.35, 24.62 4.24, 34.43 0.74 M18.09 7.75 C22.52 5.64, 28.07 3.15, 33.42 2.5" stroke="#1e1e1e" stroke-width="1" fill="none"></path></g><g transform="translate(354 300.55724957567224) rotate(0 16.749277484789502 0.9404585450235743)"><path d="M19.22 -3.98 C21.43 -2.69, 24.67 -2.23, 34.43 0.74 M18.4 -3.87 C22.77 -2.39, 28.23 -1.29, 33.42 2.5" stroke="#1e1e1e" stroke-width="1" fill="none"></path></g></g><mask></mask><g stroke-linecap="round"><g transform="translate(522 303.55724957567224) rotate(0 20.39929821616971 0.8872809297684512)"><path d="M0.23 -0.54 C7.15 -0.36, 35.31 0.8, 41.91 1.2 M-1.11 1.79 C5.7 2.09, 34.24 2.1, 41.44 2.32" stroke="#1e1e1e" stroke-width="1" fill="none"></path></g><g transform="translate(522 303.55724957567224) rotate(0 20.39929821616971 0.8872809297684512)"><path d="M21.16 10.59 C27.15 4.82, 34.64 4.16, 41.41 2.35 M22.37 9.93 C26.23 6.87, 31.41 6.93, 42.3 1.62" stroke="#1e1e1e" stroke-width="1" fill="none"></path></g><g transform="translate(522 303.55724957567224) rotate(0 20.39929821616971 0.8872809297684512)"><path d="M21.35 -3.45 C27.29 -4.57, 34.72 -0.57, 41.41 2.35 M22.56 -4.11 C26.34 -3.94, 31.48 -0.66, 42.3 1.62" stroke="#1e1e1e" stroke-width="1" fill="none"></path></g></g><mask></mask><g stroke-linecap="round"><g transform="translate(628.984729198633 342.5704443107922) rotate(0 1.1375928704784428 31.30354863081365)"><path d="M1.17 -0.84 C1.44 9.58, 1.82 52.93, 1.96 63.45 M0.32 1.33 C0.4 11.31, 0.83 51.25, 0.98 61.57" stroke="#1e1e1e" stroke-width="1" fill="none"></path></g><g transform="translate(628.984729198633 342.5704443107922) rotate(0 1.1375928704784428 31.30354863081365)"><path d="M-11.03 33.41 C-5.18 42.52, -3.65 53.16, 2.66 61.71 M-9.11 33.58 C-5.24 41.97, -3.02 51.31, 1.86 60.76" stroke="#1e1e1e" stroke-width="1" fill="none"></path></g><g transform="translate(628.984729198633 342.5704443107922) rotate(0 1.1375928704784428 31.30354863081365)"><path d="M9.49 33.15 C8.64 42.55, 3.47 53.28, 2.66 61.71 M11.41 33.32 C8.47 41.78, 3.88 51.2, 1.86 60.76" stroke="#1e1e1e" stroke-width="1" fill="none"></path></g></g><mask></mask><g transform="translate(536 344.55724957567224) rotate(0 155.1479949951172 17.5)"><text x="0" y="0" font-family="Virgil, Segoe UI Emoji" font-size="28px" fill="#1e1e1e" text-anchor="start" style="white-space: pre;" direction="ltr" dominant-baseline="text-before-edge">upload enriched article</text></g><g stroke-linecap="round"><g transform="translate(508.6365392890915 48.55862130045469) rotate(0 14.016068552577565 -15.293707043750757)" fill-rule="evenodd"><path d="M0.47 0.7 L3.28 -5.14 L7.38 -7.52 L13.06 -10.27 L17.72 -12.89 L23.53 -13.05 L32.07 -12.89 L35.53 -10.02 L40.97 -7.19 L61.54 -23.97 L52.12 -26.05 L47.45 -30.38 L43.53 -35.33 L31.93 -36.88 L24.47 -39.39 L12.51 -37.93 L4.23 -35.35 L-3.55 -31.35 L-13.68 -21.35 L-20.58 -17.22 L-24.21 -9.52 L-25.74 -4.52 L-29.36 8.2 L-0.04 0.03" stroke="none" stroke-width="0" fill="#ea4335" fill-rule="evenodd"></path><path d="M0.23 0.1 C0.88 -2.08, 2.16 -4.53, 3.38 -6.19 M0.25 -0.29 C0.46 -1.45, 1.65 -2.03, 3.2 -5.61 M3.66 -6.24 C4.35 -6.7, 4.93 -7.51, 6.95 -9.68 M3.08 -5.87 C4.52 -6.65, 5.39 -7.55, 7.5 -9.37 M7.11 -8.68 C8.28 -9.58, 9.75 -10.37, 13.24 -11.5 M7.56 -9.24 C8.72 -10.05, 10.2 -10.33, 13.02 -11.6 M12.63 -11.76 C14.47 -11.31, 14.96 -12.21, 18.04 -13.09 M12.56 -11.68 C14.37 -11.74, 16.09 -12.08, 18.62 -12.73 M18.82 -12.5 C20.87 -12.47, 23.36 -12.85, 23.76 -13.65 M18.27 -12.89 C20.47 -13.22, 22.59 -13.33, 24.03 -13.54 M24.63 -12.86 C27.34 -12.84, 30.29 -12.26, 30.96 -13.13 M23.72 -13.33 C25.55 -13.3, 27.44 -12.8, 31.11 -12.6 M30.61 -12.64 C32.28 -12.08, 33.88 -12.19, 37.62 -10.72 M31.37 -12.65 C33.38 -12.14, 35.67 -11.34, 37.22 -10.64 M36.82 -11.42 C38.17 -10.1, 39.56 -8.85, 42.33 -7.26 M37.19 -10.87 C39 -10.08, 40.46 -8.97, 42.35 -7.64 M44.43 -8.94 C47.29 -12.12, 54.53 -18.01, 60.29 -24.69 M42.01 -7.12 C45.89 -10.92, 50.15 -16.37, 59.42 -23.32 M60.16 -23.76 C57.59 -25.49, 55.84 -26.44, 53.72 -28.73 M60.04 -23.61 C57.9 -25.33, 55.05 -26.83, 53.97 -28.26 M53.86 -27.65 C53.22 -29.52, 51.13 -29.73, 47.77 -32.52 M53.66 -28 C52.31 -29.58, 50.89 -30.56, 47.88 -32.3 M47.89 -32.32 C45.5 -33.17, 44.1 -34.01, 41.66 -34.81 M47.68 -32.22 C46.53 -32.79, 45.03 -32.9, 42.26 -34.43 M42.17 -34.43 C38.22 -34.99, 35.67 -36.1, 33.59 -37.37 M42.15 -34.05 C40.2 -35.04, 37.84 -35.78, 33.03 -37.11 M33.69 -37.25 C30.4 -38.07, 24.94 -38.28, 23.36 -37.26 M33.08 -37.87 C30.04 -37.19, 26.69 -37.18, 22.67 -38.19 M21.61 -38.56 C21.03 -38.06, 17.43 -37.48, 12.27 -37.09 M22.57 -37.87 C19.56 -36.99, 17.43 -37.12, 13.64 -35.93 M12.9 -37.01 C10.8 -35.05, 7.08 -34.96, 3.36 -33.63 M13.23 -35.91 C10.65 -35.19, 8.75 -35.38, 3.2 -33.54 M2.77 -34.22 C1.64 -32.58, -0.97 -31.12, -5.18 -29.65 M3.07 -33.45 C0.68 -32.3, -1.8 -31.29, -4.65 -29.91 M-4.12 -29.14 C-8.08 -27.08, -10.83 -26.17, -13.74 -22.55 M-4.38 -29.11 C-6.9 -27.36, -10.32 -25.3, -13.36 -22.54 M-12.81 -21.84 C-16.02 -20.41, -17.33 -18.56, -18.83 -17.19 M-13.7 -22.13 C-15.52 -20.21, -17.76 -18.26, -18.93 -16.67 M-18.91 -16.27 C-21.49 -13.76, -22.1 -10.89, -23.88 -10.19 M-18.97 -16.61 C-20.31 -14.41, -21.57 -12.5, -23.25 -9.77 M-23.57 -9.27 C-24.91 -6.88, -25.64 -4.63, -26.27 -2.96 M-23.75 -9.85 C-24.58 -7.48, -25.93 -5.31, -27.19 -3.17 M-27.78 -2.67 C-28.82 1.73, -29.37 4.47, -29.39 7.97 M-26.36 -2.74 C-27.71 -0.42, -28.67 2.52, -29.96 7.82 M-32.26 5.33 C-20.46 5.78, -11.69 0.96, -0.51 -2.28 M-29.55 7.56 C-22.54 4.41, -14.58 3.29, -0.17 -0.1 M-0.31 -0.35 C-0.18 -0.3, -0.07 -0.12, 0.04 -0.03 M-0.26 -0.37 C-0.18 -0.27, -0.11 -0.12, -0.01 -0.01" stroke="#b42d21" stroke-width="1" fill="none"></path></g></g><mask></mask><g stroke-linecap="round"><g transform="translate(532.4564551312649 98.05273418640797) rotate(0 -26.84150233332656 11.313320791719818)" fill-rule="evenodd"><path d="M0.59 0.23 L0.13 23.52 L-34.47 24.47 L-41.33 21.51 L-51.5 20.81 L-52.59 15.6 L-37.24 -0.49 L-29.74 1.1 L-1.38 1.89" stroke="none" stroke-width="0" fill="#34a853" fill-rule="evenodd"></path><path d="M-1.13 0.29 C-0.92 7.21, 0.27 14.42, -2.01 22.3 M-0.8 -0.79 C0.95 9.69, -0.16 18, -0.94 23.67 M0.57 23.48 C-8.62 22.79, -18.01 22.17, -35.07 24.44 M0.73 24.27 C-10.97 23.9, -22.09 23.45, -34.67 23.37 M-34.6 24.3 C-37.42 23.32, -39.61 22.68, -42.6 22.64 M-34.22 23.73 C-37.17 23.58, -39.58 22.54, -42.77 22.44 M-41.65 22.71 C-44.24 21.07, -46.34 20.18, -49.83 19.43 M-42.33 22.36 C-44.94 21.06, -47.89 19.61, -49.26 19.05 M-49.46 19.36 C-50.31 18.54, -52.19 17.24, -53.81 15.73 M-49.71 18.71 C-51.36 17.7, -53.16 16.52, -53.93 16.42 M-52.84 16.76 C-45.97 10.66, -41.94 0.78, -38.73 0.21 M-54.41 15.54 C-49.3 12.3, -46.24 7.63, -37.74 -1.2 M-37.47 -1.56 C-35.5 -1.51, -33.14 -0.39, -30.69 0.35 M-37.19 -1.81 C-34.8 -0.9, -32.42 0.04, -31.33 0.17 M-32.27 0.1 C-22.8 1.85, -13.67 1.54, -0.66 2.1 M-30.53 -0.48 C-24.57 0.11, -19.57 0.08, -0.28 -0.66 M-0.4 0.16 C-0.24 0.09, -0.13 0.03, -0.02 0 M-0.4 0.16 C-0.28 0.08, -0.15 0.06, 0.01 0.02" stroke="#216f36" stroke-width="1" fill="none"></path></g></g><mask></mask><g stroke-linecap="round"><g transform="translate(568.3124689047709 24.267067319661322) rotate(0 -1.8554904332063984 49.44005025044892)" fill-rule="evenodd"><path d="M-0.98 1.85 L-17.78 16.41 L-15.27 22.13 L-9.51 23.6 L-9.02 31.07 L-4.23 38.09 L-5.42 41.63 L-0.59 42.43 L2.83 46.18 L9.01 52.63 L9.56 60.06 L9.67 66.07 L4.35 72.22 L0.21 72.56 L-6.87 72.52 L-36.43 73.15 L-34.23 97.73 L0.75 98.05 L9.43 94.78 L17.32 90.42 L22.62 87.1 L27.3 76.7 L32.34 70.32 L32.25 57.56 L32.29 45.98 L26.33 38.35 L23.49 31.51 L17.73 25.95 L13.04 14.43 L8.28 8.73 L0.32 1.03" stroke="none" stroke-width="0" fill="#4285f4" fill-rule="evenodd"></path><path d="M-0.99 -0.58 C-5.2 4.1, -12.7 8.61, -15.67 18.16 M0.78 0.98 C-4.06 4.02, -8.25 6.46, -17.47 17.34 M-16.99 16.37 C-16.55 17.13, -15.58 18.6, -13.16 20.32 M-16.8 16.63 C-15.79 17.65, -15.06 18.75, -13.1 20.62 M-13.49 20.73 C-11.6 22.55, -10.93 24.67, -9.75 25.59 M-13.43 20.93 C-12.13 22.03, -11.68 23.66, -10.26 25.28 M-10.25 25.05 C-9.86 26.47, -8.75 28.86, -6.63 31 M-9.87 25.5 C-9.29 26.78, -8.41 28.32, -7.41 31.66 M-6.73 31.78 C-7.19 33.05, -6.1 34.92, -5.66 36.75 M-7.24 31.32 C-7.05 32.61, -6.48 34.57, -5.92 37.52 M-5.63 37.72 C-6.19 38.96, -6.28 42.16, -6.07 42.74 M-5.98 37.38 C-6.15 38.96, -6.11 40.84, -5.69 43.03 M-5.85 42.95 C-3.8 43.71, -2.17 43.98, 0.28 44.48 M-5.74 43.33 C-4.23 43.79, -2.92 43.82, -0.25 44.07 M-0.46 44.61 C0.41 45.17, 1.47 46.04, 3.53 47.22 M-0.14 44.22 C0.83 45.14, 2.33 45.85, 4.13 47.53 M4.37 47.2 C5.05 48.26, 5.53 49.74, 8.25 52.34 M3.73 47.01 C5.19 49.33, 7.01 51.33, 8.2 52.78 M8.27 53.11 C8.24 54.22, 9.53 57.56, 9.19 59.59 M7.92 53.05 C8.61 54.99, 8.85 57.63, 9.17 59.6 M9.39 59.9 C8.73 61.53, 8.24 63.98, 7.4 65.45 M9.64 59.47 C8.84 61.44, 8.62 63.36, 7.87 65.96 M8.07 65.6 C6.16 66.64, 5.33 68.19, 4.26 70.02 M7.94 66.29 C6.81 67.02, 5.91 68.76, 3.82 70.61 M4.04 71.02 C2.54 71.41, 0.74 72.2, -0.66 73 M3.75 70.63 C1.97 71.67, 0.64 72.01, -1.3 73.16 M-1.43 72.77 C-2.61 73.54, -4.99 73.83, -6.82 73.52 M-0.86 73.3 C-2.46 73.01, -4.19 73.64, -7.3 73.42 M-8.31 72.76 C-15.39 71.72, -20.1 72.75, -34.71 73.78 M-7.29 73.27 C-14.27 74.56, -22.89 73.5, -35.2 73.19 M-35.13 72.66 C-35.3 78.98, -37.1 85.41, -34.1 97.75 M-36 72.87 C-36 82.57, -36.75 90.41, -35.11 97.05 M-37.56 99.46 C-28.04 97.37, -18.76 98.33, -1.26 96.36 M-34.96 96.94 C-23.33 96.86, -12.16 98.27, -1.39 98.12 M-1.79 96.63 C1.84 96.72, 5.01 96.08, 7.37 96.58 M-1.64 97.7 C2.57 96.63, 6.24 95.82, 8.05 96.13 M8.52 95.51 C11.73 93.42, 14.68 91.49, 16.39 90.95 M8.16 95.72 C11.61 93.95, 14.61 92.46, 16.35 91.46 M16.75 91.37 C18.26 88.71, 20.65 88.09, 22.63 86.64 M16.27 91.42 C18.62 89.3, 20.49 88.22, 22.7 85.95 M23.14 86.64 C25.51 83.5, 26.93 81.11, 28.45 77.72 M22.83 85.6 C23.56 84.28, 25.49 82.61, 27.66 77.59 M28.28 77.55 C30.35 75.35, 30.57 72.49, 32.84 69.91 M28.11 77.96 C29.94 74.92, 31.13 70.9, 31.64 68.47 M32.07 67.94 C32.05 65.75, 32.06 64.6, 33.35 59.06 M31.85 69 C32.44 65.61, 32.79 62.21, 33.6 57.7 M33.85 58.85 C33.67 53.61, 32.48 50.21, 32.44 47.87 M32.89 58.43 C32.62 54.25, 32.43 51, 31.91 47.85 M32.53 47.27 C30.44 44.69, 29.31 42.67, 27.31 37.68 M32.29 47.64 C30.01 45.07, 28.83 41.89, 27.82 38.27 M26.77 38.24 C25.56 37.29, 24.37 35.77, 21.74 31.21 M27.36 38.55 C26.03 35.65, 24.22 33.54, 22.57 31.35 M22 31.2 C20.03 29.53, 18.02 27.33, 16.8 25.95 M22.27 31.24 C20.02 29.49, 17.9 27.8, 16.51 26.38 M16.3 25.58 C14.3 22.59, 13.91 19.81, 12.9 14.56 M16.69 25.93 C15.67 23.55, 14.09 20.13, 12.07 14.87 M11.31 14.66 C10.73 12.47, 9.76 11, 7.65 9.06 M12.01 15.17 C11.18 13.92, 10.11 11.94, 7.67 8.49 M6.98 7.37 C4.6 5.79, 3.44 1.58, 0.89 0.9 M7.56 8.92 C5.53 5.39, 3.53 2.79, 0.72 0.45 M0.56 0.17 C0.34 0.14, 0.21 0.07, -0.05 -0.02 M0.54 0.16 C0.42 0.16, 0.28 0.11, 0.03 -0.01" stroke="#1864ab" stroke-width="1" fill="none"></path></g></g><mask></mask><g stroke-linecap="round"><g transform="translate(515.5182340075667 75.97907400794395) rotate(0 -17.560823485391154 2.8859525098546897)" fill-rule="evenodd"><path d="M0.61 0.17 L15.96 -17.57 L8.18 -25.26 L1.67 -29.21 L-7.95 -32.28 L-19.32 -33.8 L-31.41 -28.81 L-41.01 -20.93 L-47.72 -12.24 L-49.89 -5.61 L-51.46 6.89 L-52.81 17.36 L-47.18 25.59 L-45.51 31.54 L-37.34 39.44 L-19.92 20.8 L-26.44 13.18 L-29.71 7.5 L-26.67 -2.1 L-20.84 -6.07 L-13.04 -7.95 L-4.78 -3.53" stroke="none" stroke-width="0" fill="#fbbc05" fill-rule="evenodd"></path><path d="M0.21 -1.18 C3.71 -7.32, 12.48 -9.36, 16.09 -18.92 M-0.32 0.58 C2.9 -4.55, 7.12 -7.17, 16.99 -17.03 M16.86 -18.21 C15.23 -19.04, 14.06 -22.07, 9.81 -23.77 M17.94 -17.61 C15.08 -19.88, 13.49 -22.06, 10.59 -24.96 M10.88 -24.61 C7.02 -25.74, 5 -27.51, 1.68 -30.05 M10.51 -24.77 C7.63 -25.44, 5.73 -27.04, 1.5 -29.1 M0.74 -30.25 C-2.7 -30.04, -5.47 -32.78, -10.31 -32.65 M1.9 -29.54 C-1.64 -30.44, -6.39 -31.4, -9.32 -32.58 M-10.08 -33.4 C-12.47 -33.3, -15.84 -33.13, -19.47 -32.48 M-9.63 -33.22 C-11.12 -32.28, -13.12 -32.19, -18.66 -31.86 M-19.39 -33.16 C-23.86 -29.91, -27.57 -31.23, -31.15 -29.34 M-19.14 -32.25 C-22.14 -31.12, -24.56 -31.27, -31.02 -29.42 M-30.14 -28.77 C-33.22 -26.44, -36.18 -23.84, -41.59 -21.91 M-30.95 -28.61 C-33.85 -27.25, -36.02 -25.73, -41.78 -21.84 M-41.66 -20.89 C-43.32 -17.91, -46.18 -16.62, -47.86 -12.41 M-41.62 -21.54 C-42.63 -19.97, -44.06 -17.1, -48.15 -13.3 M-47.69 -13.5 C-49.53 -10.14, -49.94 -7.57, -50.99 -4.77 M-48.12 -12.82 C-48.94 -9.29, -50.43 -6.24, -51.43 -3.98 M-51.83 -4.8 C-50.82 -0.05, -52.49 1.94, -52.19 7.46 M-51.47 -4.13 C-52.32 -0.23, -52.78 3.39, -52.52 7.21 M-53.06 6.21 C-52.65 8.71, -52.78 10.3, -51.28 16.1 M-52.92 6.5 C-52.18 8.35, -52.12 10.44, -51.5 15.74 M-52.07 15.3 C-50.9 17.65, -49.08 19.18, -48.66 23.94 M-51.26 15.81 C-50.2 18.31, -49.7 19.84, -48.5 23.6 M-48.11 23.91 C-47.3 26.64, -44.68 28.84, -43.86 31.53 M-48.6 24.14 C-46.93 25.49, -46.29 28.16, -44.06 31.48 M-43.34 31.58 C-42.03 33.69, -39.57 34.72, -37.52 38.98 M-44.01 30.69 C-41.73 34.11, -38.82 35.91, -37.3 38.91 M-38.85 36.71 C-33.51 33.58, -28.28 30.24, -20.69 18.09 M-35.95 39.17 C-30.52 31.34, -24.22 24.43, -21 20.56 M-20.24 19.8 C-22.94 18.42, -23.67 16.38, -25.7 13.94 M-20.36 19.87 C-22.93 17.42, -24.65 15.55, -26.49 14.64 M-26.48 14.56 C-26.68 12.44, -27.72 9.07, -28.3 6.72 M-26 14.33 C-26.98 12.53, -27.8 10.1, -28.47 6.4 M-28.76 6.55 C-27.92 3.96, -27.66 2.26, -25.5 -0.48 M-28.48 6.55 C-27.5 3.7, -26.96 1.54, -25.88 -1.36 M-25.74 -1.64 C-24.31 -3.54, -23.03 -4.78, -20.73 -6.49 M-25.83 -1.17 C-24.18 -2.91, -22.7 -4.77, -21.14 -6.98 M-21.53 -7.43 C-18.93 -6.8, -16.43 -7.19, -12.91 -8.23 M-20.89 -6.99 C-18.11 -7.12, -15.44 -8.09, -12.85 -8.72 M-12.21 -8.29 C-9.48 -6.83, -6.57 -6.41, -5.49 -4.78 M-13.37 -8.55 C-10.53 -7.62, -9.26 -7.21, -4.51 -5.48 M-4.12 -4.83 C-3.13 -2.61, -0.51 -0.54, 0.61 0.04 M-4.48 -4.92 C-3.36 -3.82, -2.29 -2.61, -0.35 0.11" stroke="#c7970f" stroke-width="1" fill="none"></path></g></g><mask></mask><g transform="translate(495 171.55724957567224) rotate(0 44.70199966430664 17.5)"><text x="0" y="0" font-family="Virgil, Segoe UI Emoji" font-size="28px" fill="#1e1e1e" text-anchor="start" style="white-space: pre;" direction="ltr" dominant-baseline="text-before-edge">PaLM </text></g><g stroke-linecap="round"><g transform="translate(459 252.55724957567224) rotate(0 23.56809932377189 -62.54816580973565)"><path d="M0.94 0.42 C8.43 -20.34, 37.51 -104.61, 44.98 -125.52 M-0.02 -0.4 C7.82 -20.92, 39.67 -103.7, 47.16 -124.26" stroke="#1e1e1e" stroke-width="1" fill="none"></path></g><g transform="translate(459 252.55724957567224) rotate(0 23.56809932377189 -62.54816580973565)"><path d="M47.55 -95.95 C46.31 -103.75, 47.2 -113.84, 47.66 -123.28 M47.5 -93.6 C46.41 -102.05, 47.74 -111.77, 47.47 -123.3" stroke="#1e1e1e" stroke-width="1" fill="none"></path></g><g transform="translate(459 252.55724957567224) rotate(0 23.56809932377189 -62.54816580973565)"><path d="M28.34 -103.18 C32.9 -108.92, 39.65 -116.81, 47.66 -123.28 M28.29 -100.82 C32.7 -107.04, 39.56 -114.68, 47.47 -123.3" stroke="#1e1e1e" stroke-width="1" fill="none"></path></g></g><mask></mask><g stroke-linecap="round"><g transform="translate(616 248.55724957567224) rotate(0 -29.094748226348372 -60.78245921126566)"><path d="M-0.58 0.05 C-10.16 -19.95, -48.96 -99.7, -58.71 -120.01 M1.32 -0.97 C-8.3 -21.29, -49.3 -101.63, -59.51 -121.62" stroke="#1e1e1e" stroke-width="1" fill="none"></path></g><g transform="translate(616 248.55724957567224) rotate(0 -29.094748226348372 -60.78245921126566)"><path d="M-37.48 -100.69 C-40.34 -105.61, -47.74 -110.61, -58.26 -121.03 M-38.33 -100.69 C-44.77 -108.04, -50.45 -113.84, -60.07 -121.87" stroke="#1e1e1e" stroke-width="1" fill="none"></path></g><g transform="translate(616 248.55724957567224) rotate(0 -29.094748226348372 -60.78245921126566)"><path d="M-55.76 -91.37 C-54.94 -98.07, -58.65 -104.95, -58.26 -121.03 M-56.61 -91.36 C-57.3 -101.8, -57.28 -110.51, -60.07 -121.87" stroke="#1e1e1e" stroke-width="1" fill="none"></path></g></g><mask></mask><g transform="translate(867.9675754458783 481.7292364735898) rotate(0 23 12.5)"><text x="0" y="0" font-family="Virgil, Segoe UI Emoji" font-size="20px" fill="#000000" text-anchor="start" style="white-space: pre;" direction="ltr" dominant-baseline="text-before-edge">User</text></g><g stroke-linecap="round"><g transform="translate(865.1803547973709 472.0763104636111) rotate(0 25.819645202628976 -21.795699329337083)" fill-rule="evenodd"><path d="M13.47 -38.64 C13.47 -38.64, 13.47 -38.64, 13.47 -38.64 M13.47 -38.64 C13.47 -38.64, 13.47 -38.64, 13.47 -38.64 M7.04 -19.05 C14.46 -27.58, 21.87 -36.11, 26.72 -41.69 M7.04 -19.05 C14.33 -27.44, 21.63 -35.83, 26.72 -41.69 M0.61 0.53 C8.82 -8.9, 17.02 -18.34, 35.39 -39.47 M0.61 0.53 C8.46 -8.49, 16.31 -17.52, 35.39 -39.47 M11.24 0.5 C19.7 -9.23, 28.16 -18.95, 40.77 -33.46 M11.24 0.5 C17.6 -6.81, 23.95 -14.12, 40.77 -33.46 M21.87 0.47 C28.5 -7.15, 35.12 -14.77, 46.81 -28.21 M21.87 0.47 C31.83 -10.99, 41.79 -22.44, 46.81 -28.21 M29.22 4.2 C35.37 -2.87, 41.52 -9.94, 50.87 -20.7 M29.22 4.2 C37.7 -5.55, 46.18 -15.3, 50.87 -20.7 M41.82 1.91 C45.06 -1.82, 48.3 -5.55, 54.94 -13.19 M41.82 1.91 C46.9 -3.94, 51.98 -9.78, 54.94 -13.19 M0 0 C0 0, 0 0, 0 0 M0 0 C0 0, 0 0, 0 0 M12.04 -0.13 C9.58 -2.27, 7.13 -4.4, 1.47 -9.32 M12.04 -0.13 C8.37 -3.33, 4.69 -6.52, 1.47 -9.32 M24.84 0.39 C19.65 -4.12, 14.47 -8.62, 2.95 -18.64 M24.84 0.39 C19.03 -4.66, 13.22 -9.71, 2.95 -18.64 M30.08 -5.65 C23.25 -11.59, 16.41 -17.54, 6.69 -25.99 M30.08 -5.65 C24.29 -10.68, 18.5 -15.72, 6.69 -25.99 M45.9 -2.5 C34.79 -12.16, 23.68 -21.82, 9.67 -33.99 M45.9 -2.5 C34.28 -12.6, 22.66 -22.7, 9.67 -33.99 M52.66 -7.23 C44.6 -14.23, 36.55 -21.23, 14.92 -40.03 M52.66 -7.23 C39.04 -19.07, 25.42 -30.91, 14.92 -40.03 M51.11 -19.17 C42.23 -26.89, 33.35 -34.61, 20.92 -45.41 M51.11 -19.17 C44.37 -25.03, 37.63 -30.89, 20.92 -45.41" stroke="#ced4da" stroke-width="1" fill="none"></path><path d="M0 0 C0.92 -4.85, 1.58 -21.76, 5.52 -29.07 C9.46 -36.38, 17.61 -43.34, 23.65 -43.87 C29.69 -44.4, 37.51 -39.05, 41.78 -32.24 C46.05 -25.43, 56.23 -8.39, 49.27 -3.02 C42.31 2.36, 8.21 -0.5, 0 0 M0 0 C0.92 -4.85, 1.58 -21.76, 5.52 -29.07 C9.46 -36.38, 17.61 -43.34, 23.65 -43.87 C29.69 -44.4, 37.51 -39.05, 41.78 -32.24 C46.05 -25.43, 56.23 -8.39, 49.27 -3.02 C42.31 2.36, 8.21 -0.5, 0 0" stroke="#000000" stroke-width="2" fill="none"></path></g></g><mask></mask><g stroke-linecap="round" transform="translate(877.6342256336866 405.38526267775467) rotate(0 12.612971703843186 11.036350240862816)"><path d="M2.98 3.91 C2.98 3.91, 2.98 3.91, 2.98 3.91 M2.98 3.91 C2.98 3.91, 2.98 3.91, 2.98 3.91 M2.45 16.71 C5.96 12.67, 9.47 8.64, 16.23 0.86 M2.45 16.71 C7.62 10.77, 12.78 4.82, 16.23 0.86 M8.49 21.96 C13.66 16.02, 18.82 10.07, 23.58 4.6 M8.49 21.96 C11.77 18.18, 15.05 14.41, 23.58 4.6 M4.36 19.37 C4.36 19.37, 4.36 19.37, 4.36 19.37 M4.36 19.37 C4.36 19.37, 4.36 19.37, 4.36 19.37 M17.91 20.55 C12.37 15.72, 6.82 10.9, 1.31 6.11 M17.91 20.55 C13.34 16.57, 8.77 12.6, 1.31 6.11 M24.67 15.82 C20.32 12.03, 15.96 8.25, 7.31 0.73 M24.67 15.82 C18.54 10.49, 12.41 5.16, 7.31 0.73" stroke="#ced4da" stroke-width="1" fill="none"></path><path d="M25.23 11.04 C25.23 11.68, 25.16 12.32, 25.03 12.95 C24.91 13.58, 24.71 14.21, 24.47 14.81 C24.22 15.41, 23.9 16, 23.54 16.55 C23.17 17.11, 22.74 17.64, 22.28 18.13 C21.81 18.62, 21.28 19.08, 20.72 19.49 C20.16 19.9, 19.55 20.27, 18.92 20.59 C18.29 20.91, 17.61 21.19, 16.93 21.41 C16.24 21.63, 15.52 21.79, 14.8 21.91 C14.08 22.02, 13.34 22.07, 12.61 22.07 C11.88 22.07, 11.14 22.02, 10.42 21.91 C9.7 21.79, 8.99 21.63, 8.3 21.41 C7.61 21.19, 6.94 20.91, 6.31 20.59 C5.67 20.27, 5.06 19.9, 4.51 19.49 C3.95 19.08, 3.42 18.62, 2.95 18.13 C2.48 17.64, 2.05 17.11, 1.69 16.55 C1.32 16, 1.01 15.41, 0.76 14.81 C0.51 14.21, 0.32 13.58, 0.19 12.95 C0.06 12.32, 0 11.68, 0 11.04 C0 10.4, 0.06 9.75, 0.19 9.12 C0.32 8.49, 0.51 7.86, 0.76 7.26 C1.01 6.66, 1.32 6.07, 1.69 5.52 C2.05 4.96, 2.48 4.43, 2.95 3.94 C3.42 3.45, 3.95 2.99, 4.51 2.58 C5.06 2.17, 5.67 1.8, 6.31 1.48 C6.94 1.16, 7.61 0.88, 8.3 0.67 C8.99 0.45, 9.7 0.28, 10.42 0.17 C11.14 0.06, 11.88 0, 12.61 0 C13.34 0, 14.08 0.06, 14.8 0.17 C15.52 0.28, 16.24 0.45, 16.93 0.67 C17.61 0.88, 18.29 1.16, 18.92 1.48 C19.55 1.8, 20.16 2.17, 20.72 2.58 C21.28 2.99, 21.81 3.45, 22.28 3.94 C22.74 4.43, 23.17 4.96, 23.54 5.52 C23.9 6.07, 24.22 6.66, 24.47 7.26 C24.71 7.86, 24.91 8.49, 25.03 9.12 C25.16 9.75, 25.19 10.72, 25.23 11.04 C25.26 11.36, 25.26 10.72, 25.23 11.04" stroke="#000000" stroke-width="2" fill="none"></path></g><g stroke-linecap="round"><g transform="translate(426 475.61726361744275) rotate(0 73.85111590526071 -1.1588727699016204)"><path d="M0.87 -0.35 C25.66 -0.62, 123.15 -1.74, 147.84 -1.97 M-0.14 -1.58 C24.56 -1.69, 121.99 -1.04, 146.81 -0.9" stroke="#1e1e1e" stroke-width="1" fill="none"></path></g><g transform="translate(426 475.61726361744275) rotate(0 73.85111590526071 -1.1588727699016204)"><path d="M117.97 8.92 C123.43 8.39, 130.17 4.71, 148.55 -1.4 M117.89 8.75 C128.91 4.19, 141.22 1.74, 147.57 -0.22" stroke="#1e1e1e" stroke-width="1" fill="none"></path></g><g transform="translate(426 475.61726361744275) rotate(0 73.85111590526071 -1.1588727699016204)"><path d="M118.09 -11.6 C123.46 -7.52, 130.18 -6.57, 148.55 -1.4 M118.01 -11.77 C128.84 -8.26, 141.11 -2.64, 147.57 -0.22" stroke="#1e1e1e" stroke-width="1" fill="none"></path></g></g><mask></mask><g transform="translate(447 440.55724957567224) rotate(0 44.5620002746582 35)"><text x="44.5620002746582" y="0" font-family="Virgil, Segoe UI Emoji" font-size="28px" fill="#1e1e1e" text-anchor="middle" style="white-space: pre;" direction="ltr" dominant-baseline="text-before-edge">knn</text><text x="44.5620002746582" y="35" font-family="Virgil, Segoe UI Emoji" font-size="28px" fill="#1e1e1e" text-anchor="middle" style="white-space: pre;" direction="ltr" dominant-baseline="text-before-edge">search</text></g><g stroke-linecap="round" transform="translate(293 435.05724957567224) rotate(0 62 41.5)"><path d="M20.75 0 M20.75 0 C40.54 0.38, 63.66 -2.13, 103.25 0 M20.75 0 C48.06 -1.31, 74.75 -0.32, 103.25 0 M103.25 0 C115.11 -0.38, 123.26 6.84, 124 20.75 M103.25 0 C114.99 -0.14, 121.75 8.31, 124 20.75 M124 20.75 C125.13 34.09, 125.72 50.85, 124 62.25 M124 20.75 C124.68 30.56, 123.89 40.31, 124 62.25 M124 62.25 C125.97 75.89, 116.19 84.96, 103.25 83 M124 62.25 C122.83 76.35, 118.74 83.86, 103.25 83 M103.25 83 C81.37 83.3, 62.52 81.49, 20.75 83 M103.25 83 C71.05 83.14, 38.97 83.81, 20.75 83 M20.75 83 C8.54 84.59, -0.22 75.67, 0 62.25 M20.75 83 C6.93 84.81, 2.2 78.23, 0 62.25 M0 62.25 C1.03 48.61, -0.3 30.6, 0 20.75 M0 62.25 C0.68 50.91, -0.54 40.54, 0 20.75 M0 20.75 C0.39 5.04, 5.95 -1.13, 20.75 0 M0 20.75 C-1.82 5.52, 5.88 -2.08, 20.75 0" stroke="#1e1e1e" stroke-width="1" fill="none"></path></g><g transform="translate(315.7439994812012 459.05724957567224) rotate(0 39.25600051879883 17.5)"><text x="39.25600051879883" y="0" font-family="Virgil, Segoe UI Emoji" font-size="28px" fill="#1e1e1e" text-anchor="middle" style="white-space: pre;" direction="ltr" dominant-baseline="text-before-edge">embed</text></g><g stroke-linecap="round" transform="translate(88.18944849366949 423.79484241076057) rotate(0 35.339290345615666 53.625409397054625)"><path d="M1.61 0.09 L69.77 -0.11 L69.56 107.54 L-0.18 108.72" stroke="none" stroke-width="0" fill="#fff"></path><path d="M-0.05 -1.45 C13.49 1.16, 27.31 -1.41, 71.31 0.67 M0.2 0.86 C27.22 0.79, 55.61 0.74, 69.9 -0.81 M68.93 1.96 C71.72 25.99, 67.92 48.26, 69.01 106.89 M71.3 0.29 C71.87 39.23, 70.83 77.98, 70.18 106.44 M70.83 107.64 C44.78 107.29, 15.25 108.84, 0.31 106.44 M71.5 106.82 C46.45 107.32, 24.63 107.67, -0.88 106.82 M0.22 109.18 C2.23 85.61, 1.79 60.64, -0.25 1.63 M-0.98 106.56 C0.9 67.17, -0.37 24.86, 0.37 0.73" stroke="#000000" stroke-width="2" fill="none"></path></g><g stroke-linecap="round"><g transform="translate(100.17587508058045 472.5420794581132) rotate(0 23.584707946348374 -1.561360392359461)"><path d="M-0.87 -0.58 C6.01 -0.7, 33.27 -0.43, 41.02 -0.79 C48.78 -1.15, 44.65 -2.51, 45.64 -2.71 M0.87 1.74 C7.67 1.73, 32.53 1.35, 40.39 0.25 C48.25 -0.85, 46.87 -4.15, 48.04 -4.86" stroke="#000000" stroke-width="1" fill="none"></path></g></g><mask></mask><g stroke-linecap="round"><g transform="translate(102.03112731859483 441.07679215927476) rotate(0 22.712450592059497 -1.6058201028818644)"><path d="M0.6 -0.95 C3.39 -1.26, 8.33 -2.71, 15.89 -2.43 C23.46 -2.14, 41.17 0.41, 45.97 0.77 M-0.55 1.17 C2.7 0.54, 10.45 -3.99, 18.11 -4.35 C25.77 -4.71, 41.03 -1.87, 45.42 -1" stroke="#000000" stroke-width="1" fill="none"></path></g></g><mask></mask><g stroke-linecap="round"><g transform="translate(101.95452780222536 508.4711664296318) rotate(0 24.002250289727385 0.3931182299916145)"><path d="M-0.94 0.38 C3.43 0.68, 20.54 0.51, 26.82 0.84 C33.09 1.17, 33.1 2.66, 36.72 2.36 C40.35 2.07, 46.72 -0.37, 48.57 -0.93 M0.77 -0.47 C4.96 -0.4, 19.68 -1.41, 26.08 -0.71 C32.47 -0.01, 35.33 4.08, 39.15 3.71 C42.96 3.33, 47.18 -1.7, 48.94 -2.94" stroke="#000000" stroke-width="1" fill="none"></path></g></g><mask></mask><g stroke-linecap="round"><g transform="translate(98.77048062069503 519.7143148379106) rotate(0 26.975041990309933 0.004272476926814761)"><path d="M0.4 1.09 C2.1 0.84, 6.61 -0.97, 9.27 -1.12 C11.93 -1.27, 10.29 -0.26, 16.37 0.19 C22.45 0.64, 39.35 1.85, 45.75 1.59 C52.16 1.33, 53.51 -0.56, 54.79 -1.37 M-0.84 0.62 C1.31 0.55, 8.75 0.81, 11.51 0.44 C14.27 0.07, 10.02 -1.46, 15.72 -1.61 C21.43 -1.76, 39.43 -0.64, 45.74 -0.45 C52.04 -0.26, 52.08 -0.37, 53.53 -0.49" stroke="#000000" stroke-width="1" fill="none"></path></g></g><mask></mask><g stroke-linecap="round"><g transform="translate(99.05532351626084 456.13739371253587) rotate(0 22.76212665323783 0.812278627730791)"><path d="M-0.9 0.05 C2.11 -0.06, 10.54 -0.03, 18.43 0.44 C26.32 0.91, 41.61 2.47, 46.42 2.86 M0.83 -0.97 C3.66 -0.88, 10.18 -1.47, 17.61 -1.14 C25.03 -0.8, 40.36 0.72, 45.39 1.04" stroke="#000000" stroke-width="1" fill="none"></path></g></g><mask></mask><g stroke-linecap="round"><g transform="translate(99.16281171241121 490.62072274837544) rotate(0 22.44997559255603 0.4457638780899629)"><path d="M0.24 1.03 C1.65 1.43, 4.53 2.52, 7.59 2.41 C10.64 2.29, 12.18 0.59, 18.58 0.34 C24.98 0.09, 41.42 0.8, 46 0.91 M-1.1 0.53 C0.19 0.6, 3.19 1.14, 6.37 0.8 C9.56 0.46, 11.46 -1.64, 18.02 -1.52 C24.58 -1.4, 40.79 1.09, 45.76 1.5" stroke="#000000" stroke-width="1" fill="none"></path></g></g><mask></mask><g stroke-linecap="round"><g transform="translate(166 476.55724957567224) rotate(0 58.307300084456756 0.852550526981986)"><path d="M-0.55 0.9 C18.86 0.9, 97.93 0.39, 117.16 0.06 M1.36 0.33 C20.65 0.53, 97.53 1.74, 116.83 1.63" stroke="#1e1e1e" stroke-width="1" fill="none"></path></g><g transform="translate(166 476.55724957567224) rotate(0 58.307300084456756 0.852550526981986)"><path d="M90.07 13.65 C98.88 6.3, 107.18 5.72, 117.49 2.33 M89.33 11.1 C95.14 9.51, 104.05 6.24, 117.75 1.8" stroke="#1e1e1e" stroke-width="1" fill="none"></path></g><g transform="translate(166 476.55724957567224) rotate(0 58.307300084456756 0.852550526981986)"><path d="M90.21 -6.87 C98.98 -6.81, 107.23 0.02, 117.49 2.33 M89.47 -9.42 C95.13 -5.58, 104 -3.4, 117.75 1.8" stroke="#1e1e1e" stroke-width="1" fill="none"></path></g></g><mask></mask><g stroke-linecap="round"><g transform="translate(687 467.55724957567224) rotate(0 82.3589928030409 -1.4834502574055932)"><path d="M-1.18 0.2 C26.15 -0.34, 136.02 -2.68, 163.81 -3.17 M0.41 -0.74 C28.09 -1.1, 138.45 -1.64, 165.9 -1.72" stroke="#1e1e1e" stroke-width="1" fill="none"></path></g><g transform="translate(687 467.55724957567224) rotate(0 82.3589928030409 -1.4834502574055932)"><path d="M138.08 6.68 C145.59 6.84, 154.51 3.91, 166.62 -3.4 M137.87 9.53 C146.89 4.95, 155.61 2.9, 165.44 -1.17" stroke="#1e1e1e" stroke-width="1" fill="none"></path></g><g transform="translate(687 467.55724957567224) rotate(0 82.3589928030409 -1.4834502574055932)"><path d="M137.99 -13.84 C145.54 -7.76, 154.48 -4.76, 166.62 -3.4 M137.79 -10.99 C146.98 -8.91, 155.74 -4.28, 165.44 -1.17" stroke="#1e1e1e" stroke-width="1" fill="none"></path></g></g><mask></mask><g transform="translate(674 430.55724957567224) rotate(0 83.97200775146484 35)"><text x="83.97200775146484" y="0" font-family="Virgil, Segoe UI Emoji" font-size="28px" fill="#1e1e1e" text-anchor="middle" style="white-space: pre;" direction="ltr" dominant-baseline="text-before-edge">recommended</text><text x="83.97200775146484" y="35" font-family="Virgil, Segoe UI Emoji" font-size="28px" fill="#1e1e1e" text-anchor="middle" style="white-space: pre;" direction="ltr" dominant-baseline="text-before-edge">artciles</text></g><g transform="translate(79.45199966430664 533.5572495756722) rotate(0 44.54800033569336 17.5)"><text x="44.54800033569336" y="0" font-family="Virgil, Segoe UI Emoji" font-size="28px" fill="#1e1e1e" text-anchor="middle" style="white-space: pre;" direction="ltr" dominant-baseline="text-before-edge">Article</text></g></svg>